<svg width="100" height="100" viewBox="0 0 100 100" fill="none" xmlns="http://www.w3.org/2000/svg">
<path fill-rule="evenodd" clip-rule="evenodd" d="M50 100C77.6142 100 100 77.6142 100 50C100 22.3858 77.6142 0 50 0C22.3858 0 0 22.3858 0 50C0 77.6142 22.3858 100 50 100ZM30.6248 25.6774C29.5647 24.6151 28.2814 24.0559 26.7749 24C25.2126 24 23.8735 24.5312 22.7576 25.5935C21.6417 26.6 21.0558 27.886 21 29.4516V70.5484C21 72.114 21.558 73.428 22.6739 74.4903C23.8456 75.4968 25.2126 76 26.7749 76C30.1227 75.7204 31.9639 73.9032 32.2987 70.5484V29.4516C32.2429 27.9419 31.6849 26.6839 30.6248 25.6774ZM56.2352 31.129C49.8745 33.7011 44.8249 36.2452 41.0866 38.7613C37.2924 41.3333 35.3675 45.0237 35.3117 49.8323C35.3675 54.6409 37.2645 58.3312 41.0029 60.9032C44.797 63.4194 49.8745 65.9634 56.2352 68.5355L71.3001 74.7419C71.9139 75.0215 72.5835 75.1892 73.3088 75.2452C74.8711 75.357 76.2102 74.9097 77.3261 73.9032C78.442 72.8409 79 71.4989 79 69.8774C79 68.0323 78.6094 66.6903 77.8283 65.8516C77.1029 64.957 76.1544 64.2301 74.9827 63.671L61.9264 58.8903C59.6388 57.9957 57.4627 57.129 55.3983 56.2903C53.3896 55.3957 51.5483 54.3892 49.8745 53.271C48.2006 52.2086 47.3078 51.0624 47.1962 49.8323C47.3078 48.5462 48.2006 47.4 49.8745 46.3935C51.5483 45.2753 53.3896 44.2968 55.3983 43.4581C57.4627 42.5634 59.6388 41.6688 61.9264 40.7742L73.6436 36.329C74.8153 35.7699 75.7638 35.071 76.4892 34.2323C77.2703 33.3376 77.6609 31.9677 77.6609 30.1226C77.6609 28.5011 77.1029 27.1871 75.987 26.1806C74.8711 25.1183 73.532 24.643 71.9697 24.7548C71.2443 24.8108 70.5748 24.9785 69.961 25.2581L56.2352 31.129Z" fill="white"/>
<path fill-rule="evenodd" clip-rule="evenodd" d="M50 100C77.6142 100 100 77.6142 100 50C100 22.3858 77.6142 0 50 0C22.3858 0 0 22.3858 0 50C0 77.6142 22.3858 100 50 100ZM30.6248 25.6774C29.5647 24.6151 28.2814 24.0559 26.7749 24C25.2126 24 23.8735 24.5312 22.7576 25.5935C21.6417 26.6 21.0558 27.886 21 29.4516V70.5484C21 72.114 21.558 73.428 22.6739 74.4903C23.8456 75.4968 25.2126 76 26.7749 76C30.1227 75.7204 31.9639 73.9032 32.2987 70.5484V29.4516C32.2429 27.9419 31.6849 26.6839 30.6248 25.6774ZM56.2352 31.129C49.8745 33.7011 44.8249 36.2452 41.0866 38.7613C37.2924 41.3333 35.3675 45.0237 35.3117 49.8323C35.3675 54.6409 37.2645 58.3312 41.0029 60.9032C44.797 63.4194 49.8745 65.9634 56.2352 68.5355L71.3001 74.7419C71.9139 75.0215 72.5835 75.1892 73.3088 75.2452C74.8711 75.357 76.2102 74.9097 77.3261 73.9032C78.442 72.8409 79 71.4989 79 69.8774C79 68.0323 78.6094 66.6903 77.8283 65.8516C77.1029 64.957 76.1544 64.2301 74.9827 63.671L61.9264 58.8903C59.6388 57.9957 57.4627 57.129 55.3983 56.2903C53.3896 55.3957 51.5483 54.3892 49.8745 53.271C48.2006 52.2086 47.3078 51.0624 47.1962 49.8323C47.3078 48.5462 48.2006 47.4 49.8745 46.3935C51.5483 45.2753 53.3896 44.2968 55.3983 43.4581C57.4627 42.5634 59.6388 41.6688 61.9264 40.7742L73.6436 36.329C74.8153 35.7699 75.7638 35.071 76.4892 34.2323C77.2703 33.3376 77.6609 31.9677 77.6609 30.1226C77.6609 28.5011 77.1029 27.1871 75.987 26.1806C74.8711 25.1183 73.532 24.643 71.9697 24.7548C71.2443 24.8108 70.5748 24.9785 69.961 25.2581L56.2352 31.129Z" fill="url(#paint0_linear_2407_65792)"/>
<path fill-rule="evenodd" clip-rule="evenodd" d="M50 100C77.6142 100 100 77.6142 100 50C100 22.3858 77.6142 0 50 0C22.3858 0 0 22.3858 0 50C0 77.6142 22.3858 100 50 100ZM30.6248 25.6774C29.5647 24.6151 28.2814 24.0559 26.7749 24C25.2126 24 23.8735 24.5312 22.7576 25.5935C21.6417 26.6 21.0558 27.886 21 29.4516V70.5484C21 72.114 21.558 73.428 22.6739 74.4903C23.8456 75.4968 25.2126 76 26.7749 76C30.1227 75.7204 31.9639 73.9032 32.2987 70.5484V29.4516C32.2429 27.9419 31.6849 26.6839 30.6248 25.6774ZM56.2352 31.129C49.8745 33.7011 44.8249 36.2452 41.0866 38.7613C37.2924 41.3333 35.3675 45.0237 35.3117 49.8323C35.3675 54.6409 37.2645 58.3312 41.0029 60.9032C44.797 63.4194 49.8745 65.9634 56.2352 68.5355L71.3001 74.7419C71.9139 75.0215 72.5835 75.1892 73.3088 75.2452C74.8711 75.357 76.2102 74.9097 77.3261 73.9032C78.442 72.8409 79 71.4989 79 69.8774C79 68.0323 78.6094 66.6903 77.8283 65.8516C77.1029 64.957 76.1544 64.2301 74.9827 63.671L61.9264 58.8903C59.6388 57.9957 57.4627 57.129 55.3983 56.2903C53.3896 55.3957 51.5483 54.3892 49.8745 53.271C48.2006 52.2086 47.3078 51.0624 47.1962 49.8323C47.3078 48.5462 48.2006 47.4 49.8745 46.3935C51.5483 45.2753 53.3896 44.2968 55.3983 43.4581C57.4627 42.5634 59.6388 41.6688 61.9264 40.7742L73.6436 36.329C74.8153 35.7699 75.7638 35.071 76.4892 34.2323C77.2703 33.3376 77.6609 31.9677 77.6609 30.1226C77.6609 28.5011 77.1029 27.1871 75.987 26.1806C74.8711 25.1183 73.532 24.643 71.9697 24.7548C71.2443 24.8108 70.5748 24.9785 69.961 25.2581L56.2352 31.129Z" fill="url(#paint1_linear_2407_65792)"/>
<defs>
<linearGradient id="paint0_linear_2407_65792" x1="18" y1="-15.5" x2="-13" y2="59.5" gradientUnits="userSpaceOnUse">
<stop stop-color="#FEAD82"/>
<stop offset="1" stop-color="#FE6385"/>
</linearGradient>
<linearGradient id="paint1_linear_2407_65792" x1="7.52658e-07" y1="60.5" x2="91" y2="24" gradientUnits="userSpaceOnUse">
<stop stop-color="#624AF2"/>
<stop offset="1" stop-color="#50DDC3"/>
</linearGradient>
</defs>
</svg>
