<svg width="32" height="32" viewBox="0 0 32 32" fill="none" xmlns="http://www.w3.org/2000/svg">
<path d="M4 21.6C4 21.2465 4.28654 20.96 4.64 20.96H12V28.96H4.64C4.28654 28.96 4 28.6734 4 28.32V21.6Z" fill="#937AFF"/>
<path fill-rule="evenodd" clip-rule="evenodd" d="M3.73242 21.6C3.73242 21.0993 4.13835 20.6934 4.63909 20.6934H12.2658V29.2267H4.63909C4.13835 29.2267 3.73242 28.8208 3.73242 28.32V21.6ZM4.63909 21.2267C4.4329 21.2267 4.26576 21.3938 4.26576 21.6V28.32C4.26576 28.5262 4.4329 28.6934 4.63909 28.6934H11.7324V21.2267H4.63909Z" fill="#05060F"/>
<path d="M12 20.96H20V28.96H12V20.96Z" fill="#F8DB46"/>
<path fill-rule="evenodd" clip-rule="evenodd" d="M11.7324 20.6934H20.2658V29.2267H11.7324V20.6934ZM12.2658 21.2267V28.6934H19.7324V21.2267H12.2658Z" fill="#05060F"/>
<path d="M20 20.96H27.36C27.7135 20.96 28 21.2465 28 21.6V28.32C28 28.6734 27.7135 28.96 27.36 28.96H20V20.96Z" fill="#15D6CF"/>
<path fill-rule="evenodd" clip-rule="evenodd" d="M19.7324 20.6934H27.3591C27.8598 20.6934 28.2658 21.0993 28.2658 21.6V28.32C28.2658 28.8208 27.8598 29.2267 27.3591 29.2267H19.7324V20.6934ZM20.2658 21.2267V28.6934H27.3591C27.5653 28.6934 27.7324 28.5262 27.7324 28.32V21.6C27.7324 21.3938 27.5653 21.2267 27.3591 21.2267H20.2658Z" fill="#05060F"/>
<path d="M5.99593 7.78663H4.76562L6.64025 2.35632H8.11979L9.99176 7.78663H8.76146L7.40123 3.59723H7.35881L5.99593 7.78663ZM5.91903 5.65216H8.8251V6.54837H5.91903V5.65216Z" fill="#3F96FC"/>
<path d="M12.8522 7.86352C12.5923 7.86352 12.3608 7.81844 12.1575 7.72829C11.9542 7.63637 11.7933 7.50115 11.6749 7.32261C11.5582 7.14231 11.4999 6.91781 11.4999 6.64913C11.4999 6.42286 11.5414 6.23284 11.6245 6.07905C11.7076 5.92526 11.8207 5.80153 11.9639 5.70784C12.1071 5.61415 12.2697 5.54344 12.4518 5.49572C12.6356 5.44799 12.8283 5.4144 13.0298 5.39496C13.2667 5.37021 13.4576 5.34723 13.6026 5.32602C13.7475 5.30304 13.8527 5.26945 13.9181 5.22526C13.9835 5.18107 14.0162 5.11567 14.0162 5.02905V5.01314C14.0162 4.84521 13.9632 4.71529 13.8571 4.62337C13.7528 4.53145 13.6043 4.48549 13.4116 4.48549C13.2084 4.48549 13.0466 4.53057 12.9264 4.62072C12.8062 4.7091 12.7267 4.82046 12.6878 4.95481L11.6431 4.86996C11.6961 4.62248 11.8004 4.4086 11.956 4.22829C12.1115 4.04622 12.3122 3.90658 12.5579 3.80935C12.8053 3.71036 13.0917 3.66087 13.417 3.66087C13.6432 3.66087 13.8598 3.68738 14.0666 3.74041C14.2752 3.79344 14.4599 3.87564 14.6207 3.98701C14.7834 4.09837 14.9115 4.24155 15.0052 4.41655C15.0989 4.58978 15.1457 4.79748 15.1457 5.03966V7.78663H14.0745V7.22185H14.0427C13.9773 7.34913 13.8898 7.46137 13.7802 7.5586C13.6706 7.65405 13.5389 7.72918 13.3851 7.78398C13.2313 7.83701 13.0537 7.86352 12.8522 7.86352ZM13.1757 7.08398C13.3418 7.08398 13.4885 7.05127 13.6158 6.98587C13.7431 6.9187 13.843 6.82855 13.9154 6.71541C13.9879 6.60228 14.0241 6.47413 14.0241 6.33094V5.89875C13.9888 5.92173 13.9402 5.94294 13.8783 5.96238C13.8182 5.98006 13.7502 5.99685 13.6741 6.01276C13.5981 6.0269 13.5221 6.04016 13.4461 6.05254C13.3701 6.06314 13.3012 6.07286 13.2393 6.0817C13.1067 6.10115 12.9909 6.13208 12.892 6.17451C12.793 6.21693 12.7161 6.27438 12.6613 6.34685C12.6065 6.41756 12.5791 6.50594 12.5791 6.61201C12.5791 6.76579 12.6348 6.88334 12.7461 6.96466C12.8592 7.0442 13.0024 7.08398 13.1757 7.08398Z" fill="#3F96FC"/>
<path fill-rule="evenodd" clip-rule="evenodd" d="M6.38356 8.31997H4.01758L6.26043 1.823H8.50036L10.74 8.31997H8.37417L7.97213 7.08171H6.78638L6.38356 8.31997ZM5.99621 7.78663H4.76591L6.64053 2.35633H8.12008L9.99205 7.78663H8.76175L8.3597 6.54838H6.39904L5.99621 7.78663ZM6.69059 5.65216H8.06872L7.40152 3.59724H7.35909L6.69059 5.65216ZM11.9398 8.21506L11.938 8.21426C11.6473 8.08282 11.407 7.88311 11.2308 7.61744L11.2291 7.61491L11.2274 7.61235C11.0424 7.32638 10.9669 6.99485 10.9669 6.64913C10.9669 6.35968 11.0198 6.07681 11.1556 5.82556C11.245 5.66012 11.3597 5.51504 11.4986 5.3933L10.9946 5.35236L11.1219 4.75822C11.1924 4.42934 11.3344 4.13301 11.5516 3.8809C11.769 3.62677 12.0437 3.4395 12.361 3.3138C12.6834 3.18499 13.039 3.12754 13.4172 3.12754C13.6854 3.12754 13.9464 3.15899 14.1989 3.22368C14.4622 3.29071 14.7059 3.39728 14.9235 3.54776C15.1564 3.70753 15.3417 3.91494 15.4752 4.16401C15.6192 4.43082 15.6794 4.72945 15.6794 5.03966V8.31997H13.5415V8.29421C13.3253 8.36619 13.093 8.39686 12.8525 8.39686C12.5306 8.39686 12.2234 8.34085 11.9416 8.21584L11.9398 8.21506ZM13.5415 7.71762C13.6303 7.67303 13.71 7.62003 13.7805 7.5586C13.8224 7.5214 13.8611 7.48199 13.8966 7.44039C13.9538 7.37327 14.0026 7.30043 14.043 7.22186H14.0748V7.78663H15.146V5.03966C15.146 4.79749 15.0992 4.58979 15.0055 4.41656C14.9118 4.24156 14.7837 4.09838 14.621 3.98701C14.4602 3.87565 14.2754 3.79345 14.0669 3.74042C13.86 3.68739 13.6435 3.66088 13.4172 3.66088C13.092 3.66088 12.8056 3.71037 12.5581 3.80936C12.3124 3.90658 12.1118 4.04623 11.9563 4.2283C11.9219 4.26808 11.8901 4.30949 11.8608 4.35254C11.7572 4.50461 11.6847 4.67709 11.6434 4.86997L12.6881 4.95482C12.6936 4.93561 12.7 4.91688 12.7072 4.89862C12.7505 4.78911 12.8237 4.69648 12.9267 4.62073C13.0469 4.53057 13.2087 4.4855 13.4119 4.4855C13.6046 4.4855 13.7531 4.53146 13.8574 4.62338C13.9635 4.7153 14.0165 4.84522 14.0165 5.01315V5.02906C14.0165 5.11567 13.9838 5.18108 13.9184 5.22527C13.853 5.26946 13.7478 5.30305 13.6028 5.32603C13.4764 5.34453 13.315 5.36438 13.1186 5.38557C13.0899 5.38868 13.0604 5.39181 13.0301 5.39497C12.8989 5.40763 12.7715 5.42628 12.6478 5.45093C12.6075 5.45895 12.5676 5.46762 12.5281 5.47691C12.5026 5.48292 12.4773 5.48919 12.4521 5.49573C12.27 5.54345 12.1074 5.61416 11.9642 5.70785C11.821 5.80153 11.7079 5.92527 11.6248 6.07906C11.5417 6.23285 11.5002 6.42287 11.5002 6.64913C11.5002 6.91782 11.5585 7.14232 11.6752 7.32262C11.7936 7.50115 11.9545 7.63638 12.1578 7.7283C12.3611 7.81845 12.5926 7.86353 12.8525 7.86353C13.054 7.86353 13.2316 7.83701 13.3854 7.78398C13.4402 7.76445 13.4923 7.74233 13.5415 7.71762ZM12.6616 6.34686C12.6068 6.41757 12.5794 6.50595 12.5794 6.61201C12.5794 6.7658 12.635 6.88335 12.7464 6.96466C12.8595 7.04421 13.0027 7.08398 13.176 7.08398C13.3126 7.08398 13.4361 7.06187 13.5464 7.01764C13.5645 7.01038 13.5823 7.00252 13.5997 6.99407C13.6052 6.9914 13.6107 6.98867 13.6161 6.98588C13.7434 6.91871 13.8432 6.82855 13.9157 6.71542C13.9214 6.70655 13.9269 6.69759 13.9321 6.68853C13.9697 6.62359 13.9958 6.55391 14.0104 6.47947C14.0133 6.46491 14.0157 6.45017 14.0177 6.43525C14.0187 6.42794 14.0195 6.42059 14.0203 6.41319C14.0231 6.38635 14.0244 6.35894 14.0244 6.33095V5.89876C13.9891 5.92174 13.9405 5.94295 13.8786 5.96239C13.8185 5.98007 13.7504 5.99686 13.6744 6.01277C13.6133 6.02414 13.5522 6.03494 13.4911 6.04517C13.4762 6.04766 13.4613 6.05012 13.4464 6.05254C13.3704 6.06315 13.3015 6.07287 13.2396 6.08171C13.107 6.10115 12.9912 6.13209 12.8922 6.17451C12.7932 6.21694 12.7164 6.27439 12.6616 6.34686Z" fill="#05060F"/>
<path d="M21.0137 3.1467C21.0137 2.43977 21.5867 1.8667 22.2937 1.8667H26.1337C26.8406 1.8667 27.4137 2.43977 27.4137 3.1467V6.9867C27.4137 7.69362 26.8406 8.2667 26.1337 8.2667H22.2937C21.5867 8.2667 21.0137 7.69362 21.0137 6.9867V3.1467Z" fill="white"/>
<path fill-rule="evenodd" clip-rule="evenodd" d="M20.7461 3.14664C20.7461 2.29244 21.4386 1.59998 22.2928 1.59998H26.1328C26.987 1.59998 27.6794 2.29244 27.6794 3.14664V6.98664C27.6794 7.84084 26.987 8.53331 26.1328 8.53331H22.2928C21.4386 8.53331 20.7461 7.84084 20.7461 6.98664V3.14664ZM22.2928 2.13331C21.7331 2.13331 21.2794 2.58699 21.2794 3.14664V6.98664C21.2794 7.54629 21.7331 7.99998 22.2928 7.99998H26.1328C26.6924 7.99998 27.1461 7.54629 27.1461 6.98664V3.14664C27.1461 2.58699 26.6924 2.13331 26.1328 2.13331H22.2928Z" fill="#05060F"/>
<path fill-rule="evenodd" clip-rule="evenodd" d="M23.5331 6.59853L25.4955 5.22632C25.6096 5.15036 25.6096 4.98293 25.4955 4.90697L23.533 3.53475C23.4054 3.44973 23.2344 3.54115 23.2344 3.69442V6.43886C23.2344 6.59213 23.4054 6.68355 23.5331 6.59853Z" fill="#05060F"/>
<path d="M20.4805 14.6134C20.4805 12.6988 22.0325 11.1467 23.9471 11.1467C25.8617 11.1467 27.4138 12.6988 27.4138 14.6134C27.4138 16.528 25.8617 18.0801 23.9471 18.0801C22.0325 18.0801 20.4805 16.528 20.4805 14.6134Z" fill="#DB2323"/>
<path fill-rule="evenodd" clip-rule="evenodd" d="M20.2129 14.6133C20.2129 12.5515 21.8844 10.88 23.9462 10.88C26.0081 10.88 27.6796 12.5515 27.6796 14.6133C27.6796 16.6752 26.0081 18.3467 23.9462 18.3467C21.8844 18.3467 20.2129 16.6752 20.2129 14.6133ZM23.9462 11.4133C22.1789 11.4133 20.7462 12.846 20.7462 14.6133C20.7462 16.3806 22.1789 17.8133 23.9462 17.8133C25.7135 17.8133 27.1462 16.3806 27.1462 14.6133C27.1462 12.846 25.7135 11.4133 23.9462 11.4133Z" fill="#05060F"/>
<path fill-rule="evenodd" clip-rule="evenodd" d="M23.2674 16.1452L25.2299 14.7729C25.3439 14.697 25.3439 14.5296 25.2299 14.4536L23.2674 13.0814C23.1398 12.9964 22.9688 13.0878 22.9688 13.2411V15.9855C22.9688 16.1388 23.1398 16.2302 23.2674 16.1452Z" fill="white"/>
<path d="M4 11.3599C4 10.9476 4.33429 10.6133 4.74667 10.6133H16.7467C17.159 10.6133 17.4933 10.9476 17.4933 11.3599C17.4933 11.7723 17.159 12.1066 16.7467 12.1066H4.74667C4.33429 12.1066 4 11.7723 4 11.3599Z" fill="white"/>
<path fill-rule="evenodd" clip-rule="evenodd" d="M3.73242 11.36C3.73242 10.8004 4.18611 10.3467 4.74576 10.3467H16.7458C17.3054 10.3467 17.7591 10.8004 17.7591 11.36C17.7591 11.9197 17.3054 12.3733 16.7458 12.3733H4.74575C4.18611 12.3733 3.73242 11.9197 3.73242 11.36ZM4.74576 10.88C4.48066 10.88 4.26576 11.0949 4.26576 11.36C4.26576 11.6251 4.48066 11.84 4.74575 11.84H16.7458C17.0109 11.84 17.2258 11.6251 17.2258 11.36C17.2258 11.0949 17.0109 10.88 16.7458 10.88H4.74576Z" fill="#05060F"/>
<path d="M4 14.3466C4 13.9343 4.33429 13.6 4.74667 13.6H16.7467C17.159 13.6 17.4933 13.9343 17.4933 14.3466C17.4933 14.759 17.159 15.0933 16.7467 15.0933H4.74667C4.33429 15.0933 4 14.759 4 14.3466Z" fill="white"/>
<path fill-rule="evenodd" clip-rule="evenodd" d="M3.73242 14.3467C3.73242 13.7871 4.18611 13.3334 4.74576 13.3334H16.7458C17.3054 13.3334 17.7591 13.7871 17.7591 14.3467C17.7591 14.9064 17.3054 15.36 16.7458 15.36H4.74575C4.18611 15.36 3.73242 14.9064 3.73242 14.3467ZM4.74576 13.8667C4.48066 13.8667 4.26576 14.0816 4.26576 14.3467C4.26576 14.6118 4.48066 14.8267 4.74575 14.8267H16.7458C17.0109 14.8267 17.2258 14.6118 17.2258 14.3467C17.2258 14.0816 17.0109 13.8667 16.7458 13.8667H4.74576Z" fill="#05060F"/>
<path d="M4 17.3333C4 16.921 4.33429 16.5867 4.74667 16.5867H16.7467C17.159 16.5867 17.4933 16.921 17.4933 17.3333C17.4933 17.7457 17.159 18.08 16.7467 18.08H4.74667C4.33429 18.08 4 17.7457 4 17.3333Z" fill="white"/>
<path fill-rule="evenodd" clip-rule="evenodd" d="M3.73242 17.3334C3.73242 16.7738 4.18611 16.3201 4.74576 16.3201H16.7458C17.3054 16.3201 17.7591 16.7738 17.7591 17.3334C17.7591 17.8931 17.3054 18.3467 16.7458 18.3467H4.74575C4.18611 18.3467 3.73242 17.893 3.73242 17.3334ZM4.74576 16.8534C4.48066 16.8534 4.26576 17.0683 4.26576 17.3334C4.26576 17.5985 4.48066 17.8134 4.74575 17.8134H16.7458C17.0109 17.8134 17.2258 17.5985 17.2258 17.3334C17.2258 17.0683 17.0109 16.8534 16.7458 16.8534H4.74576Z" fill="#05060F"/>
</svg>
