<svg width="33" height="32" viewBox="0 0 33 32" fill="none" xmlns="http://www.w3.org/2000/svg">
<path d="M2.94531 3.3067C2.94531 2.83542 3.32736 2.45337 3.79865 2.45337H8.81198C9.28326 2.45337 9.66531 2.83542 9.66531 3.3067V13.12C9.66531 13.5913 9.28326 13.9734 8.81198 13.9734H3.79865C3.32736 13.9734 2.94531 13.5913 2.94531 13.12V3.3067Z" fill="white"/>
<path fill-rule="evenodd" clip-rule="evenodd" d="M2.67969 3.30665C2.67969 2.68809 3.18113 2.18665 3.79969 2.18665H8.81302C9.43158 2.18665 9.93302 2.68809 9.93302 3.30665V13.12C9.93302 13.7385 9.43158 14.24 8.81302 14.24H3.79969C3.18113 14.24 2.67969 13.7385 2.67969 13.12V3.30665ZM3.79969 2.71998C3.47568 2.71998 3.21302 2.98264 3.21302 3.30665V13.12C3.21302 13.444 3.47568 13.7067 3.79969 13.7067H8.81302C9.13703 13.7067 9.39969 13.444 9.39969 13.12V3.30665C9.39969 2.98264 9.13703 2.71998 8.81302 2.71998H3.79969Z" fill="#05060F"/>
<path d="M2.94531 18.8801C2.94531 18.4088 3.32736 18.0267 3.79865 18.0267H8.81198C9.28326 18.0267 9.66531 18.4088 9.66531 18.8801V28.6934C9.66531 29.1647 9.28326 29.5467 8.81198 29.5467H3.79865C3.32736 29.5467 2.94531 29.1647 2.94531 28.6934V18.8801Z" fill="white"/>
<path fill-rule="evenodd" clip-rule="evenodd" d="M2.67969 18.88C2.67969 18.2615 3.18113 17.76 3.79969 17.76H8.81302C9.43158 17.76 9.93302 18.2615 9.93302 18.88V28.6933C9.93302 29.3119 9.43158 29.8134 8.81302 29.8134H3.79969C3.18113 29.8134 2.67969 29.3119 2.67969 28.6933V18.88ZM3.79969 18.2933C3.47568 18.2933 3.21302 18.556 3.21302 18.88V28.6933C3.21302 29.0174 3.47568 29.28 3.79969 29.28H8.81302C9.13703 29.28 9.39969 29.0174 9.39969 28.6933V18.88C9.39969 18.556 9.13703 18.2933 8.81302 18.2933H3.79969Z" fill="#05060F"/>
<path d="M13.4531 3.36004C13.4531 2.8593 13.8591 2.45337 14.3598 2.45337H19.2665C19.7672 2.45337 20.1731 2.8593 20.1731 3.36004V13.0667C20.1731 13.5674 19.7672 13.9734 19.2665 13.9734H14.3598C13.8591 13.9734 13.4531 13.5674 13.4531 13.0667V3.36004Z" fill="#F8DB46"/>
<path fill-rule="evenodd" clip-rule="evenodd" d="M14.3589 2.71998C14.3012 2.71998 14.2456 2.72755 14.193 2.74162C14.0507 2.77965 13.9045 2.69514 13.8665 2.55286C13.8285 2.41058 13.913 2.26441 14.0553 2.22637C14.1524 2.20041 14.2542 2.18665 14.3589 2.18665H14.6315C14.7787 2.18665 14.8981 2.30604 14.8981 2.45331C14.8981 2.60059 14.7787 2.71998 14.6315 2.71998H14.3589ZM15.4552 2.45331C15.4552 2.30604 15.5746 2.18665 15.7218 2.18665H16.267C16.4143 2.18665 16.5337 2.30604 16.5337 2.45331C16.5337 2.60059 16.4143 2.71998 16.267 2.71998H15.7218C15.5746 2.71998 15.4552 2.60059 15.4552 2.45331ZM17.0907 2.45331C17.0907 2.30604 17.2101 2.18665 17.3574 2.18665H17.9026C18.0499 2.18665 18.1693 2.30604 18.1693 2.45331C18.1693 2.60059 18.0499 2.71998 17.9026 2.71998H17.3574C17.2101 2.71998 17.0907 2.60059 17.0907 2.45331ZM18.7263 2.45331C18.7263 2.30604 18.8457 2.18665 18.993 2.18665H19.2655C19.3702 2.18665 19.472 2.20041 19.5692 2.22637C19.7114 2.26441 19.7959 2.41058 19.7579 2.55286C19.7199 2.69514 19.5737 2.77965 19.4314 2.74162C19.3788 2.72755 19.3233 2.71998 19.2655 2.71998H18.993C18.8457 2.71998 18.7263 2.60059 18.7263 2.45331ZM13.5518 2.86761C13.694 2.90564 13.7786 3.05181 13.7405 3.1941C13.7265 3.24671 13.7189 3.30225 13.7189 3.35998V3.68354C13.7189 3.83081 13.5995 3.9502 13.4522 3.9502C13.3049 3.9502 13.1855 3.83081 13.1855 3.68354V3.35998C13.1855 3.25534 13.1993 3.1535 13.2253 3.05637C13.2633 2.91409 13.4095 2.82958 13.5518 2.86761ZM20.0727 2.86761C20.2149 2.82958 20.3611 2.91409 20.3992 3.05637C20.4251 3.1535 20.4389 3.25534 20.4389 3.35998V3.68354C20.4389 3.83081 20.3195 3.9502 20.1722 3.9502C20.0249 3.9502 19.9055 3.83081 19.9055 3.68354V3.35998C19.9055 3.30225 19.898 3.24671 19.8839 3.1941C19.8459 3.05181 19.9304 2.90564 20.0727 2.86761ZM20.1722 4.71109C20.3195 4.71109 20.4389 4.83048 20.4389 4.97776V5.62487C20.4389 5.77215 20.3195 5.89154 20.1722 5.89154C20.0249 5.89154 19.9055 5.77215 19.9055 5.62487V4.97776C19.9055 4.83048 20.0249 4.71109 20.1722 4.71109ZM13.4522 4.71109C13.5995 4.71109 13.7189 4.83048 13.7189 4.97776V5.62487C13.7189 5.77215 13.5995 5.89154 13.4522 5.89154C13.3049 5.89154 13.1855 5.77215 13.1855 5.62487V4.97776C13.1855 4.83048 13.3049 4.71109 13.4522 4.71109ZM13.4522 6.65243C13.5995 6.65243 13.7189 6.77182 13.7189 6.91909V7.5662C13.7189 7.71348 13.5995 7.83287 13.4522 7.83287C13.3049 7.83287 13.1855 7.71348 13.1855 7.5662V6.91909C13.1855 6.77182 13.3049 6.65243 13.4522 6.65243ZM20.1722 6.65243C20.3195 6.65243 20.4389 6.77182 20.4389 6.91909V7.5662C20.4389 7.71348 20.3195 7.83287 20.1722 7.83287C20.0249 7.83287 19.9055 7.71348 19.9055 7.5662V6.91909C19.9055 6.77182 20.0249 6.65243 20.1722 6.65243ZM13.4522 8.59376C13.5995 8.59376 13.7189 8.71315 13.7189 8.86043V9.50754C13.7189 9.65482 13.5995 9.77421 13.4522 9.77421C13.3049 9.77421 13.1855 9.65482 13.1855 9.50754V8.86043C13.1855 8.71315 13.3049 8.59376 13.4522 8.59376ZM20.1722 8.59376C20.3195 8.59376 20.4389 8.71315 20.4389 8.86043V9.50754C20.4389 9.65482 20.3195 9.77421 20.1722 9.77421C20.0249 9.77421 19.9055 9.65482 19.9055 9.50754V8.86043C19.9055 8.71315 20.0249 8.59376 20.1722 8.59376ZM20.1722 10.5351C20.3195 10.5351 20.4389 10.6545 20.4389 10.8018V11.4489C20.4389 11.5961 20.3195 11.7155 20.1722 11.7155C20.0249 11.7155 19.9055 11.5961 19.9055 11.4489V10.8018C19.9055 10.6545 20.0249 10.5351 20.1722 10.5351ZM13.4522 10.5351C13.5995 10.5351 13.7189 10.6545 13.7189 10.8018V11.4489C13.7189 11.5961 13.5995 11.7155 13.4522 11.7155C13.3049 11.7155 13.1855 11.5961 13.1855 11.4489V10.8018C13.1855 10.6545 13.3049 10.5351 13.4522 10.5351ZM20.1722 12.4764C20.3195 12.4764 20.4389 12.5958 20.4389 12.7431V13.0667C20.4389 13.1713 20.4251 13.2731 20.3992 13.3703C20.3611 13.5125 20.2149 13.5971 20.0727 13.559C19.9304 13.521 19.8459 13.3748 19.8839 13.2325C19.898 13.1799 19.9055 13.1244 19.9055 13.0667V12.7431C19.9055 12.5958 20.0249 12.4764 20.1722 12.4764ZM13.4522 12.4764C13.5995 12.4764 13.7189 12.5958 13.7189 12.7431V13.0667C13.7189 13.1244 13.7265 13.1799 13.7405 13.2325C13.7786 13.3748 13.694 13.521 13.5518 13.559C13.4095 13.5971 13.2633 13.5125 13.2253 13.3703C13.1993 13.2731 13.1855 13.1713 13.1855 13.0667V12.7431C13.1855 12.5958 13.3049 12.4764 13.4522 12.4764ZM13.8665 13.8738C13.9045 13.7315 14.0507 13.647 14.193 13.685C14.2456 13.6991 14.3012 13.7067 14.3589 13.7067H14.6315C14.7787 13.7067 14.8981 13.826 14.8981 13.9733C14.8981 14.1206 14.7787 14.24 14.6315 14.24H14.3589C14.2542 14.24 14.1524 14.2262 14.0553 14.2003C13.913 14.1622 13.8285 14.0161 13.8665 13.8738ZM19.7579 13.8738C19.7959 14.0161 19.7114 14.1622 19.5692 14.2003C19.472 14.2262 19.3702 14.24 19.2655 14.24H18.993C18.8457 14.24 18.7263 14.1206 18.7263 13.9733C18.7263 13.826 18.8457 13.7067 18.993 13.7067H19.2655C19.3233 13.7067 19.3788 13.6991 19.4314 13.685C19.5737 13.647 19.7199 13.7315 19.7579 13.8738ZM15.4552 13.9733C15.4552 13.826 15.5746 13.7067 15.7218 13.7067H16.267C16.4143 13.7067 16.5337 13.826 16.5337 13.9733C16.5337 14.1206 16.4143 14.24 16.267 14.24H15.7218C15.5746 14.24 15.4552 14.1206 15.4552 13.9733ZM17.0907 13.9733C17.0907 13.826 17.2101 13.7067 17.3574 13.7067H17.9026C18.0499 13.7067 18.1693 13.826 18.1693 13.9733C18.1693 14.1206 18.0499 14.24 17.9026 14.24H17.3574C17.2101 14.24 17.0907 14.1206 17.0907 13.9733Z" fill="#05060F"/>
<path d="M13.4531 18.8801C13.4531 18.4088 13.8352 18.0267 14.3065 18.0267H19.3198C19.7911 18.0267 20.1731 18.4088 20.1731 18.8801V28.6934C20.1731 29.1647 19.7911 29.5467 19.3198 29.5467H14.3065C13.8352 29.5467 13.4531 29.1647 13.4531 28.6934V18.8801Z" fill="white"/>
<path fill-rule="evenodd" clip-rule="evenodd" d="M13.1855 18.88C13.1855 18.2615 13.687 17.76 14.3055 17.76H19.3189C19.9374 17.76 20.4389 18.2615 20.4389 18.88V28.6933C20.4389 29.3119 19.9374 29.8134 19.3189 29.8134H14.3055C13.687 29.8134 13.1855 29.3119 13.1855 28.6933V18.88ZM14.3055 18.2933C13.9815 18.2933 13.7189 18.556 13.7189 18.88V28.6933C13.7189 29.0174 13.9815 29.28 14.3055 29.28H19.3189C19.6429 29.28 19.9055 29.0174 19.9055 28.6933V18.88C19.9055 18.556 19.6429 18.2933 19.3189 18.2933H14.3055Z" fill="#05060F"/>
<path d="M23.5859 3.3067C23.5859 2.83542 23.968 2.45337 24.4393 2.45337H29.4526C29.9239 2.45337 30.3059 2.83542 30.3059 3.3067V13.12C30.3059 13.5913 29.9239 13.9734 29.4526 13.9734H24.4393C23.968 13.9734 23.5859 13.5913 23.5859 13.12V3.3067Z" fill="white"/>
<path fill-rule="evenodd" clip-rule="evenodd" d="M23.3203 3.30665C23.3203 2.68809 23.8218 2.18665 24.4403 2.18665H29.4536C30.0722 2.18665 30.5736 2.68809 30.5736 3.30665V13.12C30.5736 13.7385 30.0722 14.24 29.4536 14.24H24.4403C23.8218 14.24 23.3203 13.7385 23.3203 13.12V3.30665ZM24.4403 2.71998C24.1163 2.71998 23.8536 2.98264 23.8536 3.30665V13.12C23.8536 13.444 24.1163 13.7067 24.4403 13.7067H29.4536C29.7777 13.7067 30.0403 13.444 30.0403 13.12V3.30665C30.0403 2.98264 29.7777 2.71998 29.4536 2.71998H24.4403Z" fill="#05060F"/>
<path fill-rule="evenodd" clip-rule="evenodd" d="M25.2402 12.5867C25.2402 12.4395 25.3596 12.3201 25.5069 12.3201H28.3336C28.4808 12.3201 28.6002 12.4395 28.6002 12.5867C28.6002 12.734 28.4808 12.8534 28.3336 12.8534H25.5069C25.3596 12.8534 25.2402 12.734 25.2402 12.5867Z" fill="#05060F"/>
<path fill-rule="evenodd" clip-rule="evenodd" d="M4.49219 12.5867C4.49219 12.4395 4.61158 12.3201 4.75885 12.3201H7.58552C7.7328 12.3201 7.85219 12.4395 7.85219 12.5867C7.85219 12.734 7.7328 12.8534 7.58552 12.8534H4.75885C4.61158 12.8534 4.49219 12.734 4.49219 12.5867Z" fill="#05060F"/>
<path d="M23.5859 18.9334C23.5859 18.4327 23.9919 18.0267 24.4926 18.0267H29.3993C29.9 18.0267 30.3059 18.4327 30.3059 18.9334V28.6401C30.3059 29.1408 29.9 29.5467 29.3993 29.5467H24.4926C23.9919 29.5467 23.5859 29.1408 23.5859 28.6401V18.9334Z" fill="white"/>
<path fill-rule="evenodd" clip-rule="evenodd" d="M24.4936 18.2933C24.4359 18.2933 24.3804 18.3009 24.3278 18.315C24.1855 18.353 24.0393 18.2685 24.0013 18.1262C23.9632 17.9839 24.0478 17.8378 24.19 17.7997C24.2872 17.7738 24.389 17.76 24.4936 17.76H24.7662C24.9135 17.76 25.0329 17.8794 25.0329 18.0267C25.0329 18.174 24.9135 18.2933 24.7662 18.2933H24.4936ZM25.5899 18.0267C25.5899 17.8794 25.7093 17.76 25.8566 17.76H26.4018C26.5491 17.76 26.6685 17.8794 26.6685 18.0267C26.6685 18.174 26.5491 18.2933 26.4018 18.2933H25.8566C25.7093 18.2933 25.5899 18.174 25.5899 18.0267ZM27.2255 18.0267C27.2255 17.8794 27.3449 17.76 27.4922 17.76H28.0373C28.1846 17.76 28.304 17.8794 28.304 18.0267C28.304 18.174 28.1846 18.2933 28.0373 18.2933H27.4922C27.3449 18.2933 27.2255 18.174 27.2255 18.0267ZM28.8611 18.0267C28.8611 17.8794 28.9804 17.76 29.1277 17.76H29.4003C29.505 17.76 29.6068 17.7738 29.7039 17.7997C29.8462 17.8378 29.9307 17.9839 29.8927 18.1262C29.8547 18.2685 29.7085 18.353 29.5662 18.315C29.5136 18.3009 29.458 18.2933 29.4003 18.2933H29.1277C28.9804 18.2933 28.8611 18.174 28.8611 18.0267ZM23.6865 18.441C23.8288 18.479 23.9133 18.6252 23.8753 18.7675C23.8612 18.8201 23.8536 18.8756 23.8536 18.9333V19.2569C23.8536 19.4042 23.7343 19.5236 23.587 19.5236C23.4397 19.5236 23.3203 19.4042 23.3203 19.2569V18.9333C23.3203 18.8287 23.3341 18.7269 23.36 18.6297C23.3981 18.4875 23.5442 18.4029 23.6865 18.441ZM30.2074 18.441C30.3497 18.4029 30.4959 18.4875 30.5339 18.6297C30.5599 18.7269 30.5736 18.8287 30.5736 18.9333V19.2569C30.5736 19.4042 30.4543 19.5236 30.307 19.5236C30.1597 19.5236 30.0403 19.4042 30.0403 19.2569V18.9333C30.0403 18.8756 30.0327 18.8201 30.0187 18.7675C29.9806 18.6252 30.0652 18.479 30.2074 18.441ZM30.307 20.2845C30.4543 20.2845 30.5736 20.4038 30.5736 20.5511V21.1982C30.5736 21.3455 30.4543 21.4649 30.307 21.4649C30.1597 21.4649 30.0403 21.3455 30.0403 21.1982V20.5511C30.0403 20.4038 30.1597 20.2845 30.307 20.2845ZM23.587 20.2845C23.7343 20.2845 23.8536 20.4038 23.8536 20.5511V21.1982C23.8536 21.3455 23.7343 21.4649 23.587 21.4649C23.4397 21.4649 23.3203 21.3455 23.3203 21.1982V20.5511C23.3203 20.4038 23.4397 20.2845 23.587 20.2845ZM23.587 22.2258C23.7343 22.2258 23.8536 22.3452 23.8536 22.4925V23.1396C23.8536 23.2868 23.7343 23.4062 23.587 23.4062C23.4397 23.4062 23.3203 23.2868 23.3203 23.1396V22.4925C23.3203 22.3452 23.4397 22.2258 23.587 22.2258ZM30.307 22.2258C30.4543 22.2258 30.5736 22.3452 30.5736 22.4925V23.1396C30.5736 23.2868 30.4543 23.4062 30.307 23.4062C30.1597 23.4062 30.0403 23.2868 30.0403 23.1396V22.4925C30.0403 22.3452 30.1597 22.2258 30.307 22.2258ZM23.587 24.1671C23.7343 24.1671 23.8536 24.2865 23.8536 24.4338V25.0809C23.8536 25.2282 23.7343 25.3476 23.587 25.3476C23.4397 25.3476 23.3203 25.2282 23.3203 25.0809V24.4338C23.3203 24.2865 23.4397 24.1671 23.587 24.1671ZM30.307 24.1671C30.4543 24.1671 30.5736 24.2865 30.5736 24.4338V25.0809C30.5736 25.2282 30.4543 25.3476 30.307 25.3476C30.1597 25.3476 30.0403 25.2282 30.0403 25.0809V24.4338C30.0403 24.2865 30.1597 24.1671 30.307 24.1671ZM30.307 26.1085C30.4543 26.1085 30.5736 26.2279 30.5736 26.3751V27.0222C30.5736 27.1695 30.4543 27.2889 30.307 27.2889C30.1597 27.2889 30.0403 27.1695 30.0403 27.0222V26.3751C30.0403 26.2279 30.1597 26.1085 30.307 26.1085ZM23.587 26.1085C23.7343 26.1085 23.8536 26.2279 23.8536 26.3751V27.0222C23.8536 27.1695 23.7343 27.2889 23.587 27.2889C23.4397 27.2889 23.3203 27.1695 23.3203 27.0222V26.3751C23.3203 26.2279 23.4397 26.1085 23.587 26.1085ZM30.307 28.0498C30.4543 28.0498 30.5736 28.1692 30.5736 28.3165V28.64C30.5736 28.7447 30.5599 28.8465 30.5339 28.9436C30.4959 29.0859 30.3497 29.1704 30.2074 29.1324C30.0652 29.0944 29.9806 28.9482 30.0187 28.8059C30.0327 28.7533 30.0403 28.6977 30.0403 28.64V28.3165C30.0403 28.1692 30.1597 28.0498 30.307 28.0498ZM23.587 28.0498C23.7343 28.0498 23.8536 28.1692 23.8536 28.3165V28.64C23.8536 28.6977 23.8612 28.7533 23.8753 28.8059C23.9133 28.9482 23.8288 29.0944 23.6865 29.1324C23.5442 29.1704 23.3981 29.0859 23.36 28.9436C23.3341 28.8465 23.3203 28.7447 23.3203 28.64V28.3165C23.3203 28.1692 23.4397 28.0498 23.587 28.0498ZM24.0013 29.4471C24.0393 29.3049 24.1855 29.2203 24.3278 29.2584C24.3804 29.2724 24.4359 29.28 24.4936 29.28H24.7662C24.9135 29.28 25.0329 29.3994 25.0329 29.5467C25.0329 29.694 24.9135 29.8134 24.7662 29.8134H24.4936C24.389 29.8134 24.2872 29.7996 24.19 29.7736C24.0478 29.7356 23.9632 29.5894 24.0013 29.4471ZM29.8927 29.4471C29.9307 29.5894 29.8462 29.7356 29.7039 29.7736C29.6068 29.7996 29.505 29.8134 29.4003 29.8134H29.1277C28.9804 29.8134 28.8611 29.694 28.8611 29.5467C28.8611 29.3994 28.9804 29.28 29.1277 29.28H29.4003C29.458 29.28 29.5136 29.2724 29.5662 29.2584C29.7085 29.2203 29.8547 29.3049 29.8927 29.4471ZM25.5899 29.5467C25.5899 29.3994 25.7093 29.28 25.8566 29.28H26.4018C26.5491 29.28 26.6685 29.3994 26.6685 29.5467C26.6685 29.694 26.5491 29.8134 26.4018 29.8134H25.8566C25.7093 29.8134 25.5899 29.694 25.5899 29.5467ZM27.2255 29.5467C27.2255 29.3994 27.3449 29.28 27.4922 29.28H28.0373C28.1846 29.28 28.304 29.3994 28.304 29.5467C28.304 29.694 28.1846 29.8134 28.0373 29.8134H27.4922C27.3449 29.8134 27.2255 29.694 27.2255 29.5467Z" fill="#05060F"/>
<path fill-rule="evenodd" clip-rule="evenodd" d="M24.6523 19.8934C24.6523 19.7461 24.7717 19.6267 24.919 19.6267H28.9723C29.1196 19.6267 29.239 19.7461 29.239 19.8934C29.239 20.0407 29.1196 20.16 28.9723 20.16H24.919C24.7717 20.16 24.6523 20.0407 24.6523 19.8934Z" fill="#05060F"/>
<path fill-rule="evenodd" clip-rule="evenodd" d="M24.6523 21.0667C24.6523 20.9194 24.7717 20.8 24.919 20.8H28.9723C29.1196 20.8 29.239 20.9194 29.239 21.0667C29.239 21.214 29.1196 21.3334 28.9723 21.3334H24.919C24.7717 21.3334 24.6523 21.214 24.6523 21.0667Z" fill="#05060F"/>
<path d="M24.7598 26.8801C24.7598 26.7033 24.903 26.5601 25.0798 26.5601H28.8131C28.9898 26.5601 29.1331 26.7033 29.1331 26.8801V27.8401C29.1331 28.0168 28.9898 28.1601 28.8131 28.1601H25.0798C24.903 28.1601 24.7598 28.0168 24.7598 27.8401V26.8801Z" fill="#41CC4F"/>
<path fill-rule="evenodd" clip-rule="evenodd" d="M24.4922 26.88C24.4922 26.556 24.7548 26.2933 25.0789 26.2933H28.8122C29.1362 26.2933 29.3989 26.556 29.3989 26.88V27.84C29.3989 28.164 29.1362 28.4267 28.8122 28.4267H25.0789C24.7548 28.4267 24.4922 28.164 24.4922 27.84V26.88ZM25.0789 26.8267C25.0494 26.8267 25.0255 26.8505 25.0255 26.88V27.84C25.0255 27.8695 25.0494 27.8933 25.0789 27.8933H28.8122C28.8416 27.8933 28.8655 27.8695 28.8655 27.84V26.88C28.8655 26.8505 28.8416 26.8267 28.8122 26.8267H25.0789Z" fill="#05060F"/>
<path fill-rule="evenodd" clip-rule="evenodd" d="M26.8405 24.0534L20.1738 24.0534L20.1738 23.52L26.8405 23.52L26.8405 24.0534Z" fill="#696A6F"/>
<path d="M28.2267 23.5096C28.4401 23.6328 28.4401 23.9407 28.2267 24.0639L26.3867 25.1262C26.1734 25.2494 25.9067 25.0954 25.9067 24.8491L25.9067 22.7244C25.9067 22.4781 26.1734 22.3241 26.3867 22.4473L28.2267 23.5096Z" fill="#3F96FC"/>
<path fill-rule="evenodd" clip-rule="evenodd" d="M28.359 23.2786C28.7501 23.5044 28.7501 24.069 28.359 24.2948L26.519 25.3571C26.1279 25.5829 25.639 25.3006 25.639 24.849L25.639 22.7244C25.639 22.2728 26.1279 21.9905 26.519 22.2163L28.359 23.2786ZM28.0923 23.8329C28.1279 23.8124 28.1279 23.761 28.0923 23.7405L26.2523 22.6782C26.2168 22.6577 26.1723 22.6833 26.1723 22.7244L26.1723 24.849C26.1723 24.8901 26.2168 24.9157 26.2523 24.8952L28.0923 23.8329Z" fill="#05060F"/>
<path fill-rule="evenodd" clip-rule="evenodd" d="M14.3594 25.8667H7.05273V25.3334H14.3594V25.8667Z" fill="#696A6F"/>
<path d="M15.2672 25.6C15.2672 26.4542 14.5747 27.1467 13.7205 27.1467C12.8663 27.1467 12.1738 26.4542 12.1738 25.6C12.1738 24.7458 12.8663 24.0533 13.7205 24.0533C14.5747 24.0533 15.2672 24.7458 15.2672 25.6Z" fill="#DB2323"/>
<path fill-rule="evenodd" clip-rule="evenodd" d="M13.7205 26.6133C14.2801 26.6133 14.7338 26.1597 14.7338 25.6C14.7338 25.0404 14.2801 24.5867 13.7205 24.5867C13.1608 24.5867 12.7072 25.0404 12.7072 25.6C12.7072 26.1597 13.1608 26.6133 13.7205 26.6133ZM13.7205 27.1467C14.5747 27.1467 15.2672 26.4542 15.2672 25.6C15.2672 24.7458 14.5747 24.0533 13.7205 24.0533C12.8663 24.0533 12.1738 24.7458 12.1738 25.6C12.1738 26.4542 12.8663 27.1467 13.7205 27.1467Z" fill="#05060F"/>
<path d="M21.773 23.7867C21.773 24.6409 21.0806 25.3333 20.2264 25.3333C19.3722 25.3333 18.6797 24.6409 18.6797 23.7867C18.6797 22.9325 19.3722 22.24 20.2264 22.24C21.0806 22.24 21.773 22.9325 21.773 23.7867Z" fill="#F8DB46"/>
<path fill-rule="evenodd" clip-rule="evenodd" d="M20.2264 24.8C20.786 24.8 21.2397 24.3463 21.2397 23.7867C21.2397 23.227 20.786 22.7733 20.2264 22.7733C19.6667 22.7733 19.213 23.227 19.213 23.7867C19.213 24.3463 19.6667 24.8 20.2264 24.8ZM20.2264 25.3333C21.0806 25.3333 21.773 24.6409 21.773 23.7867C21.773 22.9325 21.0806 22.24 20.2264 22.24C19.3722 22.24 18.6797 22.9325 18.6797 23.7867C18.6797 24.6409 19.3722 25.3333 20.2264 25.3333Z" fill="#05060F"/>
<path fill-rule="evenodd" clip-rule="evenodd" d="M15.8787 5.83997H7.02539V5.30664H15.8787V5.83997Z" fill="#696A6F"/>
<path fill-rule="evenodd" clip-rule="evenodd" d="M26.8398 10.0266H21.4531V9.49329H26.8398V10.0266Z" fill="#696A6F"/>
<path d="M7.8531 5.54667C7.8531 6.40087 7.16063 7.09334 6.30643 7.09334C5.45223 7.09334 4.75977 6.40087 4.75977 5.54667C4.75977 4.69247 5.45223 4 6.30643 4C7.16063 4 7.8531 4.69247 7.8531 5.54667Z" fill="#F8DB46"/>
<path fill-rule="evenodd" clip-rule="evenodd" d="M6.30643 6.56C6.86608 6.56 7.31977 6.10632 7.31977 5.54667C7.31977 4.98702 6.86608 4.53333 6.30643 4.53333C5.74678 4.53333 5.2931 4.98702 5.2931 5.54667C5.2931 6.10632 5.74678 6.56 6.30643 6.56ZM6.30643 7.09334C7.16063 7.09334 7.8531 6.40087 7.8531 5.54667C7.8531 4.69247 7.16063 4 6.30643 4C5.45223 4 4.75977 4.69247 4.75977 5.54667C4.75977 6.40087 5.45223 7.09334 6.30643 7.09334Z" fill="#05060F"/>
<path d="M18.0392 5.26949C18.2526 5.39266 18.2526 5.70058 18.0392 5.82375L16.1992 6.88607C15.9859 7.00924 15.7192 6.85528 15.7192 6.60895L15.7192 4.4843C15.7192 4.23796 15.9859 4.084 16.1992 4.20717L18.0392 5.26949Z" fill="#3F96FC"/>
<path fill-rule="evenodd" clip-rule="evenodd" d="M18.1735 5.03865C18.5646 5.26446 18.5646 5.82898 18.1735 6.05479L16.3335 7.11711C15.9424 7.34292 15.4535 7.06066 15.4535 6.60904L15.4535 4.48439C15.4535 4.03278 15.9424 3.75052 16.3335 3.97632L18.1735 5.03865ZM17.9068 5.59291C17.9424 5.57238 17.9424 5.52106 17.9068 5.50053L16.0668 4.4382C16.0312 4.41768 15.9868 4.44334 15.9868 4.48439L15.9868 6.60904C15.9868 6.6501 16.0312 6.67576 16.0668 6.65523L17.9068 5.59291Z" fill="#05060F"/>
<path d="M28.2267 9.53622C28.4401 9.65938 28.4401 9.9673 28.2267 10.0905L26.3867 11.1528C26.1734 11.276 25.9067 11.122 25.9067 10.8757L25.9067 8.75102C25.9067 8.50468 26.1734 8.35072 26.3867 8.47389L28.2267 9.53622Z" fill="#3F96FC"/>
<path fill-rule="evenodd" clip-rule="evenodd" d="M28.359 9.30525C28.7501 9.53106 28.7501 10.0956 28.359 10.3214L26.519 11.3837C26.1279 11.6095 25.639 11.3273 25.639 10.8756L25.639 8.75099C25.639 8.29938 26.1279 8.01712 26.519 8.24293L28.359 9.30525ZM28.0923 9.85951C28.1279 9.83898 28.1279 9.78766 28.0923 9.76713L26.2523 8.70481C26.2168 8.68428 26.1723 8.70994 26.1723 8.75099L26.1723 10.8756C26.1723 10.9167 26.2168 10.9424 26.2523 10.9218L28.0923 9.85951Z" fill="#05060F"/>
<path d="M17.9338 21.2163C18.1471 21.3394 18.1471 21.6474 17.9337 21.7705L16.0937 22.8329C15.8804 22.956 15.6137 22.8021 15.6137 22.5557L15.6137 20.4311C15.6137 20.1847 15.8804 20.0308 16.0937 20.1539L17.9338 21.2163Z" fill="#3F96FC"/>
<path d="M5.24008 25.8771C5.02674 25.7539 5.02674 25.446 5.24008 25.3229L7.08008 24.2605C7.29341 24.1374 7.56008 24.2913 7.56008 24.5377L7.56008 26.6623C7.56008 26.9086 7.29341 27.0626 7.08008 26.9394L5.24008 25.8771Z" fill="#3F96FC"/>
<path fill-rule="evenodd" clip-rule="evenodd" d="M5.10583 26.1081C4.71472 25.8823 4.71472 25.3177 5.10583 25.0919L6.94583 24.0296C7.33695 23.8038 7.82583 24.0861 7.82583 24.5377L7.82583 26.6623C7.82583 27.114 7.33694 27.3962 6.94583 27.1704L5.10583 26.1081ZM5.3725 25.5538C5.33694 25.5744 5.33694 25.6257 5.3725 25.6462L7.2125 26.7085C7.24806 26.7291 7.2925 26.7034 7.2925 26.6623L7.2925 24.5377C7.2925 24.4966 7.24806 24.471 7.2125 24.4915L5.3725 25.5538Z" fill="#05060F"/>
<path fill-rule="evenodd" clip-rule="evenodd" d="M11.0792 10.1067H7.50586V9.57336H11.0792C11.4032 9.57336 11.6659 9.83602 11.6659 10.16V21.1734C11.6659 21.2028 11.6897 21.2267 11.7192 21.2267H15.4525V21.76H11.7192C11.3952 21.76 11.1325 21.4974 11.1325 21.1734V10.16C11.1325 10.1306 11.1086 10.1067 11.0792 10.1067Z" fill="#696A6F"/>
<path fill-rule="evenodd" clip-rule="evenodd" d="M15.4805 28.32C15.4805 28.1727 15.5999 28.0533 15.7471 28.0533H17.9338C18.0811 28.0533 18.2005 28.1727 18.2005 28.32C18.2005 28.4673 18.0811 28.5867 17.9338 28.5867H15.7471C15.5999 28.5867 15.4805 28.4673 15.4805 28.32Z" fill="#05060F"/>
<path fill-rule="evenodd" clip-rule="evenodd" d="M4.91992 28.32C4.91992 28.1727 5.03931 28.0533 5.18659 28.0533H7.37326C7.52053 28.0533 7.63992 28.1727 7.63992 28.32C7.63992 28.4673 7.52053 28.5867 7.37326 28.5867H5.18659C5.03931 28.5867 4.91992 28.4673 4.91992 28.32Z" fill="#05060F"/>
<path d="M4.75977 18.08H7.8531V18.3466C7.8531 18.5823 7.66207 18.7733 7.42643 18.7733H5.18643C4.95079 18.7733 4.75977 18.5823 4.75977 18.3466V18.08Z" fill="#05060F"/>
<path d="M4.75977 2.61328H7.8531V2.87995C7.8531 3.11559 7.66207 3.30661 7.42643 3.30661H5.18643C4.95079 3.30661 4.75977 3.11559 4.75977 2.87995V2.61328Z" fill="#05060F"/>
<path d="M15.2656 18.08H18.359V18.3466C18.359 18.5823 18.1679 18.7733 17.9323 18.7733H15.6923C15.4567 18.7733 15.2656 18.5823 15.2656 18.3466V18.08Z" fill="#05060F"/>
<path d="M25.4004 2.61328H28.4937V2.87995C28.4937 3.11559 28.3027 3.30661 28.0671 3.30661H25.8271C25.5914 3.30661 25.4004 3.11559 25.4004 2.87995V2.61328Z" fill="#05060F"/>
<path d="M21.773 9.76005C21.773 10.6142 21.0806 11.3067 20.2264 11.3067C19.3722 11.3067 18.6797 10.6142 18.6797 9.76005C18.6797 8.90585 19.3722 8.21338 20.2264 8.21338C21.0806 8.21338 21.773 8.90585 21.773 9.76005Z" fill="#DB2323"/>
<path fill-rule="evenodd" clip-rule="evenodd" d="M20.2264 10.7734C20.786 10.7734 21.2397 10.3197 21.2397 9.76005C21.2397 9.2004 20.786 8.74671 20.2264 8.74671C19.6667 8.74671 19.213 9.2004 19.213 9.76005C19.213 10.3197 19.6667 10.7734 20.2264 10.7734ZM20.2264 11.3067C21.0806 11.3067 21.773 10.6142 21.773 9.76005C21.773 8.90585 21.0806 8.21338 20.2264 8.21338C19.3722 8.21338 18.6797 8.90585 18.6797 9.76005C18.6797 10.6142 19.3722 11.3067 20.2264 11.3067Z" fill="#05060F"/>
<path d="M7.8531 9.76005C7.8531 10.6142 7.16063 11.3067 6.30643 11.3067C5.45223 11.3067 4.75977 10.6142 4.75977 9.76005C4.75977 8.90585 5.45223 8.21338 6.30643 8.21338C7.16063 8.21338 7.8531 8.90585 7.8531 9.76005Z" fill="#F8DB46"/>
<path fill-rule="evenodd" clip-rule="evenodd" d="M6.30643 10.7734C6.86608 10.7734 7.31977 10.3197 7.31977 9.76005C7.31977 9.2004 6.86608 8.74671 6.30643 8.74671C5.74678 8.74671 5.2931 9.2004 5.2931 9.76005C5.2931 10.3197 5.74678 10.7734 6.30643 10.7734ZM6.30643 11.3067C7.16063 11.3067 7.8531 10.6142 7.8531 9.76005C7.8531 8.90585 7.16063 8.21338 6.30643 8.21338C5.45223 8.21338 4.75977 8.90585 4.75977 9.76005C4.75977 10.6142 5.45223 11.3067 6.30643 11.3067Z" fill="#05060F"/>
<path fill-rule="evenodd" clip-rule="evenodd" d="M18.066 20.9853C18.4572 21.2111 18.4572 21.7756 18.066 22.0014L16.226 23.0638C15.8349 23.2896 15.346 23.0073 15.346 22.5557L15.346 20.431C15.346 19.9794 15.8349 19.6972 16.226 19.923L18.066 20.9853ZM17.7994 21.5396C17.8349 21.519 17.8349 21.4677 17.7994 21.4472L15.9594 20.3849C15.9238 20.3643 15.8794 20.39 15.8794 20.431L15.8794 22.5557C15.8794 22.5968 15.9238 22.6224 15.9594 22.6019L17.7994 21.5396Z" fill="#05060F"/>
</svg>
