<svg width="56" height="56" viewBox="0 0 56 56" fill="none" xmlns="http://www.w3.org/2000/svg">
<rect width="56" height="56" rx="10" fill="url(#paint0_linear_2465_41569)"/>
<g filter="url(#filter0_d_2465_41569)">
<path d="M28 10C18.0198 10 10 18.1 10 28C10 37.9 18.0198 46 28 46C37.9802 46 46 37.9 46 28C46 18.1 37.9802 10 28 10ZM38.0693 23.95C37.0891 28.36 33.0792 31.51 28.5347 31.51H25.505L23.8119 39.07H18.1089L19.802 31.6L20.9604 26.29H26.7525L26.2178 28.81L33.703 24.31L28.1782 19.81L27.6436 22.33H21.8515L23.0099 17.56C23.0099 17.56 29.8713 16.93 32.9901 17.38C35.9307 17.83 38.2475 19.9 38.2475 22.69C38.1584 23.23 38.1584 23.59 38.0693 23.95Z" fill="white"/>
</g>
<defs>
<filter id="filter0_d_2465_41569" x="4" y="8" width="48" height="48" filterUnits="userSpaceOnUse" color-interpolation-filters="sRGB">
<feFlood flood-opacity="0" result="BackgroundImageFix"/>
<feColorMatrix in="SourceAlpha" type="matrix" values="0 0 0 0 0 0 0 0 0 0 0 0 0 0 0 0 0 0 127 0" result="hardAlpha"/>
<feOffset dy="4"/>
<feGaussianBlur stdDeviation="3"/>
<feComposite in2="hardAlpha" operator="out"/>
<feColorMatrix type="matrix" values="0 0 0 0 0 0 0 0 0 0 0 0 0 0 0 0 0 0 0.15 0"/>
<feBlend mode="normal" in2="BackgroundImageFix" result="effect1_dropShadow_2465_41569"/>
<feBlend mode="normal" in="SourceGraphic" in2="effect1_dropShadow_2465_41569" result="shape"/>
</filter>
<linearGradient id="paint0_linear_2465_41569" x1="10.8889" y1="44.1778" x2="37.9556" y2="13.6889" gradientUnits="userSpaceOnUse">
<stop stop-color="#397BD2"/>
<stop offset="1" stop-color="#387CFE"/>
</linearGradient>
</defs>
</svg>
