<svg width="56" height="56" viewBox="0 0 56 56" fill="none" xmlns="http://www.w3.org/2000/svg">
<rect width="56" height="56" rx="10" fill="url(#paint0_linear_2465_41532)"/>
<g filter="url(#filter0_d_2465_41532)">
<path fill-rule="evenodd" clip-rule="evenodd" d="M24.3782 18.9263C24.5608 20.8887 24.601 20.4067 25.8477 23.6445C25.8477 40.4216 22.886 29.4559 20.4088 23.6372C18.8098 19.7346 17.5232 14.8233 13.591 14.5033C11.2773 14.5033 9.23898 16.1489 9.15855 18.3371C9.10545 19.1201 9.21136 19.9008 9.49052 20.6343C10.5822 23.5028 13.3959 30.6753 13.934 32.0025C14.7923 34.1237 15.5732 36.2134 16.3783 38.2575C17.2083 40.3579 18.0631 42.2181 20.9802 42.2181H21.5701C23.6787 42.2181 25.7873 40.2519 26.5924 38.8668C27.8179 36.7523 27.3729 31.2232 28.0193 29.0027C28.2561 29.8945 31.0605 36.7805 31.5159 37.8971C32.321 39.8881 33.1368 42.2174 35.9026 42.2174H36.7891C39.0463 42.2174 40.9283 40.0854 40.9283 37.7951V37.6468C40.9283 36.551 36.8415 26.5569 36.1528 24.8658C35.2771 22.7198 34.5103 20.6723 33.6413 18.5297C32.7831 16.4084 31.9033 14.502 28.958 14.502H28.5127C26.2521 14.502 24.3769 16.6057 24.3769 18.9242L24.3782 18.9263Z" fill="white"/>
</g>
<g filter="url(#filter1_d_2465_41532)">
<path fill-rule="evenodd" clip-rule="evenodd" d="M44.1075 14.5371C41.5702 14.5371 39.5117 16.5913 39.5117 19.1234C39.5117 21.6554 41.5702 23.7069 44.1075 23.7069C46.6448 23.7069 48.7006 21.6554 48.7006 19.1234C48.7006 16.5913 46.6448 14.5371 44.1075 14.5371Z" fill="#FFD591"/>
</g>
<defs>
<filter id="filter0_d_2465_41532" x="3.14551" y="12.502" width="43.7827" height="39.7168" filterUnits="userSpaceOnUse" color-interpolation-filters="sRGB">
<feFlood flood-opacity="0" result="BackgroundImageFix"/>
<feColorMatrix in="SourceAlpha" type="matrix" values="0 0 0 0 0 0 0 0 0 0 0 0 0 0 0 0 0 0 127 0" result="hardAlpha"/>
<feOffset dy="4"/>
<feGaussianBlur stdDeviation="3"/>
<feComposite in2="hardAlpha" operator="out"/>
<feColorMatrix type="matrix" values="0 0 0 0 0 0 0 0 0 0 0 0 0 0 0 0 0 0 0.15 0"/>
<feBlend mode="normal" in2="BackgroundImageFix" result="effect1_dropShadow_2465_41532"/>
<feBlend mode="normal" in="SourceGraphic" in2="effect1_dropShadow_2465_41532" result="shape"/>
</filter>
<filter id="filter1_d_2465_41532" x="33.5117" y="12.5371" width="21.189" height="21.1699" filterUnits="userSpaceOnUse" color-interpolation-filters="sRGB">
<feFlood flood-opacity="0" result="BackgroundImageFix"/>
<feColorMatrix in="SourceAlpha" type="matrix" values="0 0 0 0 0 0 0 0 0 0 0 0 0 0 0 0 0 0 127 0" result="hardAlpha"/>
<feOffset dy="4"/>
<feGaussianBlur stdDeviation="3"/>
<feComposite in2="hardAlpha" operator="out"/>
<feColorMatrix type="matrix" values="0 0 0 0 0 0 0 0 0 0 0 0 0 0 0 0 0 0 0.15 0"/>
<feBlend mode="normal" in2="BackgroundImageFix" result="effect1_dropShadow_2465_41532"/>
<feBlend mode="normal" in="SourceGraphic" in2="effect1_dropShadow_2465_41532" result="shape"/>
</filter>
<linearGradient id="paint0_linear_2465_41532" x1="-1.93498" y1="55.7782" x2="58.8161" y2="-0.299678" gradientUnits="userSpaceOnUse">
<stop stop-color="#39BD5F"/>
<stop offset="1" stop-color="#7DDC98"/>
</linearGradient>
</defs>
</svg>
