<svg width="85" height="82" viewBox="0 0 85 82" fill="none" xmlns="http://www.w3.org/2000/svg">
<g filter="url(#filter0_bdi_3502_5685)">
<g clip-path="url(#clip0_3502_5685)">
<rect x="12" y="13" width="48" height="48" rx="12" fill="url(#paint0_linear_3502_5685)" fill-opacity="0.04" shape-rendering="crispEdges"/>
<g style="mix-blend-mode:plus-lighter" opacity="0.5" filter="url(#filter1_f_3502_5685)">
<path fill-rule="evenodd" clip-rule="evenodd" d="M36 37C36 34.5147 38.0147 32.5 40.5 32.5C42.9853 32.5 45 34.5147 45 37C45 39.4853 42.9853 41.5 40.5 41.5C38.0147 41.5 36 39.4853 36 37Z" fill="#1ABCFE"/>
<path fill-rule="evenodd" clip-rule="evenodd" d="M27 46C27 43.5147 29.0147 41.5 31.5 41.5H36V46C36 48.4853 33.9853 50.5 31.5 50.5C29.0147 50.5 27 48.4853 27 46Z" fill="#0ACF83"/>
<path fill-rule="evenodd" clip-rule="evenodd" d="M36 23.5V32.5H40.5C42.9853 32.5 45 30.4853 45 28C45 25.5147 42.9853 23.5 40.5 23.5H36Z" fill="#FF7262"/>
<path fill-rule="evenodd" clip-rule="evenodd" d="M27 28C27 30.4853 29.0147 32.5 31.5 32.5H36V23.5H31.5C29.0147 23.5 27 25.5147 27 28Z" fill="#F24E1E"/>
<path fill-rule="evenodd" clip-rule="evenodd" d="M27 37C27 39.4853 29.0147 41.5 31.5 41.5H36V32.5H31.5C29.0147 32.5 27 34.5147 27 37Z" fill="#A259FF"/>
</g>
<path fill-rule="evenodd" clip-rule="evenodd" d="M36 37C36 34.5147 38.0147 32.5 40.5 32.5C42.9853 32.5 45 34.5147 45 37C45 39.4853 42.9853 41.5 40.5 41.5C38.0147 41.5 36 39.4853 36 37Z" fill="#1ABCFE"/>
<path fill-rule="evenodd" clip-rule="evenodd" d="M27 46C27 43.5147 29.0147 41.5 31.5 41.5H36V46C36 48.4853 33.9853 50.5 31.5 50.5C29.0147 50.5 27 48.4853 27 46Z" fill="#0ACF83"/>
<path fill-rule="evenodd" clip-rule="evenodd" d="M36 23.5V32.5H40.5C42.9853 32.5 45 30.4853 45 28C45 25.5147 42.9853 23.5 40.5 23.5H36Z" fill="#FF7262"/>
<path fill-rule="evenodd" clip-rule="evenodd" d="M27 28C27 30.4853 29.0147 32.5 31.5 32.5H36V23.5H31.5C29.0147 23.5 27 25.5147 27 28Z" fill="#F24E1E"/>
<path fill-rule="evenodd" clip-rule="evenodd" d="M27 37C27 39.4853 29.0147 41.5 31.5 41.5H36V32.5H31.5C29.0147 32.5 27 34.5147 27 37Z" fill="#A259FF"/>
<g filter="url(#filter2_f_3502_5685)">
<ellipse cx="36.5" cy="60.5" rx="11.5" ry="6.5" fill="#F35A2E"/>
</g>
</g>
<rect x="12" y="13" width="48" height="48" rx="12" stroke="url(#paint1_linear_3502_5685)" stroke-opacity="0.5" stroke-width="0.8" shape-rendering="crispEdges"/>
</g>
<g style="mix-blend-mode:screen" filter="url(#filter3_f_3502_5685)">
<circle cx="29" cy="30" r="9" fill="white" fill-opacity="0.18"/>
</g>
<defs>
<filter id="filter0_bdi_3502_5685" x="-8.3999" y="-7.3999" width="92.7998" height="88.7998" filterUnits="userSpaceOnUse" color-interpolation-filters="sRGB">
<feFlood flood-opacity="0" result="BackgroundImageFix"/>
<feGaussianBlur in="BackgroundImageFix" stdDeviation="10"/>
<feComposite in2="SourceAlpha" operator="in" result="effect1_backgroundBlur_3502_5685"/>
<feColorMatrix in="SourceAlpha" type="matrix" values="0 0 0 0 0 0 0 0 0 0 0 0 0 0 0 0 0 0 127 0" result="hardAlpha"/>
<feOffset dx="8" dy="4"/>
<feGaussianBlur stdDeviation="8"/>
<feComposite in2="hardAlpha" operator="out"/>
<feColorMatrix type="matrix" values="0 0 0 0 0 0 0 0 0 0 0 0 0 0 0 0 0 0 0.08 0"/>
<feBlend mode="normal" in2="effect1_backgroundBlur_3502_5685" result="effect2_dropShadow_3502_5685"/>
<feBlend mode="normal" in="SourceGraphic" in2="effect2_dropShadow_3502_5685" result="shape"/>
<feColorMatrix in="SourceAlpha" type="matrix" values="0 0 0 0 0 0 0 0 0 0 0 0 0 0 0 0 0 0 127 0" result="hardAlpha"/>
<feOffset/>
<feGaussianBlur stdDeviation="4"/>
<feComposite in2="hardAlpha" operator="arithmetic" k2="-1" k3="1"/>
<feColorMatrix type="matrix" values="0 0 0 0 0.588675 0 0 0 0 0.270833 0 0 0 0 1 0 0 0 0.45 0"/>
<feBlend mode="normal" in2="shape" result="effect3_innerShadow_3502_5685"/>
</filter>
<filter id="filter1_f_3502_5685" x="8" y="9" width="56" height="56" filterUnits="userSpaceOnUse" color-interpolation-filters="sRGB">
<feFlood flood-opacity="0" result="BackgroundImageFix"/>
<feBlend mode="normal" in="SourceGraphic" in2="BackgroundImageFix" result="shape"/>
<feGaussianBlur stdDeviation="6" result="effect1_foregroundBlur_3502_5685"/>
</filter>
<filter id="filter2_f_3502_5685" x="7" y="36" width="59" height="49" filterUnits="userSpaceOnUse" color-interpolation-filters="sRGB">
<feFlood flood-opacity="0" result="BackgroundImageFix"/>
<feBlend mode="normal" in="SourceGraphic" in2="BackgroundImageFix" result="shape"/>
<feGaussianBlur stdDeviation="9" result="effect1_foregroundBlur_3502_5685"/>
</filter>
<filter id="filter3_f_3502_5685" x="0" y="1" width="58" height="58" filterUnits="userSpaceOnUse" color-interpolation-filters="sRGB">
<feFlood flood-opacity="0" result="BackgroundImageFix"/>
<feBlend mode="normal" in="SourceGraphic" in2="BackgroundImageFix" result="shape"/>
<feGaussianBlur stdDeviation="10" result="effect1_foregroundBlur_3502_5685"/>
</filter>
<linearGradient id="paint0_linear_3502_5685" x1="12" y1="13" x2="60" y2="61" gradientUnits="userSpaceOnUse">
<stop stop-color="#F8FBFF"/>
<stop offset="1" stop-color="white" stop-opacity="0"/>
</linearGradient>
<linearGradient id="paint1_linear_3502_5685" x1="13" y1="12" x2="58.5" y2="61" gradientUnits="userSpaceOnUse">
<stop stop-color="#D8D8D8" stop-opacity="0.05"/>
<stop offset="1" stop-color="white" stop-opacity="0.4"/>
</linearGradient>
<clipPath id="clip0_3502_5685">
<rect x="12" y="13" width="48" height="48" rx="12" fill="white"/>
</clipPath>
</defs>
</svg>
