<svg width="32" height="32" viewBox="0 0 32 32" fill="none" xmlns="http://www.w3.org/2000/svg">
<g clip-path="url(#clip0_3502_3222)">
<path d="M5.66667 2.57925e-06H26.3333C27.0777 -0.000716969 27.8149 0.149123 28.5027 0.440947C29.1905 0.73277 29.8155 1.16085 30.3418 1.70068C30.8682 2.24052 31.2856 2.88151 31.5701 3.58697C31.8546 4.29244 32.0007 5.04853 32 5.81197V26.188C32.0007 26.9515 31.8546 27.7076 31.5701 28.413C31.2856 29.1185 30.8682 29.7595 30.3418 30.2993C29.8155 30.8392 29.1905 31.2672 28.5027 31.5591C27.8149 31.8509 27.0777 32.0007 26.3333 32H5.66667C4.92231 32.0007 4.18513 31.8509 3.4973 31.5591C2.80947 31.2672 2.1845 30.8392 1.65817 30.2993C1.13183 29.7595 0.714451 29.1185 0.429923 28.413C0.145395 27.7076 -0.000699045 26.9515 2.51477e-06 26.188V5.81197C-0.000699045 5.04853 0.145395 4.29244 0.429923 3.58697C0.714451 2.88151 1.13183 2.24052 1.65817 1.70068C2.1845 1.16085 2.80947 0.73277 3.4973 0.440947C4.18513 0.149123 4.92231 -0.000716969 5.66667 2.57925e-06V2.57925e-06Z" fill="#1D2939"/>
<path d="M12.6663 26.2566C14.5073 26.2566 15.9997 24.7259 15.9997 22.8377V19.4189H12.6663C10.8254 19.4189 9.33301 20.9496 9.33301 22.8377C9.33301 24.7259 10.8254 26.2566 12.6663 26.2566Z" fill="#0ACF83"/>
<path d="M9.33301 15.9999C9.33301 14.1117 10.8254 12.5811 12.6663 12.5811H15.9997V19.4187H12.6663C10.8254 19.4187 9.33301 17.888 9.33301 15.9999Z" fill="#A259FF"/>
<path d="M9.33301 9.16246C9.33301 7.2743 10.8254 5.74365 12.6663 5.74365H15.9997V12.5813H12.6663C10.8254 12.5813 9.33301 11.0506 9.33301 9.16246Z" fill="#F24E1E"/>
<path d="M16 5.74365H19.3333C21.1743 5.74365 22.6667 7.2743 22.6667 9.16246C22.6667 11.0506 21.1743 12.5813 19.3333 12.5813H16V5.74365Z" fill="#FF7262"/>
<path d="M22.6667 15.9999C22.6667 17.888 21.1743 19.4187 19.3333 19.4187C17.4924 19.4187 16 17.888 16 15.9999C16 14.1117 17.4924 12.5811 19.3333 12.5811C21.1743 12.5811 22.6667 14.1117 22.6667 15.9999Z" fill="#1ABCFE"/>
</g>
<defs>
<clipPath id="clip0_3502_3222">
<rect width="32" height="32" rx="6" fill="white"/>
</clipPath>
</defs>
</svg>
