<svg width="240" height="234" viewBox="0 0 240 234" fill="none" xmlns="http://www.w3.org/2000/svg">
<g clip-path="url(#clip0_5_58)">
<path d="M42.5 -1.16568e-05H197.5C203.083 -0.00527336 208.612 1.09043 213.77 3.22439C218.929 5.35835 223.616 8.48868 227.564 12.4362C231.511 16.3838 234.642 21.071 236.776 26.2297C238.91 31.3884 240.005 36.9173 240 42.5V191.5C240.005 197.083 238.91 202.612 236.776 207.77C234.642 212.929 231.511 217.616 227.564 221.564C223.616 225.511 218.929 228.642 213.77 230.776C208.612 232.91 203.083 234.005 197.5 234H42.5C36.9174 234.005 31.3885 232.91 26.2297 230.776C21.071 228.642 16.3838 225.511 12.4362 221.564C8.48871 217.616 5.35838 212.929 3.22442 207.77C1.09046 202.612 -0.00524284 197.083 1.88608e-05 191.5V42.5C-0.00524284 36.9173 1.09046 31.3884 3.22442 26.2297C5.35838 21.071 8.48871 16.3838 12.4362 12.4362C16.3838 8.48868 21.071 5.35835 26.2297 3.22439C31.3885 1.09043 36.9174 -0.00527336 42.5 -1.16568e-05Z" fill="#000B1D"/>
<path d="M95 192C108.807 192 120 180.807 120 167V142H95C81.1929 142 70 153.193 70 167C70 180.807 81.1929 192 95 192Z" fill="#0ACF83"/>
<path d="M70 117C70 103.193 81.1929 92 95 92H120V142H95C81.1929 142 70 130.807 70 117Z" fill="#A259FF"/>
<path d="M70 67C70 53.1929 81.1929 42 95 42H120V92H95C81.1929 92 70 80.8071 70 67Z" fill="#F24E1E"/>
<path d="M120 42H145C158.807 42 170 53.1929 170 67C170 80.8071 158.807 92 145 92H120V42Z" fill="#FF7262"/>
<path d="M170 117C170 130.807 158.807 142 145 142C131.193 142 120 130.807 120 117C120 103.193 131.193 92 145 92C158.807 92 170 103.193 170 117Z" fill="#1ABCFE"/>
</g>
<defs>
<clipPath id="clip0_5_58">
<rect width="240" height="234" fill="white"/>
</clipPath>
</defs>
</svg>
