<svg width="32" height="32" viewBox="0 0 32 32" fill="none" xmlns="http://www.w3.org/2000/svg">
<path d="M15.5 3C8.04125 3 2 8.96465 2 16.3288C2 22.2268 5.86437 27.2085 11.2306 28.9745C11.9056 29.0912 12.1587 28.6913 12.1587 28.3414C12.1587 28.0249 12.1419 26.9752 12.1419 25.8589C8.75 26.4754 7.8725 25.0425 7.6025 24.2928C7.45062 23.9096 6.7925 22.7267 6.21875 22.4101C5.74625 22.1602 5.07125 21.5437 6.20188 21.5271C7.265 21.5104 8.02438 22.4934 8.2775 22.8933C9.4925 24.9092 11.4331 24.3428 12.2094 23.9929C12.3275 23.1265 12.6819 22.5434 13.07 22.2102C10.0662 21.8769 6.9275 20.7273 6.9275 15.6291C6.9275 14.1795 7.45063 12.98 8.31125 12.0469C8.17625 11.7137 7.70375 10.3475 8.44625 8.5148C8.44625 8.5148 9.57688 8.16492 12.1587 9.881C13.2387 9.5811 14.3863 9.43116 15.5338 9.43116C16.6813 9.43116 17.8288 9.5811 18.9088 9.881C21.4906 8.14826 22.6213 8.5148 22.6213 8.5148C23.3638 10.3475 22.8913 11.7137 22.7563 12.0469C23.6169 12.98 24.14 14.1629 24.14 15.6291C24.14 20.744 20.9844 21.8769 17.9806 22.2102C18.47 22.6267 18.8919 23.4264 18.8919 24.676C18.8919 26.4587 18.875 27.8916 18.875 28.3414C18.875 28.6913 19.1281 29.1078 19.8031 28.9745C22.4831 28.0813 24.8119 26.3807 26.4617 24.1122C28.1115 21.8437 28.9993 19.1215 29 16.3288C29 8.96465 22.9588 3 15.5 3Z" fill="#F9FAFB"/>
</svg>
