<svg width="32" height="32" viewBox="0 0 32 32" fill="none" xmlns="http://www.w3.org/2000/svg">
<g clip-path="url(#clip0_3502_3255)">
<path d="M5.66667 2.57925e-06H26.3333C27.0777 -0.000716969 27.8149 0.149123 28.5027 0.440947C29.1905 0.73277 29.8155 1.16085 30.3418 1.70068C30.8682 2.24052 31.2856 2.88151 31.5701 3.58697C31.8546 4.29244 32.0007 5.04853 32 5.81197V26.188C32.0007 26.9515 31.8546 27.7076 31.5701 28.413C31.2856 29.1185 30.8682 29.7595 30.3418 30.2993C29.8155 30.8392 29.1905 31.2672 28.5027 31.5591C27.8149 31.8509 27.0777 32.0007 26.3333 32H5.66667C4.92231 32.0007 4.18513 31.8509 3.4973 31.5591C2.80947 31.2672 2.1845 30.8392 1.65817 30.2993C1.13183 29.7595 0.714451 29.1185 0.429923 28.413C0.145395 27.7076 -0.000699045 26.9515 2.51477e-06 26.188V5.81197C-0.000699045 5.04853 0.145395 4.29244 0.429923 3.58697C0.714451 2.88151 1.13183 2.24052 1.65817 1.70068C2.1845 1.16085 2.80947 0.73277 3.4973 0.440947C4.18513 0.149123 4.92231 -0.000716969 5.66667 2.57925e-06Z" fill="#00005B"/>
<path d="M7.59961 22.441V8.3692C7.59961 8.27347 7.63961 8.21877 7.73294 8.21877C7.95961 8.21877 8.17294 8.21877 8.47961 8.20509C8.78628 8.19142 9.13294 8.19142 9.49294 8.17774C9.85294 8.16407 10.2396 8.16407 10.6529 8.15039C11.0663 8.13672 11.4663 8.13672 11.8663 8.13672C12.9596 8.13672 13.8663 8.27347 14.6129 8.56065C15.2823 8.79378 15.8926 9.17684 16.3996 9.68202C16.8293 10.1241 17.1612 10.6558 17.3729 11.241C17.5748 11.8109 17.6785 12.4124 17.6796 13.0188C17.6796 14.1948 17.4129 15.1658 16.8796 15.9316C16.3438 16.6964 15.5957 17.2778 14.7329 17.6C13.8263 17.9418 12.8263 18.0649 11.7329 18.0649C11.4129 18.0649 11.1996 18.0649 11.0663 18.0512C10.9329 18.0376 10.7463 18.0376 10.4929 18.0376V22.4273C10.4959 22.4498 10.4945 22.4727 10.4886 22.4946C10.4828 22.5165 10.4728 22.537 10.4591 22.5549C10.4454 22.5727 10.4284 22.5876 10.409 22.5986C10.3896 22.6095 10.3683 22.6164 10.3463 22.6188H7.75961C7.65294 22.6188 7.59961 22.5641 7.59961 22.441ZM10.5063 10.8581V15.453C10.6929 15.4666 10.8663 15.4803 11.0263 15.4803H11.7329C12.2535 15.4809 12.7708 15.3979 13.2663 15.2342C13.6913 15.106 14.0711 14.8542 14.3596 14.5094C14.6396 14.1675 14.7729 13.7025 14.7729 13.1008C14.7855 12.6735 14.6791 12.2513 14.4663 11.8837C14.244 11.5287 13.917 11.2556 13.5329 11.1042C13.0324 10.9032 12.4968 10.8101 11.9596 10.8307C11.6129 10.8307 11.3063 10.8307 11.0529 10.8444C10.8707 10.8322 10.6877 10.8368 10.5063 10.8581Z" fill="#9999FF"/>
<path d="M19.5465 11.651H21.8798C21.943 11.6526 22.0041 11.6746 22.0544 11.7139C22.1047 11.7532 22.1416 11.8077 22.1598 11.8698C22.2005 11.9798 22.2274 12.0947 22.2398 12.2117C22.2665 12.3484 22.2931 12.4989 22.3065 12.6356C22.3198 12.7724 22.3331 12.9502 22.3331 13.1279C22.7335 12.6486 23.2173 12.2498 23.7598 11.9519C24.3796 11.5988 25.0775 11.4151 25.7865 11.4185C25.8084 11.4155 25.8307 11.417 25.8521 11.4229C25.8734 11.4289 25.8934 11.4392 25.9108 11.4532C25.9282 11.4673 25.9427 11.4847 25.9534 11.5046C25.9641 11.5245 25.9708 11.5464 25.9731 11.569V14.2903C25.9731 14.3997 25.9065 14.4408 25.7598 14.4408C25.2761 14.4245 24.7924 14.4705 24.3198 14.5775C23.9346 14.6591 23.5592 14.7828 23.1998 14.9467C22.9418 15.066 22.7104 15.2382 22.5198 15.4527V22.4271C22.5198 22.5638 22.4665 22.6185 22.3465 22.6185H19.7198C19.6952 22.6228 19.67 22.6219 19.6458 22.6158C19.6216 22.6098 19.5988 22.5988 19.5788 22.5834C19.5589 22.5681 19.5422 22.5487 19.5297 22.5265C19.5173 22.5044 19.5094 22.4798 19.5065 22.4544V14.8237C19.5065 14.4955 19.5065 14.1536 19.4931 13.798C19.4798 13.4425 19.4798 13.0869 19.4665 12.7314C19.4665 12.4168 19.4398 12.116 19.4131 11.8014C19.4096 11.7853 19.4092 11.7686 19.412 11.7522C19.4148 11.7359 19.4207 11.7203 19.4293 11.7063C19.438 11.6924 19.4493 11.6803 19.4625 11.6708C19.4758 11.6613 19.4907 11.6546 19.5065 11.651C19.5065 11.6373 19.5331 11.6373 19.5465 11.651Z" fill="#9999FF"/>
</g>
<defs>
<clipPath id="clip0_3502_3255">
<rect width="32" height="32" rx="6" fill="white"/>
</clipPath>
</defs>
</svg>
