<svg width="82" height="82" viewBox="0 0 82 82" fill="none" xmlns="http://www.w3.org/2000/svg">
<g filter="url(#filter0_bdi_3502_5857)">
<g clip-path="url(#clip0_3502_5857)">
<rect x="9" y="13" width="48" height="48" rx="12" fill="url(#paint0_linear_3502_5857)" fill-opacity="0.04" shape-rendering="crispEdges"/>
<g style="mix-blend-mode:plus-lighter" opacity="0.5" filter="url(#filter1_f_3502_5857)">
<circle cx="33" cy="37" r="14" fill="#105DFB"/>
<path fill-rule="evenodd" clip-rule="evenodd" d="M23.876 42.9594V30.7434H29.5232C31.3372 30.7434 32.8076 32.2139 32.8076 34.0278C32.8076 35.1804 32.4532 35.8945 31.1536 36.6269C32.7088 37.3355 33.1407 38.3176 33.1407 39.6874C33.1407 41.5405 31.4944 42.9594 29.6414 42.9594H23.876ZM26.2657 32.7656V35.7031H29.0625C29.0625 35.7031 30.4219 35.7031 30.4219 34.2343C30.4219 32.7656 29.0625 32.7656 29.0625 32.7656H26.2657ZM26.2657 40.8906V37.7187H29.2657C29.75 37.7187 30.7657 37.9687 30.7657 39.4687C30.7657 40.5812 29.7657 40.8801 29.2657 40.8906H26.2657Z" fill="white"/>
<path fill-rule="evenodd" clip-rule="evenodd" d="M38.25 34.1093C36.5313 34.1093 33.9844 35.3437 33.9844 38.6249C33.9844 40.6229 35.0782 43.1874 38.3594 43.1874C40.9844 43.1874 42.1927 41.2604 42.4688 40.2968H40C39.875 40.7343 39.3907 41.2187 38.3594 41.2187C36.8594 41.2187 36.3282 39.9374 36.25 39.2968H42.4688V38.6249C42.4688 35.3437 39.9688 34.1093 38.25 34.1093ZM38.25 35.9843C36.85 35.9843 36.3334 37.1406 36.25 37.7187H40C40 37.1406 39.65 35.9843 38.25 35.9843Z" fill="white"/>
<path d="M35.2657 31.4374V32.9531H41.1563V31.4374H35.2657Z" fill="white"/>
</g>
<circle cx="33" cy="37" r="14" fill="#105DFB"/>
<path d="M22.8398 21H44.0364C44.7998 20.9993 45.5559 21.1491 46.2614 21.4409C46.9668 21.7328 47.6078 22.1608 48.1477 22.7007C48.6875 23.2405 49.1156 23.8815 49.4074 24.587C49.6992 25.2924 49.8491 26.0485 49.8483 26.812V47.188C49.8491 47.9515 49.6992 48.7076 49.4074 49.413C49.1156 50.1185 48.6875 50.7595 48.1477 51.2993C47.6078 51.8392 46.9668 52.2672 46.2614 52.5591C45.5559 52.8509 44.7998 53.0007 44.0364 53H22.8398C22.0764 53.0007 21.3203 52.8509 20.6148 52.5591C19.9093 52.2672 19.2683 51.8392 18.7285 51.2993C18.1887 50.7595 17.7606 50.1185 17.4688 49.413C17.177 48.7076 17.0271 47.9515 17.0278 47.188V26.812C17.0271 26.0485 17.177 25.2924 17.4688 24.587C17.7606 23.8815 18.1887 23.2405 18.7285 22.7007C19.2683 22.1608 19.9093 21.7328 20.6148 21.4409C21.3203 21.1491 22.0764 20.9993 22.8398 21V21Z" fill="#001E36"/>
<path d="M24.4126 43.441V29.3692C24.4126 29.2735 24.4536 29.2188 24.5493 29.2188C24.7818 29.2188 25.0006 29.2188 25.3152 29.2051C25.6297 29.1914 25.9852 29.1914 26.3545 29.1777C26.7237 29.1641 27.1203 29.1641 27.5442 29.1504C27.9682 29.1367 28.3784 29.1367 28.7887 29.1367C29.91 29.1367 30.8399 29.2735 31.6058 29.5607C32.2923 29.7938 32.9182 30.1768 33.4382 30.682C33.8789 31.1241 34.2194 31.6558 34.4365 32.241C34.6435 32.8109 34.75 33.4124 34.7511 34.0188C34.7511 35.1948 34.4776 36.1658 33.9305 36.9316C33.381 37.6964 32.6137 38.2778 31.7288 38.6C30.7989 38.9418 29.7733 39.0649 28.6519 39.0649C28.3237 39.0649 28.1049 39.0649 27.9682 39.0512C27.8314 39.0376 27.6399 39.0376 27.3801 39.0376V43.4273C27.3832 43.4498 27.3817 43.4727 27.3757 43.4946C27.3698 43.5165 27.3595 43.537 27.3454 43.5549C27.3314 43.5727 27.3139 43.5876 27.294 43.5986C27.2742 43.6095 27.2523 43.6164 27.2297 43.6188H24.5767C24.4673 43.6188 24.4126 43.5641 24.4126 43.441ZM27.3938 31.8581V36.453C27.5852 36.4666 27.763 36.4803 27.9271 36.4803H28.6519C29.1858 36.4809 29.7164 36.3979 30.2246 36.2342C30.6605 36.106 31.05 35.8542 31.3459 35.5094C31.6331 35.1675 31.7699 34.7025 31.7699 34.1008C31.7827 33.6735 31.6736 33.2513 31.4553 32.8837C31.2273 32.5287 30.892 32.2556 30.4981 32.1042C29.9847 31.9032 29.4354 31.8101 28.8844 31.8307C28.5288 31.8307 28.2143 31.8307 27.9545 31.8444C27.7676 31.8322 27.5799 31.8368 27.3938 31.8581V31.8581Z" fill="#31A8FF"/>
<path d="M43.2844 35.6187C42.8715 35.4012 42.4293 35.2446 41.9716 35.1537C41.4688 35.0399 40.9554 34.9803 40.4399 34.9759C40.1632 34.9664 39.8866 34.9987 39.6194 35.0717C39.4491 35.1071 39.298 35.2046 39.1955 35.3452C39.1264 35.4561 39.0886 35.5837 39.0861 35.7144C39.0925 35.8445 39.1404 35.9691 39.2228 36.07C39.3525 36.222 39.5104 36.3474 39.6878 36.4392C40.0023 36.6033 40.3305 36.7537 40.6587 36.8905C41.3976 37.1392 42.1045 37.4743 42.7647 37.8888C43.2138 38.1711 43.5852 38.5613 43.8451 39.0238C44.0648 39.4601 44.1729 39.944 44.1596 40.4324C44.1707 41.0787 43.9847 41.7131 43.6263 42.2512C43.2448 42.7971 42.7126 43.22 42.0946 43.4682C41.4246 43.7554 40.604 43.9059 39.6194 43.9059C38.9951 43.9084 38.3721 43.8488 37.7596 43.7281C37.2773 43.6447 36.8082 43.4976 36.3647 43.2905C36.317 43.2665 36.2774 43.2292 36.2507 43.183C36.2239 43.1369 36.2113 43.0839 36.2143 43.0306V40.6512C36.2131 40.6278 36.2175 40.6045 36.227 40.5831C36.2365 40.5617 36.2509 40.5429 36.269 40.5281C36.2883 40.5169 36.3106 40.5121 36.3328 40.5146C36.355 40.517 36.3757 40.5266 36.3921 40.5418C36.9189 40.8523 37.491 41.0784 38.0878 41.2118C38.6147 41.3489 39.157 41.4179 39.7015 41.417C40.2211 41.417 40.5904 41.3486 40.8365 41.2255C40.9463 41.1748 41.0394 41.0938 41.1048 40.9921C41.1702 40.8904 41.2052 40.7721 41.2058 40.6512C41.2058 40.4597 41.0963 40.2819 40.8775 40.1041C40.6587 39.9264 40.2075 39.7212 39.5374 39.4614C38.85 39.2192 38.1971 38.8882 37.5955 38.4768C37.167 38.1714 36.8119 37.7743 36.5562 37.3144C36.3379 36.8825 36.2299 36.4033 36.2416 35.9195C36.2437 35.336 36.4044 34.764 36.7066 34.2648C37.054 33.7159 37.5526 33.279 38.1425 33.0067C38.7852 32.6785 39.5921 32.5281 40.563 32.5281C41.1305 32.5282 41.6972 32.5694 42.2587 32.6512C42.6625 32.7058 43.0577 32.8115 43.4348 32.9657C43.4949 32.987 43.5441 33.0312 43.5716 33.0888C43.5873 33.1421 43.5965 33.1973 43.5989 33.2529V35.4819C43.5991 35.5085 43.593 35.5347 43.5812 35.5585C43.5693 35.5823 43.5519 35.6029 43.5305 35.6187C43.451 35.6473 43.3639 35.6473 43.2844 35.6187Z" fill="#31A8FF"/>
<g filter="url(#filter2_f_3502_5857)">
<ellipse cx="33.5" cy="60.5" rx="11.5" ry="6.5" fill="#1460F9"/>
</g>
</g>
<rect x="9" y="13" width="48" height="48" rx="12" stroke="url(#paint1_linear_3502_5857)" stroke-opacity="0.5" stroke-width="0.8" shape-rendering="crispEdges"/>
</g>
<defs>
<filter id="filter0_bdi_3502_5857" x="-11.3999" y="-7.3999" width="92.7998" height="88.7998" filterUnits="userSpaceOnUse" color-interpolation-filters="sRGB">
<feFlood flood-opacity="0" result="BackgroundImageFix"/>
<feGaussianBlur in="BackgroundImageFix" stdDeviation="10"/>
<feComposite in2="SourceAlpha" operator="in" result="effect1_backgroundBlur_3502_5857"/>
<feColorMatrix in="SourceAlpha" type="matrix" values="0 0 0 0 0 0 0 0 0 0 0 0 0 0 0 0 0 0 127 0" result="hardAlpha"/>
<feOffset dx="8" dy="4"/>
<feGaussianBlur stdDeviation="8"/>
<feComposite in2="hardAlpha" operator="out"/>
<feColorMatrix type="matrix" values="0 0 0 0 0 0 0 0 0 0 0 0 0 0 0 0 0 0 0.08 0"/>
<feBlend mode="normal" in2="effect1_backgroundBlur_3502_5857" result="effect2_dropShadow_3502_5857"/>
<feBlend mode="normal" in="SourceGraphic" in2="effect2_dropShadow_3502_5857" result="shape"/>
<feColorMatrix in="SourceAlpha" type="matrix" values="0 0 0 0 0 0 0 0 0 0 0 0 0 0 0 0 0 0 127 0" result="hardAlpha"/>
<feOffset/>
<feGaussianBlur stdDeviation="4"/>
<feComposite in2="hardAlpha" operator="arithmetic" k2="-1" k3="1"/>
<feColorMatrix type="matrix" values="0 0 0 0 0.0784314 0 0 0 0 0.376471 0 0 0 0 0.976471 0 0 0 0.32 0"/>
<feBlend mode="normal" in2="shape" result="effect3_innerShadow_3502_5857"/>
</filter>
<filter id="filter1_f_3502_5857" x="5" y="9" width="56" height="56" filterUnits="userSpaceOnUse" color-interpolation-filters="sRGB">
<feFlood flood-opacity="0" result="BackgroundImageFix"/>
<feBlend mode="normal" in="SourceGraphic" in2="BackgroundImageFix" result="shape"/>
<feGaussianBlur stdDeviation="6" result="effect1_foregroundBlur_3502_5857"/>
</filter>
<filter id="filter2_f_3502_5857" x="4" y="36" width="59" height="49" filterUnits="userSpaceOnUse" color-interpolation-filters="sRGB">
<feFlood flood-opacity="0" result="BackgroundImageFix"/>
<feBlend mode="normal" in="SourceGraphic" in2="BackgroundImageFix" result="shape"/>
<feGaussianBlur stdDeviation="9" result="effect1_foregroundBlur_3502_5857"/>
</filter>
<linearGradient id="paint0_linear_3502_5857" x1="9" y1="13" x2="57" y2="61" gradientUnits="userSpaceOnUse">
<stop stop-color="#F8FBFF"/>
<stop offset="1" stop-color="white" stop-opacity="0"/>
</linearGradient>
<linearGradient id="paint1_linear_3502_5857" x1="10" y1="12" x2="55.5" y2="61" gradientUnits="userSpaceOnUse">
<stop stop-color="#D8D8D8" stop-opacity="0.05"/>
<stop offset="1" stop-color="white" stop-opacity="0.4"/>
</linearGradient>
<clipPath id="clip0_3502_5857">
<rect x="9" y="13" width="48" height="48" rx="12" fill="white"/>
</clipPath>
</defs>
</svg>
