<svg width="32" height="32" viewBox="0 0 32 32" fill="none" xmlns="http://www.w3.org/2000/svg">
<rect width="32" height="32" rx="6" fill="white"/>
<rect width="32" height="32" rx="6" fill="#075FE4"/>
<circle cx="16.001" cy="16.0005" r="16" fill="#075FE4"/>
<path d="M22.3644 13.7816C22.3644 13.7816 20.6809 19.0692 20.5437 19.5057C20.4938 19.0568 19.2592 9.56641 19.2592 9.56641C16.3909 9.56641 14.857 11.6116 14.0464 13.7691C14.0464 13.7691 12.0011 19.0692 11.8265 19.5182C11.8141 19.1066 11.5148 13.8315 11.5148 13.8315C11.3402 11.1876 8.92082 9.57888 6.96289 9.57888L9.33236 23.9578C12.3378 23.9454 13.9591 21.9126 14.8071 19.7551C14.8071 19.7551 16.6154 15.0785 16.6902 14.8665C16.7027 15.0661 17.9872 23.9578 17.9872 23.9578C21.0051 23.9578 22.6263 22.0498 23.4993 19.9671L27.7269 9.57888C24.7464 9.57888 23.1751 11.6116 22.3644 13.7816Z" fill="white"/>
</svg>
