<svg width="720" height="450" viewBox="0 0 720 450" fill="none" xmlns="http://www.w3.org/2000/svg">
<path d="M423.952 162.288C423.952 184.499 406.357 202.867 384.471 204.148C383.613 204.148 382.754 204.148 381.896 204.148C374.601 204.148 367.305 202.012 361.297 198.595C348.423 191.334 339.84 177.665 339.84 161.86C339.84 151.182 343.703 141.357 350.569 134.096C358.293 125.553 369.451 120 381.896 120C398.203 120 412.365 129.397 419.231 143.066C422.235 149.046 423.952 155.453 423.952 162.288Z" fill="url(#paint0_linear_18027_11479)"/>
<path opacity="0.1" d="M423.583 162.287C423.583 184.499 405.988 202.866 384.102 204.148C375.948 202.866 368.224 200.73 360.928 199.022C348.054 191.76 339.471 178.092 339.471 162.287C339.471 151.608 343.333 141.784 350.2 134.522C364.361 134.095 380.669 135.377 397.405 138.367C405.13 139.648 412.425 141.357 419.291 143.065C421.866 149.045 423.583 155.453 423.583 162.287Z" fill="black"/>
<path d="M474.894 190.557C478.133 172.442 438.199 150.218 385.699 140.918C333.199 131.619 288.014 138.765 284.775 156.881C281.536 174.997 321.47 197.221 373.97 206.52C426.47 215.82 471.656 208.673 474.894 190.557Z" fill="url(#paint1_linear_18027_11479)"/>
<path d="M372.315 151.262C372.554 148.205 367.767 145.341 361.623 144.865C355.48 144.39 350.306 146.483 350.067 149.54C349.828 152.598 354.615 155.462 360.758 155.938C366.902 156.413 372.076 154.32 372.315 151.262Z" fill="white"/>
<path d="M318.318 159.114C324.225 157.369 328.303 153.571 327.426 150.631C326.55 147.691 321.05 146.723 315.143 148.468C309.236 150.214 305.158 154.012 306.035 156.952C306.912 159.892 312.411 160.86 318.318 159.114Z" fill="white"/>
<path d="M415.715 162.5C416.255 159.481 411.775 156.162 405.708 155.087C399.641 154.013 394.286 155.589 393.746 158.608C393.206 161.628 397.687 164.946 403.753 166.021C409.82 167.096 415.176 165.519 415.715 162.5Z" fill="white"/>
<path d="M448.294 184.835C449.706 182.109 446.411 177.621 440.934 174.81C435.457 171.999 429.872 171.93 428.46 174.655C427.048 177.381 430.343 181.87 435.82 184.681C441.297 187.492 446.882 187.561 448.294 184.835Z" fill="white"/>
<path d="M374.484 177.586L334.144 177.159L276.696 284.434L437.94 301.459L419.972 192.109L374.484 177.586Z" fill="url(#paint2_linear_18027_11479)"/>
<path opacity="0.5" d="M459.016 330H252.6C258.179 324.98 266.333 319.961 275.774 316.196C280.924 314.314 286.931 311.804 292.939 310.549C310.963 305.53 332.849 302.392 356.023 302.392C383.917 302.392 409.665 306.784 429.406 313.686C436.272 316.196 442.28 318.706 447.43 321.843C452.15 324.353 456.012 326.863 459.016 330Z" fill="url(#paint3_linear_18027_11479)"/>
<path opacity="0.3" d="M295.798 313.584C296.068 316.133 291.645 319.183 286.524 319.731C281.403 320.279 276.911 318.611 276.214 316.108C281.199 314.287 286.993 311.949 292.877 310.46C294.674 311.127 295.663 312.31 295.798 313.584Z" fill="url(#paint4_linear_18027_11479)"/>
<path opacity="0.3" d="M331.991 311.789C338.864 311.789 344.436 310.45 344.436 308.799C344.436 307.147 338.864 305.809 331.991 305.809C325.118 305.809 319.546 307.147 319.546 308.799C319.546 310.45 325.118 311.789 331.991 311.789Z" fill="url(#paint5_linear_18027_11479)"/>
<path opacity="0.3" d="M399.073 311.544C399.214 309.425 393.769 307.341 386.911 306.889C380.053 306.436 374.379 307.787 374.238 309.905C374.097 312.024 379.542 314.108 386.4 314.56C393.258 315.013 398.932 313.662 399.073 311.544Z" fill="url(#paint6_linear_18027_11479)"/>
<path opacity="0.3" d="M446.32 321.169C444.615 320.972 442.567 321.038 440.058 320.317C433.286 319.103 427.987 316.34 428.231 314.218C428.28 313.794 428.28 313.794 428.755 313.419C435.381 315.906 441.404 318.311 446.32 321.169Z" fill="url(#paint7_linear_18027_11479)"/>
<path d="M419.716 193.212C421.169 185.083 403.053 175.076 379.253 170.86C355.453 166.644 334.982 169.816 333.528 177.945C332.075 186.074 350.19 196.081 373.99 200.297C397.791 204.512 418.262 201.34 419.716 193.212Z" fill="url(#paint8_linear_18027_11479)"/>
<path d="M265.612 232.578C265.612 232.578 250.789 236.357 255.281 239.38C259.773 242.251 270.404 247.239 280.436 243.914C290.468 240.589 280.436 235.903 280.586 235.903C280.736 235.903 265.612 232.578 265.612 232.578Z" fill="#CED7E2"/>
<path d="M247.494 231.369C252.885 233.032 269.505 230.311 280.136 223.359C288.522 233.788 291.666 236.508 294.661 236.81C290.019 241.496 274.596 249.053 265.912 239.229C255.73 245.728 247.494 231.369 247.494 231.369Z" fill="#E9EEF8"/>
<path d="M425.543 244.975C431.233 245.277 446.656 238.324 455.041 228.953C465.822 236.964 469.416 238.778 472.56 238.324C469.116 244.068 458.635 256.613 443.811 257.519C433.03 251.171 425.543 244.975 425.543 244.975Z" fill="#E9EEF8"/>
<path d="M376.232 245.161C375.106 239.553 364.558 226.29 353.429 220.471C358.471 207.993 359.326 204.047 358.105 201.103C364.503 203.021 379.216 210.087 383.783 224.274C380.345 236.338 376.232 245.161 376.232 245.161Z" fill="white"/>
<path d="M510 330H496.97H226.834H210" stroke="#D5DAE8" stroke-miterlimit="10" stroke-linecap="round" stroke-linejoin="round"/>
<path d="M326.413 295.681V304.224H321.263V312.34H311.393V304.224H289.936V294.4L309.676 267.062H321.263V295.681H326.413ZM311.822 278.168L299.377 295.681H311.822V278.168Z" fill="url(#paint9_linear_18027_11479)"/>
<path d="M357.311 313.194C347.011 313.194 338 304.224 338 289.701C338 275.178 347.011 266.208 357.311 266.208C367.61 266.208 376.622 275.178 376.622 289.701C377.051 303.797 368.039 313.194 357.311 313.194ZM357.311 304.224C362.031 304.224 367.181 299.525 367.181 289.274C367.181 279.449 362.46 274.323 357.311 274.323C352.59 274.323 347.441 279.022 347.441 289.274C347.87 299.525 352.59 304.224 357.311 304.224Z" fill="url(#paint10_linear_18027_11479)"/>
<path d="M425.544 295.681V304.224H420.394V312.34H410.524V304.224H389.067V294.4L408.807 267.062H419.965V295.681H425.544ZM410.524 278.168L398.079 295.681H410.524V278.168Z" fill="url(#paint11_linear_18027_11479)"/>
<path d="M322.55 295.681V304.224H317.401V312.34H307.53V304.224H286.073V294.4L305.814 267.062H316.972V295.681H322.55ZM307.96 278.168L295.515 295.681H307.96V278.168Z" fill="url(#paint12_linear_18027_11479)"/>
<path d="M353.448 313.194C343.149 313.194 334.137 304.224 334.137 289.701C334.137 275.178 343.149 266.208 353.448 266.208C363.748 266.208 372.76 275.178 372.76 289.701C373.189 303.797 364.177 313.194 353.448 313.194ZM353.448 304.224C358.169 304.224 363.319 299.525 363.319 289.274C363.319 279.449 358.598 274.323 353.448 274.323C348.728 274.323 343.578 279.022 343.578 289.274C344.007 299.525 348.728 304.224 353.448 304.224Z" fill="url(#paint13_linear_18027_11479)"/>
<path d="M421.681 295.681V304.224H416.532V312.34H406.662V304.224H385.205V294.4L404.945 267.062H416.103V295.681H421.681ZM406.662 278.168L394.217 295.681H406.662V278.168Z" fill="url(#paint14_linear_18027_11479)"/>
<defs>
<linearGradient id="paint0_linear_18027_11479" x1="381.903" y1="122.923" x2="381.903" y2="170.155" gradientUnits="userSpaceOnUse">
<stop stop-color="#B0BACC"/>
<stop offset="1" stop-color="#969EAE"/>
</linearGradient>
<linearGradient id="paint1_linear_18027_11479" x1="291.38" y1="158.046" x2="398.062" y2="177.119" gradientUnits="userSpaceOnUse">
<stop stop-color="#E3E7EE"/>
<stop offset="1" stop-color="#D1D6DF"/>
</linearGradient>
<linearGradient id="paint2_linear_18027_11479" x1="357.328" y1="181.477" x2="357.328" y2="251.245" gradientUnits="userSpaceOnUse">
<stop stop-color="#BDC4D1" stop-opacity="0.53"/>
<stop offset="1" stop-color="#5D7CB8" stop-opacity="0"/>
</linearGradient>
<linearGradient id="paint3_linear_18027_11479" x1="355.808" y1="302.392" x2="355.808" y2="330" gradientUnits="userSpaceOnUse">
<stop stop-color="#B6BFD7"/>
<stop offset="1" stop-color="#838DA7" stop-opacity="0"/>
</linearGradient>
<linearGradient id="paint4_linear_18027_11479" x1="285.656" y1="311.531" x2="286.165" y2="316.299" gradientUnits="userSpaceOnUse">
<stop stop-color="#B0BACC"/>
<stop offset="1" stop-color="#969EAE"/>
</linearGradient>
<linearGradient id="paint5_linear_18027_11479" x1="331.993" y1="306.016" x2="331.993" y2="309.373" gradientUnits="userSpaceOnUse">
<stop stop-color="#B0BACC"/>
<stop offset="1" stop-color="#969EAE"/>
</linearGradient>
<linearGradient id="paint6_linear_18027_11479" x1="375.101" y1="309.962" x2="389.04" y2="310.89" gradientUnits="userSpaceOnUse">
<stop stop-color="#B0BACC"/>
<stop offset="1" stop-color="#969EAE"/>
</linearGradient>
<linearGradient id="paint7_linear_18027_11479" x1="437.686" y1="314.654" x2="437.316" y2="317.855" gradientUnits="userSpaceOnUse">
<stop stop-color="#B0BACC"/>
<stop offset="1" stop-color="#969EAE"/>
</linearGradient>
<linearGradient id="paint8_linear_18027_11479" x1="376.622" y1="196.938" x2="383.02" y2="174.941" gradientUnits="userSpaceOnUse">
<stop stop-color="#B0BACC"/>
<stop offset="1" stop-color="#969EAE"/>
</linearGradient>
<linearGradient id="paint9_linear_18027_11479" x1="308.177" y1="268.635" x2="308.177" y2="294.049" gradientUnits="userSpaceOnUse">
<stop stop-color="#D6DCE6"/>
<stop offset="1" stop-color="#C4CBDA"/>
</linearGradient>
<linearGradient id="paint10_linear_18027_11479" x1="357.321" y1="267.84" x2="357.321" y2="294.213" gradientUnits="userSpaceOnUse">
<stop stop-color="#D6DCE6"/>
<stop offset="1" stop-color="#C4CBDA"/>
</linearGradient>
<linearGradient id="paint11_linear_18027_11479" x1="407.308" y1="268.635" x2="407.308" y2="294.049" gradientUnits="userSpaceOnUse">
<stop stop-color="#D6DCE6"/>
<stop offset="1" stop-color="#C4CBDA"/>
</linearGradient>
<linearGradient id="paint12_linear_18027_11479" x1="304.315" y1="268.635" x2="304.315" y2="294.049" gradientUnits="userSpaceOnUse">
<stop stop-color="#EAEEF5"/>
<stop offset="1" stop-color="#D4DAE4"/>
</linearGradient>
<linearGradient id="paint13_linear_18027_11479" x1="353.459" y1="267.84" x2="353.459" y2="294.213" gradientUnits="userSpaceOnUse">
<stop stop-color="#EAEEF5"/>
<stop offset="1" stop-color="#D4DAE4"/>
</linearGradient>
<linearGradient id="paint14_linear_18027_11479" x1="403.446" y1="268.635" x2="403.446" y2="294.049" gradientUnits="userSpaceOnUse">
<stop stop-color="#EAEEF5"/>
<stop offset="1" stop-color="#D4DAE4"/>
</linearGradient>
</defs>
</svg>
