<svg width="41" height="40" viewBox="0 0 41 40" fill="none" xmlns="http://www.w3.org/2000/svg">
<path fill-rule="evenodd" clip-rule="evenodd" d="M9.03516 9.38411C9.03516 9.20002 9.18439 9.05078 9.36849 9.05078H31.0018C31.1859 9.05078 31.3352 9.20002 31.3352 9.38411C31.3352 9.56821 31.1859 9.71745 31.0018 9.71745H9.70182V22.1174H25.5685C25.7526 22.1174 25.9018 22.2667 25.9018 22.4508V31.3174C25.9018 31.5015 25.7526 31.6508 25.5685 31.6508H14.4352C14.2511 31.6508 14.1018 31.5015 14.1018 31.3174C14.1018 31.1334 14.2511 30.9841 14.4352 30.9841H25.2352V22.7841H9.36849C9.18439 22.7841 9.03516 22.6349 9.03516 22.4508V9.38411Z" fill="#696A6F"/>
<path d="M4.40039 4.98555C4.40039 4.54372 4.75856 4.18555 5.20039 4.18555H13.6004C14.0422 4.18555 14.4004 4.54372 14.4004 4.98555V13.3855C14.4004 13.8274 14.0422 14.1855 13.6004 14.1855H5.20039C4.75856 14.1855 4.40039 13.8274 4.40039 13.3855V4.98555Z" fill="#937AFF"/>
<path fill-rule="evenodd" clip-rule="evenodd" d="M4.06641 4.9849C4.06641 4.35897 4.57382 3.85156 5.19974 3.85156H13.5997C14.2257 3.85156 14.7331 4.35897 14.7331 4.9849V13.3849C14.7331 14.0108 14.2257 14.5182 13.5997 14.5182H5.19974C4.57382 14.5182 4.06641 14.0108 4.06641 13.3849V4.9849ZM5.19974 4.51823C4.94201 4.51823 4.73307 4.72716 4.73307 4.9849V13.3849C4.73307 13.6426 4.94201 13.8516 5.19974 13.8516H13.5997C13.8575 13.8516 14.0664 13.6426 14.0664 13.3849V4.9849C14.0664 4.72716 13.8575 4.51823 13.5997 4.51823H5.19974Z" fill="#05060F"/>
<path d="M16.1987 9.18529C16.1987 10.253 15.3331 11.1186 14.2654 11.1186C13.1976 11.1186 12.332 10.253 12.332 9.18529C12.332 8.11754 13.1976 7.25195 14.2654 7.25195C15.3331 7.25195 16.1987 8.11754 16.1987 9.18529Z" fill="#F8DB46"/>
<path fill-rule="evenodd" clip-rule="evenodd" d="M14.2654 10.452C14.9649 10.452 15.532 9.88485 15.532 9.18529C15.532 8.48573 14.9649 7.91862 14.2654 7.91862C13.5658 7.91862 12.9987 8.48573 12.9987 9.18529C12.9987 9.88485 13.5658 10.452 14.2654 10.452ZM14.2654 11.1186C15.3331 11.1186 16.1987 10.253 16.1987 9.18529C16.1987 8.11754 15.3331 7.25195 14.2654 7.25195C13.1976 7.25195 12.332 8.11754 12.332 9.18529C12.332 10.253 13.1976 11.1186 14.2654 11.1186Z" fill="#05060F"/>
<path d="M27.2676 4.98555C27.2676 4.54372 27.6258 4.18555 28.0676 4.18555H36.4676C36.9094 4.18555 37.2676 4.54372 37.2676 4.98555V13.3855C37.2676 13.8274 36.9094 14.1855 36.4676 14.1855H28.0676C27.6258 14.1855 27.2676 13.8274 27.2676 13.3855V4.98555Z" fill="white"/>
<path fill-rule="evenodd" clip-rule="evenodd" d="M26.9336 4.9849C26.9336 4.35897 27.441 3.85156 28.0669 3.85156H36.4669C37.0929 3.85156 37.6003 4.35897 37.6003 4.9849V13.3849C37.6003 14.0108 37.0929 14.5182 36.4669 14.5182H28.0669C27.441 14.5182 26.9336 14.0108 26.9336 13.3849V4.9849ZM28.0669 4.51823C27.8092 4.51823 27.6003 4.72716 27.6003 4.9849V13.3849C27.6003 13.6426 27.8092 13.8516 28.0669 13.8516H36.4669C36.7247 13.8516 36.9336 13.6426 36.9336 13.3849V4.9849C36.9336 4.72716 36.7247 4.51823 36.4669 4.51823H28.0669Z" fill="#05060F"/>
<path d="M29.2007 9.18529C29.2007 10.253 28.3351 11.1186 27.2673 11.1186C26.1996 11.1186 25.334 10.253 25.334 9.18529C25.334 8.11754 26.1996 7.25195 27.2673 7.25195C28.3351 7.25195 29.2007 8.11754 29.2007 9.18529Z" fill="#F8DB46"/>
<path fill-rule="evenodd" clip-rule="evenodd" d="M27.2673 10.452C27.9669 10.452 28.534 9.88485 28.534 9.18529C28.534 8.48573 27.9669 7.91862 27.2673 7.91862C26.5678 7.91862 26.0007 8.48573 26.0007 9.18529C26.0007 9.88485 26.5678 10.452 27.2673 10.452ZM27.2673 11.1186C28.3351 11.1186 29.2007 10.253 29.2007 9.18529C29.2007 8.11754 28.3351 7.25195 27.2673 7.25195C26.1996 7.25195 25.334 8.11754 25.334 9.18529C25.334 10.253 26.1996 11.1186 27.2673 11.1186Z" fill="#05060F"/>
<path d="M11.3335 13.7165C11.3335 14.7843 10.4679 15.6499 9.40013 15.6499C8.33238 15.6499 7.4668 14.7843 7.4668 13.7165C7.4668 12.6488 8.33238 11.7832 9.40013 11.7832C10.4679 11.7832 11.3335 12.6488 11.3335 13.7165Z" fill="#F8DB46"/>
<path fill-rule="evenodd" clip-rule="evenodd" d="M9.40013 14.9832C10.0997 14.9832 10.6668 14.4161 10.6668 13.7165C10.6668 13.017 10.0997 12.4499 9.40013 12.4499C8.70057 12.4499 8.13346 13.017 8.13346 13.7165C8.13346 14.4161 8.70057 14.9832 9.40013 14.9832ZM9.40013 15.6499C10.4679 15.6499 11.3335 14.7843 11.3335 13.7165C11.3335 12.6488 10.4679 11.7832 9.40013 11.7832C8.33238 11.7832 7.4668 12.6488 7.4668 13.7165C7.4668 14.7843 8.33238 15.6499 9.40013 15.6499Z" fill="#05060F"/>
<path d="M4.40039 27.2512C4.40039 26.8093 4.75856 26.4512 5.20039 26.4512H13.6004C14.0422 26.4512 14.4004 26.8093 14.4004 27.2512V35.6512C14.4004 36.093 14.0422 36.4512 13.6004 36.4512H5.20039C4.75856 36.4512 4.40039 36.093 4.40039 35.6512V27.2512Z" fill="#15D6CF"/>
<path fill-rule="evenodd" clip-rule="evenodd" d="M4.06641 27.2505C4.06641 26.6246 4.57382 26.1172 5.19974 26.1172H13.5997C14.2257 26.1172 14.7331 26.6246 14.7331 27.2505V35.6505C14.7331 36.2764 14.2257 36.7839 13.5997 36.7839H5.19974C4.57382 36.7839 4.06641 36.2764 4.06641 35.6505V27.2505ZM5.19974 26.7839C4.94201 26.7839 4.73307 26.9928 4.73307 27.2505V35.6505C4.73307 35.9083 4.94201 36.1172 5.19974 36.1172H13.5997C13.8575 36.1172 14.0664 35.9083 14.0664 35.6505V27.2505C14.0664 26.9928 13.8575 26.7839 13.5997 26.7839H5.19974Z" fill="#05060F"/>
<path d="M16.1987 31.4509C16.1987 32.5187 15.3331 33.3842 14.2654 33.3842C13.1976 33.3842 12.332 32.5187 12.332 31.4509C12.332 30.3832 13.1976 29.5176 14.2654 29.5176C15.3331 29.5176 16.1987 30.3832 16.1987 31.4509Z" fill="#F8DB46"/>
<path fill-rule="evenodd" clip-rule="evenodd" d="M14.2654 32.7176C14.9649 32.7176 15.532 32.1505 15.532 31.4509C15.532 30.7514 14.9649 30.1842 14.2654 30.1842C13.5658 30.1842 12.9987 30.7514 12.9987 31.4509C12.9987 32.1505 13.5658 32.7176 14.2654 32.7176ZM14.2654 33.3842C15.3331 33.3842 16.1987 32.5187 16.1987 31.4509C16.1987 30.3832 15.3331 29.5176 14.2654 29.5176C13.1976 29.5176 12.332 30.3832 12.332 31.4509C12.332 32.5187 13.1976 33.3842 14.2654 33.3842Z" fill="#05060F"/>
<path d="M30.1758 22.4844C30.1758 25.2458 27.9372 27.4844 25.1758 27.4844C22.4144 27.4844 20.1758 25.2458 20.1758 22.4844C20.1758 19.723 22.4144 17.4844 25.1758 17.4844C27.9372 17.4844 30.1758 19.723 30.1758 22.4844Z" fill="white"/>
<path fill-rule="evenodd" clip-rule="evenodd" d="M22.291 25.0713C22.8387 24.3079 23.8085 23.7337 25.4258 23.7337C27.043 23.7337 28.0129 24.3079 28.5605 25.0713C29.0898 25.8091 29.1741 26.6548 29.1757 27.1227C29.1774 27.5933 28.7829 27.9004 28.3785 27.9004H22.473C22.0686 27.9004 21.6741 27.5933 21.6758 27.1227C21.6775 26.6548 21.7618 25.8091 22.291 25.0713Z" fill="#3F96FC"/>
<path fill-rule="evenodd" clip-rule="evenodd" d="M25.4258 22.6888C26.3463 22.6888 27.0925 21.9426 27.0925 21.0221C27.0925 20.1017 26.3463 19.3555 25.4258 19.3555C24.5053 19.3555 23.7591 20.1017 23.7591 21.0221C23.7591 21.9426 24.5053 22.6888 25.4258 22.6888Z" fill="#3F96FC"/>
<path fill-rule="evenodd" clip-rule="evenodd" d="M25.4258 19.668C24.6779 19.668 24.0716 20.2742 24.0716 21.0221C24.0716 21.77 24.6779 22.3763 25.4258 22.3763C26.1737 22.3763 26.78 21.77 26.78 21.0221C26.78 20.2742 26.1737 19.668 25.4258 19.668ZM23.4466 21.0221C23.4466 19.9291 24.3327 19.043 25.4258 19.043C26.5189 19.043 27.405 19.9291 27.405 21.0221C27.405 22.1152 26.5189 23.0013 25.4258 23.0013C24.3327 23.0013 23.4466 22.1152 23.4466 21.0221ZM22.0371 24.8892C22.6535 24.0299 23.7265 23.4212 25.4258 23.4212C27.125 23.4212 28.198 24.0299 28.8144 24.8892C29.3986 25.7035 29.4864 26.6259 29.4882 27.1216C29.4906 27.7932 28.9265 28.2129 28.3785 28.2129H22.473C21.925 28.2129 21.3609 27.7932 21.3633 27.1216C21.3651 26.6259 21.4529 25.7035 22.0371 24.8892ZM25.4258 24.0462C23.8906 24.0462 23.0238 24.5859 22.545 25.2535C22.0706 25.9147 21.9899 26.6837 21.9883 27.1238C21.9873 27.3933 22.2122 27.5879 22.473 27.5879H28.3785C28.6394 27.5879 28.8642 27.3933 28.8632 27.1238C28.8617 26.6837 28.7809 25.9147 28.3066 25.2535C27.8277 24.5859 26.9609 24.0462 25.4258 24.0462Z" fill="#05060F"/>
<path d="M29.7188 28.7712L31.5708 30.513L32.7669 29.3056L31.0885 27.4648L29.7188 28.7712Z" fill="white"/>
<path fill-rule="evenodd" clip-rule="evenodd" d="M17.668 22.5671C17.668 18.3426 21.0919 14.918 25.3156 14.918C29.5393 14.918 32.9633 18.3426 32.9633 22.5671C32.9633 24.3791 32.3334 26.0438 31.2807 27.3543L31.1918 27.4656L32.3544 28.6005C31.8776 29.1359 31.1918 29.7162 30.8658 30.0876L29.6261 28.8946L29.5274 28.9527C28.3196 29.7513 26.872 30.2162 25.3156 30.2162C21.0919 30.2162 17.668 26.7916 17.668 22.5671ZM25.3156 15.3391C21.3245 15.3391 18.0891 18.5752 18.0891 22.5671C18.0891 26.559 21.3245 29.7951 25.3156 29.7951C29.3068 29.7951 32.5422 26.559 32.5422 22.5671C32.5422 18.5752 29.3068 15.3391 25.3156 15.3391ZM31.8776 28.6989L30.9374 27.818L30.0371 28.6989L30.9846 29.5905L31.8776 28.6989Z" fill="#05060F"/>
<path fill-rule="evenodd" clip-rule="evenodd" d="M17.5352 22.5676C17.5352 18.2695 21.0188 14.7852 25.3161 14.7852C29.6135 14.7852 33.0971 18.2695 33.0971 22.5676C33.0971 24.411 32.4563 26.1049 31.3853 27.4382L31.3851 27.4384L31.3718 27.4551L32.6683 28.7237L32.5836 28.8188C32.3409 29.0912 32.0463 29.3738 31.775 29.6318C31.7559 29.65 31.7369 29.668 31.7181 29.6859C31.4667 29.9247 31.2425 30.1377 31.0956 30.3052L31.0035 30.41L29.6071 29.0614L29.5986 29.0664C28.3702 29.8777 26.8982 30.3501 25.3161 30.3501C21.0188 30.3501 17.5352 26.8657 17.5352 22.5676ZM25.3161 15.0518C21.1661 15.0518 17.8018 18.4167 17.8018 22.5676C17.8018 26.7185 21.1661 30.0834 25.3161 30.0834C26.8456 30.0834 28.2677 29.6266 29.4544 28.842L29.4573 28.8401L29.6462 28.7289C30.8193 29.8579 31.2368 30.0109 29.8451 28.7013L30.9359 27.6339C32.4344 29.0379 32.3339 28.7668 31.0128 27.4773L31.177 27.2717L31.1772 27.2714C32.2117 25.9836 32.8305 24.3482 32.8305 22.5676C32.8305 18.4167 29.4662 15.0518 25.3161 15.0518ZM25.3161 15.473C21.3987 15.473 18.2229 18.6493 18.2229 22.5676C18.2229 26.4859 21.3987 29.6622 25.3161 29.6622C29.2336 29.6622 32.4094 26.4859 32.4094 22.5676C32.4094 18.6493 29.2336 15.473 25.3161 15.473ZM17.9562 22.5676C17.9562 18.5021 21.2514 15.2063 25.3161 15.2063C29.3809 15.2063 32.6761 18.5021 32.6761 22.5676C32.6761 26.6331 29.3809 29.9289 25.3161 29.9289C21.2514 29.9289 17.9562 26.6331 17.9562 22.5676ZM30.9399 28.0031L30.2302 28.6975L31.1114 29.5344L31.8154 28.8315L30.9399 28.0031Z" fill="#05060F"/>
<path d="M32.3215 28.7273C32.5797 28.4691 32.9869 28.4576 33.2309 28.7016L38.3726 33.8433C38.948 34.4187 38.9208 35.3787 38.3119 35.9876C37.703 36.5965 36.743 36.6236 36.1676 36.0482L31.0259 30.9065C30.7819 30.6625 30.7934 30.2554 31.0516 29.9972L32.3215 28.7273Z" fill="#DB2323"/>
<path fill-rule="evenodd" clip-rule="evenodd" d="M38.0324 33.9732L32.9971 28.938C32.8957 28.8365 32.7 28.8229 32.5592 28.9637L31.2893 30.2336C31.1485 30.3744 31.1621 30.5701 31.2636 30.6715L36.2988 35.7068C36.7316 36.1396 37.4803 36.1376 37.9717 35.6461C38.4632 35.1547 38.4652 34.406 38.0324 33.9732ZM33.4685 28.4666L38.5038 33.5018C39.2217 34.2198 39.1694 35.3912 38.4431 36.1175C37.7168 36.8438 36.5453 36.8961 35.8274 36.1782L30.7922 31.1429C30.4056 30.7564 30.4422 30.1378 30.8179 29.7622L32.0878 28.4923C32.4634 28.1167 33.082 28.08 33.4685 28.4666Z" fill="#05060F"/>
<path fill-rule="evenodd" clip-rule="evenodd" d="M32.7671 22.574C32.7671 18.4633 29.4347 15.1309 25.324 15.1309C21.2133 15.1309 17.8809 18.4633 17.8809 22.574C17.8809 26.6847 21.2133 30.0171 25.324 30.0171C29.4347 30.0171 32.7671 26.6847 32.7671 22.574ZM30.4592 22.5592C30.4592 19.7281 28.1642 17.433 25.333 17.433C22.5019 17.433 20.2068 19.7281 20.2068 22.5592C20.2068 25.3903 22.5019 27.6854 25.333 27.6854C28.1642 27.6854 30.4592 25.3903 30.4592 22.5592Z" fill="#F8DB46"/>
<path fill-rule="evenodd" clip-rule="evenodd" d="M25.3233 15.4635C21.3967 15.4635 18.2135 18.6467 18.2135 22.5733C18.2135 26.5 21.3967 29.6831 25.3233 29.6831C29.25 29.6831 32.4331 26.5 32.4331 22.5733C32.4331 18.6467 29.25 15.4635 25.3233 15.4635ZM17.5469 22.5733C17.5469 18.2785 21.0285 14.7969 25.3233 14.7969C29.6182 14.7969 33.0998 18.2785 33.0998 22.5733C33.0998 26.8682 29.6182 30.3498 25.3233 30.3498C21.0285 30.3498 17.5469 26.8682 17.5469 22.5733ZM25.3324 17.7657C22.6854 17.7657 20.5395 19.9115 20.5395 22.5585C20.5395 25.2056 22.6854 27.3514 25.3324 27.3514C27.9794 27.3514 30.1253 25.2056 30.1253 22.5585C30.1253 19.9115 27.9794 17.7657 25.3324 17.7657ZM19.8729 22.5585C19.8729 19.5433 22.3172 17.099 25.3324 17.099C28.3476 17.099 30.7919 19.5433 30.7919 22.5585C30.7919 25.5738 28.3476 28.0181 25.3324 28.0181C22.3172 28.0181 19.8729 25.5738 19.8729 22.5585Z" fill="#05060F"/>
</svg>
