<svg width="33" height="32" viewBox="0 0 33 32" fill="none" xmlns="http://www.w3.org/2000/svg">
<path d="M3.52148 19.578C3.52148 19.2809 3.69922 19.04 3.91847 19.04H14.5378C14.7571 19.04 14.9348 19.2809 14.9348 19.578V21.5954C14.9348 21.8925 14.7571 22.1334 14.5378 22.1334H3.91847C3.69922 22.1334 3.52148 21.8925 3.52148 21.5954V19.578Z" fill="#15D6CF"/>
<path fill-rule="evenodd" clip-rule="evenodd" d="M3.85142 19.3559C3.81674 19.4029 3.78724 19.4805 3.78724 19.578V21.5953C3.78724 21.6928 3.81674 21.7704 3.85142 21.8174C3.88615 21.8645 3.91257 21.8667 3.91756 21.8667H14.5369C14.5419 21.8667 14.5683 21.8645 14.6031 21.8174C14.6377 21.7704 14.6672 21.6928 14.6672 21.5953V19.578C14.6672 19.4805 14.6377 19.4029 14.6031 19.3559C14.5683 19.3088 14.5419 19.3066 14.5369 19.3066H3.91756C3.91257 19.3066 3.88615 19.3088 3.85142 19.3559ZM3.42228 19.0392C3.53122 18.8916 3.7033 18.7733 3.91756 18.7733H14.5369C14.7512 18.7733 14.9233 18.8916 15.0322 19.0392C15.1412 19.1869 15.2006 19.3783 15.2006 19.578V21.5953C15.2006 21.795 15.1412 21.9864 15.0322 22.1341C14.9233 22.2817 14.7512 22.4 14.5369 22.4H3.91756C3.7033 22.4 3.53122 22.2817 3.42228 22.1341C3.31327 21.9864 3.25391 21.795 3.25391 21.5953V19.578C3.25391 19.3783 3.31327 19.1869 3.42228 19.0392Z" fill="#05060F"/>
<path d="M3.52148 25.018C3.52148 24.7208 3.69922 24.48 3.91847 24.48H14.5378C14.7571 24.48 14.9348 24.7208 14.9348 25.018V27.0353C14.9348 27.3325 14.7571 27.5733 14.5378 27.5733H3.91847C3.69922 27.5733 3.52148 27.3325 3.52148 27.0353V25.018Z" fill="white"/>
<path fill-rule="evenodd" clip-rule="evenodd" d="M3.85142 24.796C3.81674 24.8429 3.78724 24.9206 3.78724 25.018V27.0354C3.78724 27.1328 3.81674 27.2105 3.85142 27.2575C3.88615 27.3045 3.91257 27.3067 3.91756 27.3067H14.5369C14.5419 27.3067 14.5683 27.3045 14.6031 27.2575C14.6377 27.2105 14.6672 27.1328 14.6672 27.0354V25.018C14.6672 24.9206 14.6377 24.8429 14.6031 24.796C14.5683 24.7489 14.5419 24.7467 14.5369 24.7467H3.91756C3.91257 24.7467 3.88615 24.7489 3.85142 24.796ZM3.42228 24.4793C3.53122 24.3316 3.7033 24.2134 3.91756 24.2134H14.5369C14.7512 24.2134 14.9233 24.3316 15.0322 24.4793C15.1412 24.627 15.2006 24.8183 15.2006 25.018V27.0354C15.2006 27.2351 15.1412 27.4264 15.0322 27.5742C14.9233 27.7218 14.7512 27.84 14.5369 27.84H3.91756C3.7033 27.84 3.53122 27.7218 3.42228 27.5742C3.31327 27.4264 3.25391 27.2351 3.25391 27.0354V25.018C3.25391 24.8183 3.31327 24.627 3.42228 24.4793Z" fill="#05060F"/>
<path d="M18.7227 4.2215C18.7227 3.569 19.2799 3.04004 19.9674 3.04004H28.8912C29.5787 3.04004 30.136 3.569 30.136 4.2215V13.2719C30.136 13.9244 29.5787 14.4534 28.8912 14.4534H19.9674C19.2799 14.4534 18.7227 13.9244 18.7227 13.2719V4.2215Z" fill="white"/>
<path fill-rule="evenodd" clip-rule="evenodd" d="M19.9665 3.30665C19.8795 3.30665 19.7955 3.31723 19.7159 3.33692C19.5729 3.37227 19.4283 3.28502 19.393 3.14204C19.3576 2.99907 19.4449 2.85452 19.5879 2.81917C19.7092 2.78918 19.8361 2.77332 19.9665 2.77332H20.4623C20.6095 2.77332 20.7289 2.89271 20.7289 3.03998C20.7289 3.18726 20.6095 3.30665 20.4623 3.30665H19.9665ZM22.1787 3.03998C22.1787 2.89271 22.2981 2.77332 22.4453 2.77332H23.4369C23.5842 2.77332 23.7035 2.89271 23.7035 3.03998C23.7035 3.18726 23.5842 3.30665 23.4369 3.30665H22.4453C22.2981 3.30665 22.1787 3.18726 22.1787 3.03998ZM25.1533 3.03998C25.1533 2.89271 25.2727 2.77332 25.4199 2.77332H26.4115C26.5588 2.77332 26.6782 2.89271 26.6782 3.03998C26.6782 3.18726 26.5588 3.30665 26.4115 3.30665H25.4199C25.2727 3.30665 25.1533 3.18726 25.1533 3.03998ZM28.1279 3.03998C28.1279 2.89271 28.2473 2.77332 28.3946 2.77332H28.8903C29.0207 2.77332 29.1476 2.78918 29.269 2.81917C29.4119 2.85452 29.4992 2.99907 29.4638 3.14204C29.4285 3.28502 29.2839 3.37227 29.141 3.33692C29.0613 3.31723 28.9773 3.30665 28.8903 3.30665H28.3946C28.2473 3.30665 28.1279 3.18726 28.1279 3.03998ZM30.0167 3.65172C30.1581 3.61079 30.306 3.69231 30.3469 3.83378C30.3827 3.9574 30.4017 4.08748 30.4017 4.22144V4.59854C30.4017 4.74582 30.2824 4.86521 30.1351 4.86521C29.9878 4.86521 29.8684 4.74582 29.8684 4.59854V4.22144C29.8684 4.13828 29.8566 4.05808 29.8346 3.98199C29.7937 3.84051 29.8752 3.69265 30.0167 3.65172ZM18.8402 3.65172C18.9816 3.69265 19.0631 3.84051 19.0222 3.98199C19.0002 4.05808 18.9884 4.13828 18.9884 4.22144V4.59854C18.9884 4.74582 18.869 4.86521 18.7217 4.86521C18.5745 4.86521 18.4551 4.74582 18.4551 4.59854V4.22144C18.4551 4.08748 18.4741 3.9574 18.5099 3.83378C18.5508 3.69231 18.6987 3.61079 18.8402 3.65172ZM18.7217 5.84028C18.869 5.84028 18.9884 5.95967 18.9884 6.10695V6.86115C18.9884 7.00842 18.869 7.12781 18.7217 7.12781C18.5745 7.12781 18.4551 7.00842 18.4551 6.86115V6.10695C18.4551 5.95967 18.5745 5.84028 18.7217 5.84028ZM30.1351 5.84028C30.2824 5.84028 30.4017 5.95967 30.4017 6.10695V6.86115C30.4017 7.00842 30.2824 7.12782 30.1351 7.12782C29.9878 7.12782 29.8684 7.00842 29.8684 6.86115V6.10695C29.8684 5.95967 29.9878 5.84028 30.1351 5.84028ZM18.7217 8.10288C18.869 8.10288 18.9884 8.22228 18.9884 8.36955V9.12375C18.9884 9.27103 18.869 9.39042 18.7217 9.39042C18.5745 9.39042 18.4551 9.27103 18.4551 9.12375V8.36955C18.4551 8.22228 18.5745 8.10288 18.7217 8.10288ZM30.1351 8.10289C30.2824 8.10289 30.4017 8.22228 30.4017 8.36955V9.12375C30.4017 9.27103 30.2824 9.39042 30.1351 9.39042C29.9878 9.39042 29.8684 9.27103 29.8684 9.12375V8.36955C29.8684 8.22228 29.9878 8.10289 30.1351 8.10289ZM18.7217 10.3655C18.869 10.3655 18.9884 10.4849 18.9884 10.6322V11.3864C18.9884 11.5336 18.869 11.653 18.7217 11.653C18.5745 11.653 18.4551 11.5336 18.4551 11.3864V10.6322C18.4551 10.4849 18.5745 10.3655 18.7217 10.3655ZM30.1351 10.3655C30.2824 10.3655 30.4017 10.4849 30.4017 10.6322V11.3864C30.4017 11.5336 30.2824 11.653 30.1351 11.653C29.9878 11.653 29.8684 11.5336 29.8684 11.3864V10.6322C29.8684 10.4849 29.9878 10.3655 30.1351 10.3655ZM18.7217 12.6281C18.869 12.6281 18.9884 12.7475 18.9884 12.8948V13.2719C18.9884 13.355 19.0002 13.4352 19.0222 13.5113C19.0631 13.6528 18.9816 13.8007 18.8402 13.8416C18.6987 13.8825 18.5508 13.801 18.5099 13.6595C18.4741 13.5359 18.4551 13.4058 18.4551 13.2719V12.8948C18.4551 12.7475 18.5745 12.6281 18.7217 12.6281ZM30.1351 12.6281C30.2824 12.6281 30.4017 12.7475 30.4017 12.8948V13.2719C30.4017 13.4058 30.3827 13.5359 30.3469 13.6595C30.306 13.801 30.1581 13.8825 30.0167 13.8416C29.8752 13.8007 29.7937 13.6528 29.8346 13.5113C29.8566 13.4352 29.8684 13.355 29.8684 13.2719V12.8948C29.8684 12.7475 29.9878 12.6281 30.1351 12.6281ZM19.393 14.3513C19.4283 14.2083 19.5729 14.121 19.7159 14.1564C19.7955 14.1761 19.8795 14.1867 19.9665 14.1867H20.4623C20.6095 14.1867 20.7289 14.306 20.7289 14.4533C20.7289 14.6006 20.6095 14.72 20.4623 14.72H19.9665C19.8361 14.72 19.7092 14.7041 19.5879 14.6741C19.4449 14.6388 19.3576 14.4942 19.393 14.3513ZM29.4638 14.3513C29.4992 14.4942 29.4119 14.6388 29.269 14.6741C29.1476 14.7041 29.0207 14.72 28.8903 14.72H28.3946C28.2473 14.72 28.1279 14.6006 28.1279 14.4533C28.1279 14.306 28.2473 14.1867 28.3946 14.1867H28.8903C28.9773 14.1867 29.0613 14.1761 29.141 14.1564C29.2839 14.121 29.4285 14.2083 29.4638 14.3513ZM22.1787 14.4533C22.1787 14.306 22.2981 14.1867 22.4453 14.1867H23.4369C23.5842 14.1867 23.7035 14.306 23.7035 14.4533C23.7035 14.6006 23.5842 14.72 23.4369 14.72H22.4453C22.2981 14.72 22.1787 14.6006 22.1787 14.4533ZM25.1533 14.4533C25.1533 14.306 25.2727 14.1867 25.4199 14.1867H26.4115C26.5588 14.1867 26.6782 14.306 26.6782 14.4533C26.6782 14.6006 26.5588 14.72 26.4115 14.72H25.4199C25.2727 14.72 25.1533 14.6006 25.1533 14.4533Z" fill="#05060F"/>
<path d="M18.668 18.7282C18.668 18.0757 19.2253 17.5468 19.9127 17.5468H28.8366C29.524 17.5468 30.0813 18.0757 30.0813 18.7282V27.7786C30.0813 28.4311 29.524 28.9601 28.8366 28.9601H19.9127C19.2253 28.9601 18.668 28.4311 18.668 27.7786V18.7282Z" fill="#F8DB46"/>
<path fill-rule="evenodd" clip-rule="evenodd" d="M19.9118 17.8134C19.3583 17.8134 18.9337 18.2359 18.9337 18.7282V27.7786C18.9337 28.2709 19.3583 28.6934 19.9118 28.6934H28.8356C29.3891 28.6934 29.8137 28.2709 29.8137 27.7786V18.7282C29.8137 18.2359 29.3891 17.8134 28.8356 17.8134H19.9118ZM18.4004 18.7282C18.4004 17.9154 19.0904 17.28 19.9118 17.28H28.8356C29.6571 17.28 30.3471 17.9154 30.3471 18.7282V27.7786C30.3471 28.5913 29.6571 29.2267 28.8356 29.2267H19.9118C19.0904 29.2267 18.4004 28.5913 18.4004 27.7786V18.7282Z" fill="#05060F"/>
<path d="M23.0395 21.8133C23.0395 22.0588 22.8405 22.2578 22.5951 22.2578C22.3496 22.2578 22.1506 22.0588 22.1506 21.8133C22.1506 21.5679 22.3496 21.3689 22.5951 21.3689C22.8405 21.3689 23.0395 21.5679 23.0395 21.8133Z" fill="#DB2323"/>
<path fill-rule="evenodd" clip-rule="evenodd" d="M25.4235 22.2526C25.252 21.9586 24.8272 21.9586 24.6557 22.2526L24.0221 23.3387L23.7519 22.8966C23.5786 22.6131 23.1668 22.6131 22.9935 22.8966L22.1675 24.2483C21.9865 24.5444 22.1996 24.9245 22.5467 24.9245L23.9284 24.9245L26.2082 24.9245C26.5512 24.9245 26.765 24.5524 26.5921 24.2561L25.4235 22.2526Z" fill="#DB2323"/>
<path d="M3.46875 4.2215C3.46875 3.569 4.02604 3.04004 4.7135 3.04004H13.6373C14.3248 3.04004 14.8821 3.569 14.8821 4.2215V13.2719C14.8821 13.9244 14.3248 14.4534 13.6373 14.4534H4.7135C4.02604 14.4534 3.46875 13.9244 3.46875 13.2719V4.2215Z" fill="#937AFF"/>
<path fill-rule="evenodd" clip-rule="evenodd" d="M3.20117 4.22144C3.20117 3.40872 3.89114 2.77332 4.71259 2.77332H13.6364C14.4579 2.77332 15.1478 3.40872 15.1478 4.22144V13.2719C15.1478 14.0846 14.4579 14.72 13.6364 14.72H4.71259C3.89114 14.72 3.20117 14.0846 3.20117 13.2719V4.22144ZM4.71259 3.30665C4.15912 3.30665 3.73451 3.72916 3.73451 4.22144V13.2719C3.73451 13.7641 4.15912 14.1867 4.71259 14.1867H13.6364C14.1899 14.1867 14.6145 13.7641 14.6145 13.2719V4.22144C14.6145 3.72916 14.1899 3.30665 13.6364 3.30665H4.71259Z" fill="#05060F"/>
<rect width="5.33333" height="5.33334" transform="translate(6.56055 5.97327)" fill="#937AFF"/>
<path d="M7.89301 7.30663C7.89301 7.55209 7.69403 7.75107 7.44857 7.75107C7.20311 7.75107 7.00412 7.55209 7.00412 7.30663C7.00412 7.06117 7.20311 6.86218 7.44857 6.86218C7.69403 6.86218 7.89301 7.06117 7.89301 7.30663Z" fill="white"/>
<path fill-rule="evenodd" clip-rule="evenodd" d="M10.277 7.74593C10.1055 7.45193 9.68067 7.45193 9.50917 7.74593L8.87562 8.83202L8.60544 8.38992C8.43214 8.10634 8.02027 8.10634 7.84697 8.38992L7.02098 9.74154C6.84 10.0377 7.05314 10.4177 7.40022 10.4177L8.7819 10.4177L11.0617 10.4177C11.4047 10.4177 11.6185 10.0456 11.4456 9.74935L10.277 7.74593Z" fill="white"/>
<path fill-rule="evenodd" clip-rule="evenodd" d="M22.6661 9.01331H14.1328V8.47998H22.6661V9.01331Z" fill="#696A6F"/>
<path d="M16.5876 8.74668C16.5876 9.74816 15.7757 10.56 14.7743 10.56C13.7728 10.56 12.9609 9.74816 12.9609 8.74668C12.9609 7.74521 13.7728 6.93335 14.7743 6.93335C15.7757 6.93335 16.5876 7.74521 16.5876 8.74668Z" fill="#F8DB46"/>
<path fill-rule="evenodd" clip-rule="evenodd" d="M14.7734 7.19996C13.9192 7.19996 13.2267 7.89243 13.2267 8.74663C13.2267 9.60083 13.9192 10.2933 14.7734 10.2933C15.6276 10.2933 16.32 9.60083 16.32 8.74663C16.32 7.89243 15.6276 7.19996 14.7734 7.19996ZM12.6934 8.74663C12.6934 7.59787 13.6246 6.66663 14.7734 6.66663C15.9221 6.66663 16.8534 7.59787 16.8534 8.74663C16.8534 9.89538 15.9221 10.8266 14.7734 10.8266C13.6246 10.8266 12.6934 9.89538 12.6934 8.74663Z" fill="#05060F"/>
<path d="M25.814 8.38327C26.0985 8.54479 26.0985 8.94858 25.814 9.1101L23.3607 10.5032C23.0762 10.6647 22.7207 10.4628 22.7207 10.1398L22.7207 7.35361C22.7207 7.03057 23.0762 6.82868 23.3607 6.9902L25.814 8.38327Z" fill="#2187FF"/>
<path fill-rule="evenodd" clip-rule="evenodd" d="M26.0521 8.15127C26.5165 8.41499 26.5165 9.07816 26.0521 9.34188L23.5987 10.735C23.1431 10.9936 22.5604 10.6747 22.5604 10.1397L22.5604 7.3535C22.5604 6.81846 23.1431 6.4995 23.5987 6.7582L26.0521 8.15127ZM25.7887 8.8781C25.8932 8.81878 25.8932 8.67437 25.7887 8.61505L23.3354 7.22198C23.2221 7.15764 23.0937 7.24247 23.0937 7.3535L23.0937 10.1397C23.0937 10.2507 23.2221 10.3355 23.3354 10.2712L25.7887 8.8781Z" fill="#05060F"/>
</svg>
