<svg width="33" height="32" viewBox="0 0 33 32" fill="none" xmlns="http://www.w3.org/2000/svg">
<path d="M4.83984 3.1562C4.83984 2.66495 5.19708 2.26672 5.63774 2.26672H26.8153C27.2559 2.26672 27.6132 2.66496 27.6132 3.1562V29.3239C27.6132 29.8152 27.2559 30.2134 26.8153 30.2134H5.63774C5.19708 30.2134 4.83984 29.8152 4.83984 29.3239V3.1562Z" fill="white"/>
<path fill-rule="evenodd" clip-rule="evenodd" d="M4.57227 3.15614C4.57227 2.54561 5.02238 2 5.63683 2H26.8144C27.4288 2 27.8789 2.54561 27.8789 3.15614V29.3239C27.8789 29.9344 27.4288 30.48 26.8144 30.48H5.63683C5.02238 30.48 4.57227 29.9344 4.57227 29.3239V3.15614ZM5.63683 2.53333C5.36995 2.53333 5.1056 2.78419 5.1056 3.15614V29.3239C5.1056 29.6958 5.36995 29.9467 5.63683 29.9467H26.8144C27.0812 29.9467 27.3456 29.6958 27.3456 29.3239V3.15614C27.3456 2.78419 27.0812 2.53333 26.8144 2.53333H5.63683Z" fill="#1E1F27"/>
<path d="M8.03906 9.36004C8.03906 8.8593 8.44499 8.45337 8.94573 8.45337H15.7724C16.2731 8.45337 16.6791 8.8593 16.6791 9.36004V16.08C16.6791 16.5808 16.2731 16.9867 15.7724 16.9867H8.94573C8.44499 16.9867 8.03906 16.5808 8.03906 16.08V9.36004Z" fill="#937AFF"/>
<path fill-rule="evenodd" clip-rule="evenodd" d="M7.77148 9.35998C7.77148 8.71196 8.2968 8.18665 8.94482 8.18665H15.7715C16.4195 8.18665 16.9448 8.71197 16.9448 9.35998V16.08C16.9448 16.728 16.4195 17.2533 15.7715 17.2533H8.94482C8.2968 17.2533 7.77148 16.728 7.77148 16.08V9.35998ZM8.94482 8.71998C8.59136 8.71998 8.30482 9.00652 8.30482 9.35998V16.08C8.30482 16.4334 8.59136 16.72 8.94482 16.72H15.7715C16.1249 16.72 16.4115 16.4334 16.4115 16.08V9.35998C16.4115 9.00652 16.1249 8.71998 15.7715 8.71998H8.94482Z" fill="#05060F"/>
<rect x="10.1172" y="10.3199" width="4.69333" height="4.69334" rx="2.34667" fill="#937AFF"/>
<path d="M11.2902 11.4933C11.2902 11.7093 11.1151 11.8844 10.8991 11.8844C10.6831 11.8844 10.508 11.7093 10.508 11.4933C10.508 11.2773 10.6831 11.1022 10.8991 11.1022C11.1151 11.1022 11.2902 11.2773 11.2902 11.4933Z" fill="white"/>
<path fill-rule="evenodd" clip-rule="evenodd" d="M13.3881 11.8799C13.2372 11.6212 12.8634 11.6212 12.7124 11.8799L12.1549 12.8356L11.9172 12.4466C11.7647 12.197 11.4022 12.197 11.2497 12.4466L10.5228 13.636C10.3636 13.8966 10.5511 14.2311 10.8566 14.2311L12.0724 14.2311L14.0787 14.2311C14.3806 14.2311 14.5686 13.9036 14.4165 13.6429L13.3881 11.8799Z" fill="white"/>
<path d="M8.04102 24.2933C8.04102 23.9399 8.29906 23.6533 8.61738 23.6533H23.838C24.1563 23.6533 24.4143 23.9399 24.4143 24.2933V27.1733C24.4143 27.5268 24.1563 27.8133 23.838 27.8133H8.61738C8.29906 27.8133 8.04102 27.5268 8.04102 27.1733V24.2933Z" fill="#F02687"/>
<path fill-rule="evenodd" clip-rule="evenodd" d="M7.77344 24.2934C7.77344 23.8196 8.12529 23.3867 8.61647 23.3867H23.8371C24.3283 23.3867 24.6801 23.8196 24.6801 24.2934V27.1734C24.6801 27.6472 24.3283 28.0801 23.8371 28.0801H8.61647C8.12529 28.0801 7.77344 27.6472 7.77344 27.1734V24.2934ZM8.61647 23.9201C8.47101 23.9201 8.30677 24.0602 8.30677 24.2934V27.1734C8.30677 27.4065 8.47101 27.5467 8.61647 27.5467H23.8371C23.9825 27.5467 24.1468 27.4065 24.1468 27.1734V24.2934C24.1468 24.0602 23.9825 23.9201 23.8371 23.9201H8.61647Z" fill="#05060F"/>
<path d="M7.77344 19.6534C7.77344 19.5061 7.89283 19.3867 8.0401 19.3867H24.2268C24.374 19.3867 24.4934 19.5061 24.4934 19.6534C24.4934 19.8007 24.374 19.9201 24.2268 19.9201H8.0401C7.89283 19.9201 7.77344 19.8007 7.77344 19.6534Z" fill="#05060F"/>
<path d="M7.77344 21.4666C7.77344 21.3193 7.89283 21.2 8.0401 21.2H24.2268C24.374 21.2 24.4934 21.3193 24.4934 21.4666C24.4934 21.6139 24.374 21.7333 24.2268 21.7333H8.0401C7.89283 21.7333 7.77344 21.6139 7.77344 21.4666Z" fill="#05060F"/>
<path fill-rule="evenodd" clip-rule="evenodd" d="M12.0208 25.2528C12.0036 25.2539 11.9811 25.2565 11.952 25.2618C11.5022 25.345 10.979 25.6419 10.607 25.9616C10.506 26.0483 10.404 26.1549 10.3473 26.2471C10.2701 26.3725 10.1059 26.4116 9.98046 26.3344C9.85503 26.2572 9.81592 26.093 9.89311 25.9676C9.99142 25.8078 10.1403 25.6594 10.2595 25.557C10.6765 25.1988 11.2834 24.8431 11.8551 24.7374C12.0124 24.7083 12.1782 24.7059 12.3181 24.784C12.4757 24.8719 12.5327 25.0212 12.5485 25.1421C12.5633 25.2547 12.5473 25.372 12.5318 25.4616C12.5244 25.5045 12.5158 25.5478 12.508 25.5869C12.5073 25.5908 12.5065 25.5946 12.5057 25.5984C12.4971 25.642 12.4897 25.6801 12.484 25.7152C12.48 25.7406 12.4747 25.7692 12.4698 25.7954C12.4691 25.799 12.4684 25.8025 12.4678 25.806C12.4621 25.8368 12.4566 25.8667 12.452 25.8964C12.452 25.8965 12.452 25.8966 12.452 25.8967C12.5811 25.8429 12.7071 25.7784 12.8438 25.7082L12.8508 25.7046C13.0194 25.618 13.2048 25.5227 13.409 25.449C13.4549 25.4324 13.5254 25.4096 13.6029 25.3968C13.6734 25.3851 13.787 25.3749 13.8986 25.4182C14.048 25.4761 14.1653 25.5703 14.2407 25.6309C14.2573 25.6442 14.2718 25.6559 14.2842 25.6652C14.356 25.719 14.4205 25.7563 14.5445 25.7654C14.7139 25.7777 15.0922 25.7811 15.3924 25.7838C15.5165 25.7849 15.6272 25.7859 15.7043 25.7874C15.8515 25.7901 15.9687 25.9118 15.9659 26.059C15.9631 26.2063 15.8415 26.3234 15.6942 26.3206C15.6303 26.3194 15.5321 26.3185 15.4178 26.3175C15.1128 26.3148 14.6933 26.311 14.5057 26.2973C14.2507 26.2787 14.0906 26.1867 13.964 26.0917C13.9283 26.0649 13.8996 26.0421 13.8748 26.0225C13.8137 25.9741 13.7765 25.9447 13.7172 25.92C13.7115 25.9202 13.7024 25.9209 13.6899 25.923C13.6577 25.9283 13.6215 25.9393 13.5901 25.9506C13.4204 26.0119 13.2624 26.0927 13.0875 26.1826L13.0821 26.1853C12.9131 26.2722 12.7274 26.3676 12.523 26.4411C12.4022 26.4845 12.2353 26.5129 12.0893 26.414C11.9474 26.318 11.9176 26.163 11.9103 26.0784C11.9021 25.9845 11.9137 25.8875 11.925 25.8146C11.9309 25.7763 11.9377 25.7396 11.9435 25.7084C11.9442 25.7047 11.9448 25.7011 11.9455 25.6976C11.9506 25.6701 11.9545 25.6491 11.9574 25.6312C11.9648 25.5848 11.9741 25.5374 11.9826 25.4945C11.9833 25.4909 11.9841 25.4873 11.9848 25.4837C11.9928 25.4434 12.0001 25.4068 12.0063 25.3709C12.0151 25.3196 12.0195 25.2812 12.0208 25.2528Z" fill="white"/>
<path d="M17.4776 22.3434L15.8398 26.5894L20.3074 25.1733L29.2963 16.5518L26.0416 13.4612L17.4776 22.3434Z" fill="#F8DB46"/>
<path d="M17.1037 22.3434L20.357 25.2767L16.517 26.6367L15.957 25.9434L17.1037 22.3434Z" fill="#FEF7C1"/>
<path d="M26.2598 13.467L29.2904 16.3968L31.7971 13.467L31.0377 11.5418L29.1837 10.9034L26.2598 13.467Z" fill="#3F96FC"/>
<path fill-rule="evenodd" clip-rule="evenodd" d="M30.9861 11.2561C30.2078 10.4947 28.9599 10.5076 28.1974 11.2849L26.2185 13.3025L17.3583 22.0214C17.1998 22.1773 17.0768 22.3656 16.9977 22.5734L15.6601 26.0095C15.4526 26.5544 15.9695 27.0965 16.5237 26.9151L20.1494 25.4901C20.3783 25.4152 20.5866 25.2878 20.7576 25.1182L29.4327 16.512L31.4408 14.4506C32.2001 13.6711 32.1851 12.424 31.4072 11.663L30.9861 11.2561ZM17.7953 22.3396L26.4058 13.8664L28.8653 16.3237L20.382 24.7395C20.3728 24.7486 20.3635 24.7575 20.3541 24.7661L17.7953 22.3396ZM17.4673 22.8372L16.538 25.2245L17.3564 26.0158L19.8046 25.0535L17.4673 22.8372ZM31.0587 14.0784L29.2407 15.9448L26.7826 13.489L28.5782 11.6584C29.1345 11.0911 30.0452 11.0817 30.6132 11.6373L31.0342 12.0443C31.6019 12.5996 31.6128 13.5096 31.0587 14.0784Z" fill="#05060F"/>
<path d="M8.99875 5.35997C8.99875 5.71343 8.71221 5.99997 8.35875 5.99997C8.00529 5.99997 7.71875 5.71343 7.71875 5.35997C7.71875 5.00651 8.00529 4.71997 8.35875 4.71997C8.71221 4.71997 8.99875 5.00651 8.99875 5.35997Z" fill="#05060F"/>
<path d="M11.3464 5.35997C11.3464 5.71343 11.0599 5.99997 10.7064 5.99997C10.3529 5.99997 10.0664 5.71343 10.0664 5.35997C10.0664 5.00651 10.3529 4.71997 10.7064 4.71997C11.0599 4.71997 11.3464 5.00651 11.3464 5.35997Z" fill="#05060F"/>
<path d="M13.6921 5.35997C13.6921 5.71343 13.4056 5.99997 13.0521 5.99997C12.6986 5.99997 12.4121 5.71343 12.4121 5.35997C12.4121 5.00651 12.6986 4.71997 13.0521 4.71997C13.4056 4.71997 13.6921 5.00651 13.6921 5.35997Z" fill="#05060F"/>
<path d="M18.7068 0.453369C18.2356 0.453369 17.8535 0.83542 17.8535 1.3067V7.81337C17.8535 8.28466 18.2356 8.66671 18.7068 8.66671H20.1042L20.7403 9.66452C20.8241 9.79607 21.0162 9.79607 21.1001 9.66453L21.7362 8.66671H28.5735C29.0448 8.66671 29.4268 8.28466 29.4268 7.81337V1.3067C29.4268 0.83542 29.0448 0.453369 28.5735 0.453369H18.7068Z" fill="#F8DB46"/>
<path fill-rule="evenodd" clip-rule="evenodd" d="M18.7059 0.719979C18.3819 0.719979 18.1193 0.982639 18.1193 1.30665V7.81332C18.1193 8.13732 18.3819 8.39998 18.7059 8.39998H20.2495L20.9193 9.45058L21.589 8.39998H28.5726C28.8966 8.39998 29.1593 8.13732 29.1593 7.81332V1.30665C29.1593 0.982639 28.8966 0.719979 28.5726 0.719979H18.7059ZM17.5859 1.30665C17.5859 0.688087 18.0874 0.186646 18.7059 0.186646H28.5726C29.1912 0.186646 29.6926 0.688087 29.6926 1.30665V7.81332C29.6926 8.43188 29.1912 8.93332 28.5726 8.93332H21.8815L21.324 9.80782C21.1353 10.1038 20.7032 10.1038 20.5145 9.80781L19.957 8.93332H18.7059C18.0874 8.93332 17.5859 8.43188 17.5859 7.81332V1.30665Z" fill="#05060F"/>
<path d="M20.3057 2.53333C20.1585 2.53333 20.0391 2.65272 20.0391 2.79999C20.0391 2.94727 20.1585 3.06666 20.3057 3.06666H27.0257C27.173 3.06666 27.2924 2.94727 27.2924 2.79999C27.2924 2.65272 27.173 2.53333 27.0257 2.53333H20.3057Z" fill="#05060F"/>
<path d="M20.0391 4.50666C20.0391 4.35938 20.1585 4.23999 20.3057 4.23999H27.0257C27.173 4.23999 27.2924 4.35938 27.2924 4.50666C27.2924 4.65394 27.173 4.77333 27.0257 4.77333H20.3057C20.1585 4.77333 20.0391 4.65394 20.0391 4.50666Z" fill="#05060F"/>
<path d="M20.3057 5.94666C20.1585 5.94666 20.0391 6.06605 20.0391 6.21333C20.0391 6.3606 20.1585 6.47999 20.3057 6.47999H24.7857C24.933 6.47999 25.0524 6.3606 25.0524 6.21333C25.0524 6.06605 24.933 5.94666 24.7857 5.94666H20.3057Z" fill="#05060F"/>
<path d="M18.1719 11.9467C18.1719 11.7847 18.3032 11.6533 18.4652 11.6533H25.0252C25.1872 11.6533 25.3185 11.7847 25.3185 11.9467V11.9467C25.3185 12.1087 25.1872 12.24 25.0252 12.24H18.4652C18.3032 12.24 18.1719 12.1087 18.1719 11.9467V11.9467Z" fill="#05060F"/>
<path d="M18.1719 13.8134C18.1719 13.6513 18.2989 13.52 18.4555 13.52H24.1282C24.2849 13.52 24.4119 13.6513 24.4119 13.8134V13.8134C24.4119 13.9754 24.2849 14.1067 24.1282 14.1067H18.4555C18.2989 14.1067 18.1719 13.9754 18.1719 13.8134V13.8134Z" fill="#05060F"/>
</svg>
