<svg width="56" height="56" viewBox="0 0 56 56" fill="none" xmlns="http://www.w3.org/2000/svg">
<rect width="56" height="56" rx="10" fill="url(#paint0_linear_2465_41573)"/>
<g filter="url(#filter0_d_2465_41573)">
<path d="M43.6399 35.4925C42.5116 37.8337 40.8191 39.8404 38.6753 41.4011C35.7417 43.5193 32.3568 44.6341 28.7462 44.6341C19.607 44.5226 12.1602 37.0533 12.1602 27.9117C12.1602 18.7701 19.607 11.3008 28.7462 11.3008C32.3568 11.3008 35.7417 12.4156 38.5625 14.5338C40.7063 16.0945 42.2859 18.1012 43.527 20.4424C43.7527 20.9998 43.8655 21.6687 43.6399 22.2261C43.4142 22.7835 42.8501 23.2294 42.2859 23.4524L36.6444 25.3476C36.4187 25.4591 36.1931 25.4591 35.9674 25.4591C35.1776 25.4591 34.5006 25.1246 34.0493 24.4557C32.8081 22.672 30.89 21.5572 28.6334 21.5572C28.6334 21.5572 28.6334 21.5572 28.5206 21.5572C26.8281 21.5572 25.2485 22.2261 24.0074 23.4524C22.9919 24.5672 22.3149 26.2395 22.3149 27.9117C22.3149 31.4792 25.2485 34.3777 28.7462 34.3777C30.89 34.3777 32.921 33.2629 34.1621 31.4792C34.6134 30.8103 35.2904 30.4758 36.0802 30.4758C36.3059 30.4758 36.5316 30.4758 36.7572 30.5873L42.3987 32.4825C42.9629 32.7055 43.527 33.1514 43.7527 33.7088C43.8655 34.2662 43.8655 34.9351 43.6399 35.4925Z" fill="white"/>
</g>
<path d="M17.0189 28.9208C16.9061 28.9208 16.9061 28.9208 17.0189 28.9208C16.3419 28.9208 15.8906 28.3634 15.8906 27.8059C16.1163 20.3366 21.5322 17.3266 21.7578 17.2151C22.322 16.9921 22.999 17.1036 23.2246 17.661C23.4503 18.2184 23.3374 18.8873 22.7733 19.2218C22.5476 19.3333 18.2601 21.7859 18.0344 27.9174C18.0344 28.4748 17.5831 28.9208 17.0189 28.9208Z" fill="#F96F07"/>
<path d="M25.8169 17.8807C25.3656 17.8807 24.9143 17.6577 24.8014 17.2118C24.5758 16.6544 24.8014 15.9855 25.4784 15.7625C25.5912 15.651 26.9452 15.2051 28.5248 15.3166C29.2018 15.3166 29.6531 15.874 29.5403 16.5429C29.5403 17.2118 28.9762 17.6577 28.2992 17.5462C27.1709 17.4347 26.1554 17.8807 26.1554 17.8807C26.0426 17.8807 25.9297 17.8807 25.8169 17.8807Z" fill="#F96F07"/>
<defs>
<filter id="filter0_d_2465_41573" x="6.16016" y="9.30078" width="43.6665" height="45.334" filterUnits="userSpaceOnUse" color-interpolation-filters="sRGB">
<feFlood flood-opacity="0" result="BackgroundImageFix"/>
<feColorMatrix in="SourceAlpha" type="matrix" values="0 0 0 0 0 0 0 0 0 0 0 0 0 0 0 0 0 0 127 0" result="hardAlpha"/>
<feOffset dy="4"/>
<feGaussianBlur stdDeviation="3"/>
<feComposite in2="hardAlpha" operator="out"/>
<feColorMatrix type="matrix" values="0 0 0 0 0 0 0 0 0 0 0 0 0 0 0 0 0 0 0.15 0"/>
<feBlend mode="normal" in2="BackgroundImageFix" result="effect1_dropShadow_2465_41573"/>
<feBlend mode="normal" in="SourceGraphic" in2="effect1_dropShadow_2465_41573" result="shape"/>
</filter>
<linearGradient id="paint0_linear_2465_41573" x1="1.03848" y1="46.7316" x2="61.2703" y2="-1.55772" gradientUnits="userSpaceOnUse">
<stop stop-color="#F96F07"/>
<stop offset="1" stop-color="#FFCEA9"/>
</linearGradient>
</defs>
</svg>
