<svg width="68" height="68" viewBox="0 0 68 68" fill="none" xmlns="http://www.w3.org/2000/svg">
<g clip-path="url(#clip0_2465_41493)">
<path d="M50.461 43.7321C48.9851 46.7268 46.7504 49.386 44.003 51.4311C40.2484 54.2214 35.8365 55.7119 31.2192 55.7119C19.3567 55.6385 9.71436 45.8505 9.71436 33.8706C9.71436 21.8907 19.3714 12.0723 31.2349 12.0723C35.8376 12.0723 40.2494 13.5481 43.9894 16.3384C46.721 18.3541 48.8834 20.9411 50.4327 24.0228C50.7975 24.7534 50.8415 25.615 50.5207 26.3749C50.1989 27.1496 49.5564 27.7334 48.7671 27.9965L41.4915 30.422C41.2138 30.5101 40.9067 30.5531 40.6006 30.5531C39.6362 30.5531 38.7306 30.0709 38.1897 29.2386C36.6415 26.8571 34.0409 25.4399 31.2349 25.4399H31.1469C28.9551 25.4399 26.8807 26.3016 25.3325 27.8948C23.755 29.487 22.8923 31.6054 22.8923 33.8706C22.8923 38.5309 26.6323 42.3442 31.2349 42.3442C34.0399 42.3442 36.6405 40.9124 38.1897 38.5309C38.7306 37.7133 39.6362 37.2165 40.6006 37.2165C40.9077 37.2165 41.1991 37.2605 41.4915 37.3622L48.7818 39.773C49.5711 40.0361 50.2136 40.621 50.5354 41.3946C50.8425 42.1545 50.8278 43.0015 50.462 43.7321H50.461Z" fill="url(#paint0_linear_2465_41493)"/>
<path d="M45.6726 32.2885L55.4188 29.0811C56.6451 28.6775 57.9606 29.4857 58.1084 30.7687C58.2269 31.7906 58.2856 32.8231 58.2856 33.8546C58.2856 34.886 58.2269 35.909 58.1105 36.9237C57.9627 38.2056 56.6483 39.0127 55.4219 38.6113L45.6747 35.4153C44.1653 34.9206 44.1642 32.7854 45.6726 32.2896V32.2885Z" fill="url(#paint1_linear_2465_41493)"/>
<path d="M15.9321 35.2067H15.886C15.0789 35.1805 14.4458 34.5076 14.4709 33.7004C14.7718 23.9815 21.7937 20.0078 22.0924 19.8443C22.7989 19.4575 23.6877 19.7133 24.0766 20.4198C24.4645 21.1262 24.2098 22.0109 23.5064 22.4019C23.2664 22.5361 17.6386 25.7886 17.3912 33.7927C17.3671 34.583 16.7183 35.2077 15.9321 35.2077V35.2067Z" fill="white"/>
<path d="M27.3513 20.7317C26.7716 20.7317 26.2245 20.3848 25.9949 19.8156C25.6941 19.0661 26.0568 18.216 26.8062 17.9152C26.9907 17.8408 28.6804 17.2035 30.8125 17.3314C31.6175 17.3838 32.2275 18.0787 32.1762 18.8837C32.1238 19.6898 31.4372 20.3072 30.6227 20.2474C29.1395 20.1489 27.9079 20.6217 27.8943 20.6258C27.7161 20.6971 27.5316 20.7317 27.3503 20.7317H27.3513Z" fill="white"/>
</g>
<defs>
<linearGradient id="paint0_linear_2465_41493" x1="20.3766" y1="15.0533" x2="42.111" y2="52.6973" gradientUnits="userSpaceOnUse">
<stop stop-color="#2C94FF"/>
<stop offset="0.19" stop-color="#2281F5"/>
<stop offset="0.47" stop-color="#186CEA"/>
<stop offset="0.74" stop-color="#1260E4"/>
<stop offset="1" stop-color="#105CE2"/>
</linearGradient>
<linearGradient id="paint1_linear_2465_41493" x1="40.0448" y1="12.8329" x2="56.2825" y2="40.9582" gradientUnits="userSpaceOnUse">
<stop stop-color="#2C94FF"/>
<stop offset="0.19" stop-color="#2281F5"/>
<stop offset="0.47" stop-color="#186CEA"/>
<stop offset="0.74" stop-color="#1260E4"/>
<stop offset="1" stop-color="#105CE2"/>
</linearGradient>
<clipPath id="clip0_2465_41493">
<rect width="48.5714" height="48.5714" fill="white" transform="translate(9.71436 9.71484)"/>
</clipPath>
</defs>
</svg>
