<svg width="56" height="56" viewBox="0 0 56 56" fill="none" xmlns="http://www.w3.org/2000/svg">
<rect width="56" height="56" rx="10" fill="#5C56F1"/>
<rect width="56" height="56" rx="10" fill="url(#paint0_linear_2465_41540)"/>
<g filter="url(#filter0_d_2465_41540)">
<path d="M38.9909 25.6617L46.5253 23.1704C47.4249 22.8307 48.437 23.5101 48.5494 24.5293C48.6619 25.322 48.6619 26.1146 48.6619 26.9073C48.6619 27.7 48.6619 28.4927 48.5494 29.2854C48.437 30.3045 47.4249 30.8707 46.5253 30.6443L38.9909 28.153C37.8663 27.7 37.8663 26.1147 38.9909 25.6617Z" fill="white"/>
</g>
<g filter="url(#filter1_d_2465_41540)">
<path fill-rule="evenodd" clip-rule="evenodd" d="M42.7037 34.6083C41.5792 36.9863 39.8924 39.0247 37.7558 40.61C34.832 42.7616 31.4584 43.894 27.8598 43.894C18.7511 43.7808 11.3291 36.1937 11.3291 26.908C11.3291 17.6223 18.7511 10.0352 27.8598 10.0352C31.4584 10.0352 34.832 11.1676 37.6433 13.3191C39.7799 14.9045 41.3543 16.9428 42.5913 19.3209C42.8162 19.8871 42.9286 20.5665 42.7037 21.1327C42.4788 21.6989 41.9166 22.1519 41.3543 22.3783L35.7316 24.3034C35.5067 24.4167 35.2818 24.4167 35.0569 24.4167C34.2697 24.4167 33.595 24.077 33.1452 23.3975C31.9082 21.5857 29.9965 20.4533 27.7474 20.4533H27.6349C25.9481 20.4533 24.3738 21.1327 23.1368 22.3783C22.1247 23.5107 21.45 25.2094 21.45 26.908C21.45 30.5316 24.3738 33.4759 27.8598 33.4759C29.9965 33.4759 32.0206 32.3435 33.2576 30.5316C33.7074 29.8522 34.3822 29.5125 35.1693 29.5125C35.3942 29.5125 35.6191 29.5125 35.8441 29.6257L41.4667 31.5508C42.029 31.7773 42.5913 32.2303 42.8162 32.7965C42.9286 33.3627 42.9286 34.0421 42.7037 34.6083ZM16.1645 27.9265C15.4898 27.9265 15.04 27.3603 15.04 26.7941C15.2649 19.207 20.6627 16.1495 20.8876 16.0363C21.4499 15.8098 22.1246 15.923 22.3495 16.4892C22.5744 17.0554 22.462 17.7349 21.8997 18.0746C21.6748 18.1878 17.4015 20.6791 17.1766 26.9073C17.1766 27.4735 16.7268 27.9265 16.1645 27.9265ZM23.9236 16.0369C24.0361 16.4898 24.4859 16.7163 24.9357 16.7163H25.2731C25.2731 16.7163 26.2851 16.2633 27.4097 16.3766C28.0844 16.4898 28.6467 16.0369 28.6467 15.3574C28.7591 14.678 28.3093 14.1118 27.6346 14.1118C26.0602 13.9985 24.7108 14.4515 24.5983 14.5647C23.9236 14.7912 23.6987 15.4707 23.9236 16.0369Z" fill="white"/>
</g>
<defs>
<filter id="filter0_d_2465_41540" x="32.1475" y="21.082" width="22.5146" height="19.6113" filterUnits="userSpaceOnUse" color-interpolation-filters="sRGB">
<feFlood flood-opacity="0" result="BackgroundImageFix"/>
<feColorMatrix in="SourceAlpha" type="matrix" values="0 0 0 0 0 0 0 0 0 0 0 0 0 0 0 0 0 0 127 0" result="hardAlpha"/>
<feOffset dy="4"/>
<feGaussianBlur stdDeviation="3"/>
<feComposite in2="hardAlpha" operator="out"/>
<feColorMatrix type="matrix" values="0 0 0 0 0 0 0 0 0 0 0 0 0 0 0 0 0 0 0.15 0"/>
<feBlend mode="normal" in2="BackgroundImageFix" result="effect1_dropShadow_2465_41540"/>
<feBlend mode="normal" in="SourceGraphic" in2="effect1_dropShadow_2465_41540" result="shape"/>
</filter>
<filter id="filter1_d_2465_41540" x="5.3291" y="8.03516" width="43.561" height="45.8594" filterUnits="userSpaceOnUse" color-interpolation-filters="sRGB">
<feFlood flood-opacity="0" result="BackgroundImageFix"/>
<feColorMatrix in="SourceAlpha" type="matrix" values="0 0 0 0 0 0 0 0 0 0 0 0 0 0 0 0 0 0 127 0" result="hardAlpha"/>
<feOffset dy="4"/>
<feGaussianBlur stdDeviation="3"/>
<feComposite in2="hardAlpha" operator="out"/>
<feColorMatrix type="matrix" values="0 0 0 0 0 0 0 0 0 0 0 0 0 0 0 0 0 0 0.15 0"/>
<feBlend mode="normal" in2="BackgroundImageFix" result="effect1_dropShadow_2465_41540"/>
<feBlend mode="normal" in="SourceGraphic" in2="effect1_dropShadow_2465_41540" result="shape"/>
</filter>
<linearGradient id="paint0_linear_2465_41540" x1="-9.14286" y1="-7.3923" x2="40.8314" y2="54.8215" gradientUnits="userSpaceOnUse">
<stop stop-color="#63A3E6"/>
<stop offset="0.285" stop-color="#348FFF"/>
<stop offset="0.545" stop-color="#1C78FF"/>
<stop offset="0.7373" stop-color="#1260E4"/>
<stop offset="1" stop-color="#216DF3"/>
</linearGradient>
</defs>
</svg>
