<svg width="68" height="68" viewBox="0 0 68 68" fill="none" xmlns="http://www.w3.org/2000/svg">
<path fill-rule="evenodd" clip-rule="evenodd" d="M18.5145 26.8737C17.0085 27.7459 15.0809 27.2327 14.2102 25.7267C13.3379 24.2207 13.8511 22.2931 15.3571 21.4224L32.4218 11.5694C33.4452 10.9763 34.6634 11.0242 35.6126 11.5883L52.42 21.2915C52.4374 21.3017 52.4549 21.3104 52.4723 21.3192C53.5102 21.8367 54.2225 22.908 54.2225 24.1466V30.3756C54.2225 31.6141 53.5088 32.6855 52.4709 33.203C52.4534 33.2117 52.436 33.2219 52.4185 33.2306L46.6838 36.5421C45.611 37.1642 44.323 37.0814 43.3563 36.4374L29.2862 28.3142C28.5376 27.8811 28.5376 26.801 29.2862 26.3678L33.3274 24.0346C33.6749 23.834 34.1037 23.834 34.4511 24.0346L44.5367 29.8581C44.8841 30.0587 45.313 30.0587 45.6604 29.8581L47.3452 28.8855C47.6926 28.6849 47.9063 28.3142 47.9063 27.913V26.6105C47.9063 26.2093 47.6926 25.8386 47.3452 25.638L34.5616 18.2577C34.2142 18.0571 33.7853 18.0571 33.4379 18.2577L18.5145 26.8737Z" fill="#00C1A2"/>
<path fill-rule="evenodd" clip-rule="evenodd" d="M49.4864 41.1262C50.9924 40.254 52.92 40.7671 53.7907 42.2731C54.6629 43.7791 54.1498 45.7067 52.6437 46.5774L35.5791 56.429C34.5557 57.0221 33.3375 56.9741 32.3883 56.4101L15.5809 46.7068C15.5634 46.6967 15.546 46.6879 15.5286 46.6792C14.4906 46.1617 13.7783 45.0903 13.7783 43.8518V37.6228C13.7783 36.3843 14.4921 35.3129 15.53 34.7954C15.5474 34.7867 15.5649 34.7765 15.5823 34.7678L21.3171 31.4563C22.3899 30.8341 23.6778 30.917 24.6445 31.561L38.7147 39.6841C39.4633 40.1173 39.4633 41.1974 38.7147 41.6306L34.6734 43.9637C34.326 44.1644 33.8972 44.1644 33.5498 43.9637L23.4641 38.1403C23.1167 37.9397 22.6879 37.9397 22.3405 38.1403L20.6557 39.1128C20.3082 39.3134 20.0931 39.6841 20.0931 40.0853V41.3878C20.0931 41.789 20.3068 42.1597 20.6557 42.3603L33.4393 49.7406C33.7867 49.9413 34.2155 49.9413 34.563 49.7406L49.4864 41.1247V41.1262Z" fill="#00C1A2"/>
</svg>
