<svg width="68" height="68" viewBox="0 0 68 68" fill="none" xmlns="http://www.w3.org/2000/svg">
<path fill-rule="evenodd" clip-rule="evenodd" d="M28.8512 23.1984C29.0603 25.4453 29.1063 24.8934 30.5337 28.6005C30.5337 47.8093 27.1427 35.2542 24.3064 28.5922C22.4757 24.1239 21.0027 18.5007 16.5005 18.1343C13.8514 18.1343 11.5177 20.0184 11.4256 22.5238V22.5238C11.3648 23.4203 11.486 24.3142 11.8057 25.154C13.0556 28.4383 16.277 36.6504 16.8932 38.1699C17.8759 40.5986 18.7699 42.9912 19.6917 45.3315C20.642 47.7363 21.6208 49.8661 24.9607 49.8661H25.6361C28.0503 49.8661 30.4645 47.615 31.3863 46.0291C32.7894 43.6081 32.28 37.2777 33.02 34.7353C33.2911 35.7564 36.502 43.6404 37.0234 44.9189C37.9452 47.1985 38.8793 49.8654 42.0459 49.8654H43.0609C45.6453 49.8654 47.8 47.4244 47.8 44.8021V44.6323C47.8 43.3776 43.121 31.935 42.3324 29.9988C41.3297 27.5417 40.4518 25.1976 39.4569 22.7443C38.4743 20.3156 37.467 18.1328 34.0947 18.1328H33.5849C30.9967 18.1328 28.8497 20.5415 28.8497 23.1961L28.8512 23.1984Z" fill="#1DB954"/>
<path fill-rule="evenodd" clip-rule="evenodd" d="M51.4402 18.1719C48.5351 18.1719 46.1782 20.5238 46.1782 23.4229C46.1782 26.3219 48.5351 28.6707 51.4402 28.6707C54.3452 28.6707 56.6989 26.3219 56.6989 23.4229C56.6989 20.5238 54.3452 18.1719 51.4402 18.1719Z" fill="#FFD591"/>
</svg>
