<svg width="56" height="56" viewBox="0 0 56 56" fill="none" xmlns="http://www.w3.org/2000/svg">
<g clip-path="url(#clip0_2465_41552)">
<rect width="56" height="56" rx="10" fill="url(#paint0_linear_2465_41552)"/>
<g filter="url(#filter0_d_2465_41552)">
<mask id="mask0_2465_41552" style="mask-type:luminance" maskUnits="userSpaceOnUse" x="13" y="7" width="31" height="41">
<path d="M43.7985 29.518C43.6777 21.1551 36.8981 14.4162 28.5558 14.4162C27.0836 14.4162 25.6643 14.6287 24.3205 15.0157C24.0562 15.0916 23.792 15.1751 23.5353 15.2662C23.3466 15.3345 23.1654 15.4028 22.9842 15.4787C22.8785 15.5242 22.7728 15.5621 22.6595 15.6077C22.6369 15.6229 22.6067 15.6304 22.584 15.638C22.5765 15.638 22.5689 15.6456 22.5689 15.6456C22.35 15.7367 22.1311 15.8353 21.9121 15.9416C21.897 15.9492 21.8819 15.9568 21.8593 15.9568C21.8442 15.9568 21.8366 15.9568 21.8291 15.9492C21.7762 15.934 21.7385 15.8961 21.7385 15.8353V13.9988C21.7385 12.5038 21.2402 11.1227 20.4022 10.0299C19.2169 8.46657 17.3446 7.46484 15.2383 7.46484C14.1964 7.46484 13.3584 8.31479 13.3584 9.35447V30.2769C13.3584 30.8537 13.4188 31.7947 13.5094 32.3714C13.8642 34.5646 14.7022 36.4922 15.9102 38.2983C17.3748 40.4839 19.383 42.2749 21.746 43.4587C23.7165 44.4529 25.9361 45.0296 28.2765 45.0752C28.435 45.0827 28.5633 45.2118 28.5633 45.3711V47.3215C28.5633 47.496 28.7294 47.6174 28.8955 47.5643C37.5096 44.6047 43.7079 39.6491 43.7985 29.9734C43.7985 29.8975 43.7985 29.8216 43.7985 29.7457C43.806 29.6698 43.806 29.5939 43.7985 29.518ZM32.7836 35.1793C31.6209 36.0976 30.1488 36.644 28.5558 36.644C26.6533 36.644 24.932 35.8623 23.6938 34.6101C22.6218 33.5249 21.9046 32.0831 21.7309 30.4742C21.7083 30.239 21.6932 29.9961 21.6932 29.7457C21.6932 29.5028 21.7007 29.26 21.7309 29.0248C21.9876 26.528 23.5806 24.4259 25.77 23.447C26.6231 23.0675 27.5592 22.855 28.5482 22.855C28.6841 22.855 28.82 22.8626 28.9559 22.8702C32.5571 23.0827 35.4108 26.0803 35.4108 29.7533C35.4184 31.954 34.3917 33.9196 32.7836 35.1793Z" fill="white"/>
</mask>
<g mask="url(#mask0_2465_41552)">
<path d="M35.4179 22.8555H21.7002V36.6444H35.4179V22.8555Z" fill="white"/>
</g>
<mask id="mask1_2465_41552" style="mask-type:luminance" maskUnits="userSpaceOnUse" x="13" y="7" width="31" height="41">
<path d="M43.7985 29.518C43.6777 21.1551 36.8981 14.4162 28.5558 14.4162C27.0836 14.4162 25.6643 14.6287 24.3205 15.0157C24.0562 15.0916 23.792 15.1751 23.5353 15.2662C23.3466 15.3345 23.1654 15.4028 22.9842 15.4787C22.8785 15.5242 22.7728 15.5621 22.6595 15.6077C22.6369 15.6229 22.6067 15.6304 22.584 15.638C22.5765 15.638 22.5689 15.6456 22.5689 15.6456C22.35 15.7367 22.1311 15.8353 21.9121 15.9416C21.897 15.9492 21.8819 15.9568 21.8593 15.9568C21.8442 15.9568 21.8366 15.9568 21.8291 15.9492C21.7762 15.934 21.7385 15.8961 21.7385 15.8353V13.9988C21.7385 12.5038 21.2402 11.1227 20.4022 10.0299C19.2169 8.46657 17.3446 7.46484 15.2383 7.46484C14.1964 7.46484 13.3584 8.31479 13.3584 9.35447V30.2769C13.3584 30.8537 13.4188 31.7947 13.5094 32.3714C13.8642 34.5646 14.7022 36.4922 15.9102 38.2983C17.3748 40.4839 19.383 42.2749 21.746 43.4587C23.7165 44.4529 25.9361 45.0296 28.2765 45.0752C28.435 45.0827 28.5633 45.2118 28.5633 45.3711V47.3215C28.5633 47.496 28.7294 47.6174 28.8955 47.5643C37.5096 44.6047 43.7079 39.6491 43.7985 29.9734C43.7985 29.8975 43.7985 29.8216 43.7985 29.7457C43.806 29.6698 43.806 29.5939 43.7985 29.518ZM32.7836 35.1793C31.6209 36.0976 30.1488 36.644 28.5558 36.644C26.6533 36.644 24.932 35.8623 23.6938 34.6101C22.6218 33.5249 21.9046 32.0831 21.7309 30.4742C21.7083 30.239 21.6932 29.9961 21.6932 29.7457C21.6932 29.5028 21.7007 29.26 21.7309 29.0248C21.9876 26.528 23.5806 24.4259 25.77 23.447C26.6231 23.0675 27.5592 22.855 28.5482 22.855C28.6841 22.855 28.82 22.8626 28.9559 22.8702C32.5571 23.0827 35.4108 26.0803 35.4108 29.7533C35.4184 31.954 34.3917 33.9196 32.7836 35.1793Z" fill="white"/>
</mask>
<g mask="url(#mask1_2465_41552)">
<path d="M43.8067 7.47266H13.3516V47.6101H43.8067V7.47266Z" fill="white"/>
</g>
<mask id="mask2_2465_41552" style="mask-type:alpha" maskUnits="userSpaceOnUse" x="10" y="13" width="31" height="30">
<ellipse cx="25.5365" cy="27.9377" rx="14.8119" ry="14.8888" fill="#131315"/>
</mask>
<g mask="url(#mask2_2465_41552)">
<path d="M19.4307 14.3044C19.1945 14.3044 11.9404 18.5629 11.9404 26.2426V7.62309C13.9219 7.05229 16.0495 7.7725 17.2769 9.42954L19.4307 12.3373V14.3044Z" fill="white"/>
</g>
<ellipse cx="15.8872" cy="24.5803" rx="3.74515" ry="3.73069" fill="white"/>
</g>
</g>
<defs>
<filter id="filter0_d_2465_41552" x="5.94043" y="5.5587" width="43.8638" height="52.1035" filterUnits="userSpaceOnUse" color-interpolation-filters="sRGB">
<feFlood flood-opacity="0" result="BackgroundImageFix"/>
<feColorMatrix in="SourceAlpha" type="matrix" values="0 0 0 0 0 0 0 0 0 0 0 0 0 0 0 0 0 0 127 0" result="hardAlpha"/>
<feOffset dy="4.08604"/>
<feGaussianBlur stdDeviation="3"/>
<feComposite in2="hardAlpha" operator="out"/>
<feColorMatrix type="matrix" values="0 0 0 0 0 0 0 0 0 0 0 0 0 0 0 0 0 0 0.16 0"/>
<feBlend mode="normal" in2="BackgroundImageFix" result="effect1_dropShadow_2465_41552"/>
<feBlend mode="normal" in="SourceGraphic" in2="effect1_dropShadow_2465_41552" result="shape"/>
</filter>
<linearGradient id="paint0_linear_2465_41552" x1="28" y1="0" x2="28" y2="56" gradientUnits="userSpaceOnUse">
<stop stop-color="#ADAAFF"/>
<stop offset="1" stop-color="#615BFF" stop-opacity="0.7"/>
</linearGradient>
<clipPath id="clip0_2465_41552">
<rect width="56" height="56" rx="10" fill="white"/>
</clipPath>
</defs>
</svg>
