<svg width="68" height="68" viewBox="0 0 68 68" fill="none" xmlns="http://www.w3.org/2000/svg">
<path d="M55.1011 44.1084C53.5787 47.2671 51.2953 49.9745 48.4029 52.0803C44.4448 54.9382 39.8779 56.4423 35.0065 56.4423C22.6757 56.2919 12.6284 46.2142 12.6284 33.8803C12.6284 21.5464 22.6757 11.4688 35.0065 11.4688C39.8779 11.4688 44.4448 12.9729 48.2506 15.8307C51.143 17.9365 53.2743 20.644 54.9488 23.8026C55.2533 24.5547 55.4055 25.4572 55.1011 26.2092C54.7966 26.9613 54.0354 27.563 53.2743 27.8638L45.6627 30.4208C45.3582 30.5712 45.0538 30.5712 44.7493 30.5712C43.6837 30.5712 42.7703 30.12 42.1614 29.2175C40.4868 26.8109 37.8989 25.3068 34.8542 25.3068C34.8542 25.3068 34.8542 25.3068 34.702 25.3068C32.4185 25.3068 30.2873 26.2092 28.6127 27.8638C27.2427 29.3679 26.3293 31.6241 26.3293 33.8803C26.3293 38.6935 30.2873 42.6043 35.0065 42.6043C37.8989 42.6043 40.639 41.1001 42.3136 38.6935C42.9225 37.7911 43.8359 37.3398 44.9015 37.3398C45.206 37.3398 45.5105 37.3398 45.8149 37.4902L53.4265 40.0473C54.1877 40.3481 54.9488 40.9497 55.2533 41.7018C55.4055 42.4539 55.4055 43.3563 55.1011 44.1084Z" fill="#F96F07"/>
<path d="M19.1839 35.2414C19.0317 35.2414 19.0317 35.2414 19.1839 35.2414C18.2705 35.2414 17.6616 34.4893 17.6616 33.7372C17.9661 23.6596 25.2732 19.5984 25.5777 19.448C26.3388 19.1472 27.2522 19.2976 27.5567 20.0496C27.8611 20.8017 27.7089 21.7042 26.9478 22.1554C26.6433 22.3058 20.8585 25.6149 20.554 33.8877C20.554 34.6397 19.9451 35.2414 19.1839 35.2414Z" fill="white"/>
<path d="M31.0541 20.3467C30.4452 20.3467 29.8362 20.0459 29.684 19.4442C29.3795 18.6922 29.684 17.7897 30.5974 17.4889C30.7496 17.3385 32.5764 16.7368 34.7076 16.8872C35.621 16.8872 36.23 17.6393 36.0777 18.5418C36.0777 19.4442 35.3166 20.0459 34.4032 19.8955C32.8809 19.7451 31.5108 20.3467 31.5108 20.3467C31.3585 20.3467 31.2063 20.3467 31.0541 20.3467Z" fill="white"/>
</svg>
