<svg width="56" height="56" viewBox="0 0 56 56" fill="none" xmlns="http://www.w3.org/2000/svg">
<rect width="56" height="56" rx="10" fill="url(#paint0_linear_2465_41536)"/>
<g filter="url(#filter0_d_2465_41536)">
<path fill-rule="evenodd" clip-rule="evenodd" d="M15.7583 21.589C14.5998 22.2792 13.1169 21.8731 12.4471 20.6814C11.7761 19.4897 12.1708 17.9645 13.3294 17.2754L26.457 9.47875C27.2443 9.00943 28.1814 9.04739 28.9117 9.4937L41.8414 17.1719C41.8548 17.18 41.8682 17.1869 41.8816 17.1938C42.6801 17.6033 43.2281 18.451 43.2281 19.4311V24.3601C43.2281 25.3401 42.679 26.1879 41.8805 26.5974C41.8671 26.6043 41.8537 26.6124 41.8403 26.6193L37.4286 29.2396C36.6033 29.7319 35.6125 29.6664 34.8688 29.1568L24.0449 22.729C23.469 22.3862 23.469 21.5315 24.0449 21.1887L27.1537 19.3425C27.421 19.1838 27.7509 19.1838 28.0182 19.3425L35.7769 23.9506C36.0441 24.1093 36.3741 24.1093 36.6413 23.9506L37.9374 23.181C38.2047 23.0223 38.3691 22.729 38.3691 22.4115V21.3808C38.3691 21.0633 38.2047 20.77 37.9374 20.6113L28.1032 14.7712C27.8359 14.6125 27.506 14.6125 27.2387 14.7712L15.7583 21.589Z" fill="white"/>
<path fill-rule="evenodd" clip-rule="evenodd" d="M39.5845 32.8651C40.743 32.1749 42.2259 32.5809 42.8958 33.7726C43.5667 34.9643 43.172 36.4896 42.0134 37.1787L28.8858 44.9742C28.0985 45.4435 27.1614 45.4055 26.4311 44.9592L13.5014 37.281C13.488 37.273 13.4746 37.2661 13.4612 37.2592C12.6627 36.8497 12.1147 36.0019 12.1147 35.0219V30.0929C12.1147 29.1128 12.6638 28.265 13.4623 27.8555C13.4757 27.8486 13.4891 27.8406 13.5025 27.8337L17.9142 25.2133C18.7395 24.721 19.7303 24.7866 20.474 25.2961L31.2979 31.724C31.8739 32.0668 31.8739 32.9214 31.2979 33.2642L28.1891 35.1104C27.9218 35.2692 27.5919 35.2692 27.3246 35.1104L19.5659 30.5024C19.2986 30.3436 18.9688 30.3436 18.7015 30.5024L17.4054 31.2719C17.1381 31.4306 16.9726 31.724 16.9726 32.0414V33.0721C16.9726 33.3896 17.137 33.6829 17.4054 33.8417L27.2397 39.6817C27.5069 39.8404 27.8368 39.8404 28.1041 39.6817L39.5845 32.8639V32.8651Z" fill="white"/>
</g>
<defs>
<filter id="filter0_d_2465_41536" x="6.11475" y="7.22862" width="43.1133" height="48.168" filterUnits="userSpaceOnUse" color-interpolation-filters="sRGB">
<feFlood flood-opacity="0" result="BackgroundImageFix"/>
<feColorMatrix in="SourceAlpha" type="matrix" values="0 0 0 0 0 0 0 0 0 0 0 0 0 0 0 0 0 0 127 0" result="hardAlpha"/>
<feOffset dy="4.08604"/>
<feGaussianBlur stdDeviation="3"/>
<feComposite in2="hardAlpha" operator="out"/>
<feColorMatrix type="matrix" values="0 0 0 0 0 0 0 0 0 0 0 0 0 0 0 0 0 0 0.15 0"/>
<feBlend mode="normal" in2="BackgroundImageFix" result="effect1_dropShadow_2465_41536"/>
<feBlend mode="normal" in="SourceGraphic" in2="effect1_dropShadow_2465_41536" result="shape"/>
</filter>
<linearGradient id="paint0_linear_2465_41536" x1="6.28571" y1="50.322" x2="59.4286" y2="-1.67801" gradientUnits="userSpaceOnUse">
<stop stop-color="#00C1A2"/>
<stop offset="1" stop-color="#82E9D9"/>
</linearGradient>
</defs>
</svg>
