<svg width="56" height="56" viewBox="0 0 56 56" fill="none" xmlns="http://www.w3.org/2000/svg">
<rect width="56" height="56" rx="10" fill="url(#paint0_linear_2465_41618)"/>
<g clip-path="url(#clip0_2465_41618)">
<g filter="url(#filter0_d_2465_41618)">
<path d="M28.0002 45.4173C37.6191 45.4173 45.4168 37.6196 45.4168 28.0007C45.4168 18.3817 37.6191 10.584 28.0002 10.584C18.3812 10.584 10.5835 18.3817 10.5835 28.0007C10.5835 37.6196 18.3812 45.4173 28.0002 45.4173Z" fill="white"/>
</g>
<path fill-rule="evenodd" clip-rule="evenodd" d="M28 17.3125C28.6558 17.3125 29.1875 17.8442 29.1875 18.5V35.9167C29.1875 36.5725 28.6558 37.1042 28 37.1042C27.3442 37.1042 26.8125 36.5725 26.8125 35.9167V18.5C26.8125 17.8442 27.3442 17.3125 28 17.3125ZM23.25 22.0625C23.9058 22.0625 24.4375 22.5942 24.4375 23.25V32.75C24.4375 33.4058 23.9058 33.9375 23.25 33.9375C22.5942 33.9375 22.0625 33.4058 22.0625 32.75V23.25C22.0625 22.5942 22.5942 22.0625 23.25 22.0625ZM32.75 22.0625C33.4058 22.0625 33.9375 22.5942 33.9375 23.25V32.75C33.9375 33.4058 33.4058 33.9375 32.75 33.9375C32.0942 33.9375 31.5625 33.4058 31.5625 32.75V23.25C31.5625 22.5942 32.0942 22.0625 32.75 22.0625ZM18.5 25.2292C19.1558 25.2292 19.6875 25.7608 19.6875 26.4167V29.5833C19.6875 30.2392 19.1558 30.7708 18.5 30.7708C17.8442 30.7708 17.3125 30.2392 17.3125 29.5833V26.4167C17.3125 25.7608 17.8442 25.2292 18.5 25.2292ZM37.5 25.2292C38.1558 25.2292 38.6875 25.7608 38.6875 26.4167V29.5833C38.6875 30.2392 38.1558 30.7708 37.5 30.7708C36.8442 30.7708 36.3125 30.2392 36.3125 29.5833V26.4167C36.3125 25.7608 36.8442 25.2292 37.5 25.2292Z" fill="white"/>
<path fill-rule="evenodd" clip-rule="evenodd" d="M28 17.3125C28.6558 17.3125 29.1875 17.8442 29.1875 18.5V35.9167C29.1875 36.5725 28.6558 37.1042 28 37.1042C27.3442 37.1042 26.8125 36.5725 26.8125 35.9167V18.5C26.8125 17.8442 27.3442 17.3125 28 17.3125ZM23.25 22.0625C23.9058 22.0625 24.4375 22.5942 24.4375 23.25V32.75C24.4375 33.4058 23.9058 33.9375 23.25 33.9375C22.5942 33.9375 22.0625 33.4058 22.0625 32.75V23.25C22.0625 22.5942 22.5942 22.0625 23.25 22.0625ZM32.75 22.0625C33.4058 22.0625 33.9375 22.5942 33.9375 23.25V32.75C33.9375 33.4058 33.4058 33.9375 32.75 33.9375C32.0942 33.9375 31.5625 33.4058 31.5625 32.75V23.25C31.5625 22.5942 32.0942 22.0625 32.75 22.0625ZM18.5 25.2292C19.1558 25.2292 19.6875 25.7608 19.6875 26.4167V29.5833C19.6875 30.2392 19.1558 30.7708 18.5 30.7708C17.8442 30.7708 17.3125 30.2392 17.3125 29.5833V26.4167C17.3125 25.7608 17.8442 25.2292 18.5 25.2292ZM37.5 25.2292C38.1558 25.2292 38.6875 25.7608 38.6875 26.4167V29.5833C38.6875 30.2392 38.1558 30.7708 37.5 30.7708C36.8442 30.7708 36.3125 30.2392 36.3125 29.5833V26.4167C36.3125 25.7608 36.8442 25.2292 37.5 25.2292Z" fill="url(#paint1_linear_2465_41618)"/>
</g>
<defs>
<filter id="filter0_d_2465_41618" x="4.5835" y="8.58398" width="46.8335" height="46.834" filterUnits="userSpaceOnUse" color-interpolation-filters="sRGB">
<feFlood flood-opacity="0" result="BackgroundImageFix"/>
<feColorMatrix in="SourceAlpha" type="matrix" values="0 0 0 0 0 0 0 0 0 0 0 0 0 0 0 0 0 0 127 0" result="hardAlpha"/>
<feOffset dy="4"/>
<feGaussianBlur stdDeviation="3"/>
<feComposite in2="hardAlpha" operator="out"/>
<feColorMatrix type="matrix" values="0 0 0 0 0 0 0 0 0 0 0 0 0 0 0 0 0 0 0.15 0"/>
<feBlend mode="normal" in2="BackgroundImageFix" result="effect1_dropShadow_2465_41618"/>
<feBlend mode="normal" in="SourceGraphic" in2="effect1_dropShadow_2465_41618" result="shape"/>
</filter>
<linearGradient id="paint0_linear_2465_41618" x1="4" y1="2.5" x2="53.5" y2="52" gradientUnits="userSpaceOnUse">
<stop offset="0.394738" stop-color="#00B6B0"/>
<stop offset="1" stop-color="#0090D4"/>
</linearGradient>
<linearGradient id="paint1_linear_2465_41618" x1="18.8393" y1="18.1961" x2="36.282" y2="37.0342" gradientUnits="userSpaceOnUse">
<stop offset="0.394738" stop-color="#00B6B0"/>
<stop offset="1" stop-color="#0090D4"/>
</linearGradient>
<clipPath id="clip0_2465_41618">
<rect width="38" height="38" fill="white" transform="translate(9 9)"/>
</clipPath>
</defs>
</svg>
