<svg width="68" height="68" viewBox="0 0 68 68" fill="none" xmlns="http://www.w3.org/2000/svg">
<g clip-path="url(#clip0_2465_41501)">
<path d="M34.0002 56.9173C46.6567 56.9173 56.9168 46.6572 56.9168 34.0007C56.9168 21.3441 46.6567 11.084 34.0002 11.084C21.3436 11.084 11.0835 21.3441 11.0835 34.0007C11.0835 46.6572 21.3436 56.9173 34.0002 56.9173Z" fill="#D9D9D9"/>
<path d="M34.0002 56.9173C46.6567 56.9173 56.9168 46.6572 56.9168 34.0007C56.9168 21.3441 46.6567 11.084 34.0002 11.084C21.3436 11.084 11.0835 21.3441 11.0835 34.0007C11.0835 46.6572 21.3436 56.9173 34.0002 56.9173Z" fill="url(#paint0_linear_2465_41501)"/>
<path fill-rule="evenodd" clip-rule="evenodd" d="M34 19.9375C34.8629 19.9375 35.5625 20.6371 35.5625 21.5V44.4167C35.5625 45.2796 34.8629 45.9792 34 45.9792C33.1371 45.9792 32.4375 45.2796 32.4375 44.4167V21.5C32.4375 20.6371 33.1371 19.9375 34 19.9375ZM27.75 26.1875C28.6129 26.1875 29.3125 26.8871 29.3125 27.75V40.25C29.3125 41.1129 28.6129 41.8125 27.75 41.8125C26.8871 41.8125 26.1875 41.1129 26.1875 40.25V27.75C26.1875 26.8871 26.8871 26.1875 27.75 26.1875ZM40.25 26.1875C41.1129 26.1875 41.8125 26.8871 41.8125 27.75V40.25C41.8125 41.1129 41.1129 41.8125 40.25 41.8125C39.3871 41.8125 38.6875 41.1129 38.6875 40.25V27.75C38.6875 26.8871 39.3871 26.1875 40.25 26.1875ZM21.5 30.3542C22.3629 30.3542 23.0625 31.0537 23.0625 31.9167V36.0833C23.0625 36.9463 22.3629 37.6458 21.5 37.6458C20.6371 37.6458 19.9375 36.9463 19.9375 36.0833V31.9167C19.9375 31.0537 20.6371 30.3542 21.5 30.3542ZM46.5 30.3542C47.3629 30.3542 48.0625 31.0537 48.0625 31.9167V36.0833C48.0625 36.9463 47.3629 37.6458 46.5 37.6458C45.6371 37.6458 44.9375 36.9463 44.9375 36.0833V31.9167C44.9375 31.0537 45.6371 30.3542 46.5 30.3542Z" fill="white"/>
</g>
<defs>
<linearGradient id="paint0_linear_2465_41501" x1="11.0835" y1="15.3809" x2="53.3361" y2="59.7819" gradientUnits="userSpaceOnUse">
<stop offset="0.211458" stop-color="#00B6B0"/>
<stop offset="1" stop-color="#0090D4"/>
</linearGradient>
<clipPath id="clip0_2465_41501">
<rect width="50" height="50" fill="white" transform="translate(9 9)"/>
</clipPath>
</defs>
</svg>
