<svg width="85" height="82" viewBox="0 0 85 82" fill="none" xmlns="http://www.w3.org/2000/svg">
<g filter="url(#filter0_bdi_3502_5797)">
<g clip-path="url(#clip0_3502_5797)">
<rect x="12" y="13" width="48" height="48" rx="12" fill="url(#paint0_linear_3502_5797)" fill-opacity="0.04" shape-rendering="crispEdges"/>
<g style="mix-blend-mode:plus-lighter" opacity="0.5" filter="url(#filter1_f_3502_5797)">
<path fill-rule="evenodd" clip-rule="evenodd" d="M28.1091 25.7902L36 25L43.8909 25.7902L49.9999 33.558L36 48.9999L22 33.558L28.1091 25.7902Z" fill="#FDB300"/>
<path d="M27.6706 33.5581L35.9999 49.0001L22 33.5581H27.6706ZM44.3294 33.5581L36.0001 49.0001L50 33.5581" fill="#EA6C00"/>
<path fill-rule="evenodd" clip-rule="evenodd" d="M27.6704 33.5581H44.329L35.9997 49.0001" fill="#FDAD00"/>
<path d="M35.9997 25L28.1088 25.79L27.6704 33.5579L35.9997 25ZM35.9998 25L43.8907 25.79L44.3291 33.5579" fill="#FDD231"/>
<path d="M50 33.5579L43.891 25.79L44.3294 33.5579H50ZM22 33.5579L28.109 25.79L27.6706 33.5579" fill="#FDAD00"/>
<path fill-rule="evenodd" clip-rule="evenodd" d="M35.9997 25L27.6704 33.5579H44.329" fill="#FEEEB7"/>
</g>
<g clip-path="url(#clip1_3502_5797)">
<path d="M25.7658 21H46.4325C47.1768 20.9993 47.914 21.1491 48.6018 21.4409C49.2896 21.7328 49.9146 22.1608 50.441 22.7007C50.9673 23.2405 51.3847 23.8815 51.6692 24.587C51.9537 25.2924 52.0998 26.0485 52.0991 26.812V47.188C52.0998 47.9515 51.9537 48.7076 51.6692 49.413C51.3847 50.1185 50.9673 50.7595 50.441 51.2993C49.9146 51.8392 49.2896 52.2672 48.6018 52.5591C47.914 52.8509 47.1768 53.0007 46.4325 53H25.7658C25.0214 53.0007 24.2842 52.8509 23.5964 52.5591C22.9086 52.2672 22.2836 51.8392 21.7573 51.2993C21.2309 50.7595 20.8136 50.1185 20.529 49.413C20.2445 48.7076 20.0984 47.9515 20.0991 47.188V26.812C20.0984 26.0485 20.2445 25.2924 20.529 24.587C20.8136 23.8815 21.2309 23.2405 21.7573 22.7007C22.2836 22.1608 22.9086 21.7328 23.5964 21.4409C24.2842 21.1491 25.0214 20.9993 25.7658 21V21Z" fill="#330000"/>
<path d="M36.0035 40.2H30.9164L29.877 43.4136C29.8654 43.4722 29.8323 43.5243 29.7843 43.5597C29.7362 43.5952 29.6766 43.6113 29.6172 43.6051H27.0463C26.8958 43.6051 26.8548 43.523 26.8958 43.3589L31.2993 30.682C31.3403 30.5453 31.3813 30.3948 31.436 30.2307C31.491 29.9376 31.5185 29.64 31.5181 29.3418C31.514 29.3076 31.523 29.2731 31.5433 29.2452C31.5635 29.2173 31.5936 29.1981 31.6275 29.1914H35.1693C35.2787 29.1914 35.3334 29.2324 35.3471 29.3008L40.3386 43.3863C40.3796 43.5367 40.3386 43.6051 40.2018 43.6051H37.3437C37.2954 43.6097 37.2469 43.5972 37.2069 43.5697C37.1669 43.5422 37.1379 43.5015 37.1249 43.4547L36.0035 40.2ZM31.7095 37.4239H35.183C35.101 37.1367 34.9916 36.7948 34.8685 36.4393C34.7454 36.0837 34.6223 35.6735 34.4993 35.2632C34.3762 34.8529 34.2394 34.429 34.1027 34.0051C33.9659 33.5811 33.8428 33.1846 33.7334 32.788C33.624 32.3914 33.5283 32.0495 33.4326 31.7213H33.4052C33.2823 32.3173 33.1271 32.9063 32.9403 33.4854C32.7352 34.1418 32.53 34.8256 32.3112 35.5094C32.1198 36.2068 31.9146 36.8495 31.7095 37.4239V37.4239Z" fill="#FF9A00"/>
<path d="M43.3198 31.5299C43.0953 31.5349 42.8721 31.4951 42.6632 31.4129C42.4542 31.3307 42.2637 31.2078 42.1027 31.0513C41.7894 30.7087 41.6225 30.2572 41.6377 29.7932C41.6297 29.5671 41.6693 29.3419 41.7542 29.1322C41.839 28.9225 41.9671 28.733 42.1301 28.5761C42.4588 28.2654 42.8949 28.0939 43.3471 28.0975C43.8805 28.0975 44.2907 28.2616 44.5916 28.5761C44.8945 28.9077 45.0564 29.3443 45.0429 29.7932C45.0512 30.0242 45.0132 30.2546 44.9309 30.4707C44.8487 30.6868 44.724 30.8842 44.5642 31.0513C44.4031 31.2154 44.2086 31.3431 43.994 31.4257C43.7793 31.5082 43.5494 31.5438 43.3198 31.5299V31.5299ZM41.7882 43.4V32.8701C41.7882 32.7334 41.8429 32.6787 41.9659 32.6787H44.6736C44.7967 32.6787 44.8514 32.747 44.8514 32.8701V43.4C44.8514 43.5505 44.7967 43.6188 44.6736 43.6188H41.9933C41.9646 43.6212 41.9357 43.6171 41.9087 43.6067C41.8818 43.5963 41.8576 43.58 41.8379 43.559C41.8182 43.5379 41.8035 43.5127 41.7948 43.4852C41.7862 43.4577 41.784 43.4286 41.7882 43.4V43.4Z" fill="#FF9A00"/>
</g>
<g filter="url(#filter2_f_3502_5797)">
<ellipse cx="36.5" cy="60.5" rx="11.5" ry="6.5" fill="#FDD540"/>
</g>
</g>
<rect x="12" y="13" width="48" height="48" rx="12" stroke="url(#paint1_linear_3502_5797)" stroke-opacity="0.5" stroke-width="0.8" shape-rendering="crispEdges"/>
</g>
<g style="mix-blend-mode:screen" filter="url(#filter3_f_3502_5797)">
<circle cx="29" cy="30" r="9" fill="white" fill-opacity="0.18"/>
</g>
<defs>
<filter id="filter0_bdi_3502_5797" x="-8.3999" y="-7.3999" width="92.7998" height="88.7998" filterUnits="userSpaceOnUse" color-interpolation-filters="sRGB">
<feFlood flood-opacity="0" result="BackgroundImageFix"/>
<feGaussianBlur in="BackgroundImageFix" stdDeviation="10"/>
<feComposite in2="SourceAlpha" operator="in" result="effect1_backgroundBlur_3502_5797"/>
<feColorMatrix in="SourceAlpha" type="matrix" values="0 0 0 0 0 0 0 0 0 0 0 0 0 0 0 0 0 0 127 0" result="hardAlpha"/>
<feOffset dx="8" dy="4"/>
<feGaussianBlur stdDeviation="8"/>
<feComposite in2="hardAlpha" operator="out"/>
<feColorMatrix type="matrix" values="0 0 0 0 0 0 0 0 0 0 0 0 0 0 0 0 0 0 0.08 0"/>
<feBlend mode="normal" in2="effect1_backgroundBlur_3502_5797" result="effect2_dropShadow_3502_5797"/>
<feBlend mode="normal" in="SourceGraphic" in2="effect2_dropShadow_3502_5797" result="shape"/>
<feColorMatrix in="SourceAlpha" type="matrix" values="0 0 0 0 0 0 0 0 0 0 0 0 0 0 0 0 0 0 127 0" result="hardAlpha"/>
<feOffset/>
<feGaussianBlur stdDeviation="4"/>
<feComposite in2="hardAlpha" operator="arithmetic" k2="-1" k3="1"/>
<feColorMatrix type="matrix" values="0 0 0 0 0.992157 0 0 0 0 0.835294 0 0 0 0 0.25098 0 0 0 0.32 0"/>
<feBlend mode="normal" in2="shape" result="effect3_innerShadow_3502_5797"/>
</filter>
<filter id="filter1_f_3502_5797" x="8" y="9" width="56" height="56" filterUnits="userSpaceOnUse" color-interpolation-filters="sRGB">
<feFlood flood-opacity="0" result="BackgroundImageFix"/>
<feBlend mode="normal" in="SourceGraphic" in2="BackgroundImageFix" result="shape"/>
<feGaussianBlur stdDeviation="6" result="effect1_foregroundBlur_3502_5797"/>
</filter>
<filter id="filter2_f_3502_5797" x="7" y="36" width="59" height="49" filterUnits="userSpaceOnUse" color-interpolation-filters="sRGB">
<feFlood flood-opacity="0" result="BackgroundImageFix"/>
<feBlend mode="normal" in="SourceGraphic" in2="BackgroundImageFix" result="shape"/>
<feGaussianBlur stdDeviation="9" result="effect1_foregroundBlur_3502_5797"/>
</filter>
<filter id="filter3_f_3502_5797" x="0" y="1" width="58" height="58" filterUnits="userSpaceOnUse" color-interpolation-filters="sRGB">
<feFlood flood-opacity="0" result="BackgroundImageFix"/>
<feBlend mode="normal" in="SourceGraphic" in2="BackgroundImageFix" result="shape"/>
<feGaussianBlur stdDeviation="10" result="effect1_foregroundBlur_3502_5797"/>
</filter>
<linearGradient id="paint0_linear_3502_5797" x1="12" y1="13" x2="60" y2="61" gradientUnits="userSpaceOnUse">
<stop stop-color="#F8FBFF"/>
<stop offset="1" stop-color="white" stop-opacity="0"/>
</linearGradient>
<linearGradient id="paint1_linear_3502_5797" x1="13" y1="12" x2="58.5" y2="61" gradientUnits="userSpaceOnUse">
<stop stop-color="#D8D8D8" stop-opacity="0.05"/>
<stop offset="1" stop-color="white" stop-opacity="0.4"/>
</linearGradient>
<clipPath id="clip0_3502_5797">
<rect x="12" y="13" width="48" height="48" rx="12" fill="white"/>
</clipPath>
<clipPath id="clip1_3502_5797">
<rect width="32" height="32" fill="white" transform="translate(20 21)"/>
</clipPath>
</defs>
</svg>
